<svg xmlns="http://www.w3.org/2000/svg" width="62.504" height="62.504" viewBox="0 0 62.504 62.504">
  <g id="Grupo_1103380" data-name="Grupo 1103380" transform="translate(-303.711 -1857)">
    <g id="Grupo_1072053" data-name="Grupo 1072053" transform="translate(303.711 1857)">
      <circle id="Elipse_4742" data-name="Elipse 4742" cx="31.252" cy="31.252" r="31.252" transform="translate(0)" fill="#4e93ee"/>
    </g>
    <g id="lista-de-verificacion" transform="translate(247.787 1869.064)">
      <path id="Trazado_879052" data-name="Trazado 879052" d="M97.585,0H76.669a3.42,3.42,0,0,0-3.416,3.416V35.455a3.42,3.42,0,0,0,3.416,3.416H97.585A3.42,3.42,0,0,0,101,35.455V3.416A3.42,3.42,0,0,0,97.585,0ZM83.144,21.944,80.9,24.192a1.139,1.139,0,0,1-1.61,0l-1.346-1.346a1.139,1.139,0,0,1,1.61-1.61l.541.541,1.443-1.442a1.139,1.139,0,1,1,1.61,1.61Zm0,7.071L80.9,31.263a1.139,1.139,0,0,1-1.61,0l-1.346-1.346a1.139,1.139,0,1,1,1.61-1.61l.541.541L81.533,27.4a1.139,1.139,0,1,1,1.61,1.61Zm0-14.142L80.9,17.121a1.139,1.139,0,0,1-1.61,0l-1.346-1.346a1.139,1.139,0,0,1,1.61-1.61l.541.541,1.443-1.443a1.139,1.139,0,1,1,1.61,1.61ZM81.8,9.552a1.139,1.139,0,1,1,0-2.278H92.459a1.139,1.139,0,0,1,0,2.278ZM95.51,24.525H87.4a1.139,1.139,0,1,1,0-2.278H95.51a1.139,1.139,0,0,1,0,2.278Zm1.139,5.932A1.139,1.139,0,0,1,95.51,31.6H87.4a1.139,1.139,0,1,1,0-2.278H95.51A1.139,1.139,0,0,1,96.649,30.458Zm-1.139-13H87.4a1.139,1.139,0,1,1,0-2.278H95.51a1.139,1.139,0,0,1,0,2.278Z" transform="translate(0)" fill="#12263f"/>
    </g>
  </g>
</svg>
