<svg xmlns="http://www.w3.org/2000/svg" width="62.504" height="62.504" viewBox="0 0 62.504 62.504">
  <g id="Grupo_1103381" data-name="Grupo 1103381" transform="translate(-613.711 -1857.117)">
    <circle id="Elipse_4742" data-name="Elipse 4742" cx="31.252" cy="31.252" r="31.252" transform="translate(613.711 1857.117)" fill="#81c74d"/>
    <path id="Trazado_879038" data-name="Trazado 879038" d="M4.595,12.489a1.877,1.877,0,0,0,1.763,2.518h.034l4.356-.079a7.275,7.275,0,0,0,2.962-.685L28.457,7.366a2.033,2.033,0,0,0-.376-3.783l-1.7-.412a6.014,6.014,0,0,0-3.947.392L18.731,5.29,13.265,3.62a.666.666,0,0,0-.476.033L9.773,5.06a.671.671,0,0,0-.022,1.2l3.292,1.686-2.8,1.308-3.685-2a1.347,1.347,0,0,0-1.291-.083l-1.521.71a1.319,1.319,0,0,0-.327,2.175L5.32,11.574a1.859,1.859,0,0,0-.726.914Z" transform="translate(623.05 1866.063)" fill="#12263f"/>
    <path id="Trazado_879039" data-name="Trazado 879039" d="M8.588,46.837a.687.687,0,0,0,.8,0c.309-.233,7.588-5.767,7.588-11.849A7.988,7.988,0,1,0,1,34.988C1,41.069,8.277,46.6,8.588,46.837Zm.4-16.509a3.994,3.994,0,1,1-3.994,3.994A4,4,0,0,1,8.988,30.328Z" transform="translate(623.711 1858.04)" fill="#12263f"/>
    <path id="Trazado_879042" data-name="Trazado 879042" d="M37.606,24H35.8a5.022,5.022,0,0,0-.842.071.666.666,0,0,0-.545.768.677.677,0,0,0,.768.545,3.724,3.724,0,0,1,.62-.052h1.808a.666.666,0,0,0,0-1.331Z" transform="translate(612.544 1859.043)" fill="#12263f"/>
    <path id="Trazado_879043" data-name="Trazado 879043" d="M34.723,37.921h.023a.666.666,0,0,0,.022-1.331,3.638,3.638,0,0,1-2-.684.666.666,0,0,0-.778,1.081,4.968,4.968,0,0,0,2.737.934Z" transform="translate(613.445 1855.104)" fill="#12263f"/>
    <path id="Trazado_879044" data-name="Trazado 879044" d="M30.814,28.266A.666.666,0,1,0,29.66,27.6,4.994,4.994,0,0,0,29,30.085c0,.112,0,.224.011.335a.674.674,0,0,0,.709.619.666.666,0,0,0,.62-.709c-.006-.081-.008-.163-.008-.246a3.663,3.663,0,0,1,.483-1.819Z" transform="translate(614.35 1857.95)" fill="#12263f"/>
    <path id="Trazado_879045" data-name="Trazado 879045" d="M57.287,43.987a.666.666,0,0,0-.5.8,5.339,5.339,0,0,1,.136,1.2,5.448,5.448,0,0,1-.1,1.043.677.677,0,0,0,.654.795.667.667,0,0,0,.653-.537,6.807,6.807,0,0,0,.127-1.3,6.7,6.7,0,0,0-.17-1.5A.668.668,0,0,0,57.287,43.987Z" transform="translate(605.066 1852.366)" fill="#12263f"/>
    <path id="Trazado_879047" data-name="Trazado 879047" d="M50.993,38.66a5.277,5.277,0,0,1,1.972,1.066.682.682,0,0,0,.939-.073.666.666,0,0,0-.073-.938,6.6,6.6,0,0,0-2.467-1.333.666.666,0,0,0-.371,1.279Z" transform="translate(607.158 1854.578)" fill="#12263f"/>
    <path id="Trazado_879048" data-name="Trazado 879048" d="M41.665,38.331h2.542a.666.666,0,1,0,0-1.331H41.665a.666.666,0,1,0,0,1.331Z" transform="translate(610.339 1854.696)" fill="#12263f"/>
    <path id="Trazado_879050" data-name="Trazado 879050" d="M46,24H44.666a.666.666,0,1,0,0,1.331H46A.666.666,0,0,0,46,24Z" transform="translate(609.335 1859.043)" fill="#12263f"/>
    <path id="Trazado_879051" data-name="Trazado 879051" d="M53.66,9A4.665,4.665,0,0,0,49,13.66a6.823,6.823,0,0,0,1.875,4.626,2.023,2.023,0,0,0-1.209,1.7c0,1.328,1.717,2.33,3.994,2.33s3.994-1,3.994-2.33a2.023,2.023,0,0,0-1.209-1.7A6.823,6.823,0,0,0,58.32,13.66,4.665,4.665,0,0,0,53.66,9Zm0,2.663a2,2,0,1,1-2,2A2,2,0,0,1,53.66,11.663Zm0,9.32c-1.652,0-2.663-.647-2.663-1,0-.2.334-.491.916-.708a8.718,8.718,0,0,0,1.447.97.673.673,0,0,0,.6,0,8.718,8.718,0,0,0,1.447-.97c.582.217.916.509.916.708,0,.352-1.011,1-2.663,1Z" transform="translate(607.664 1864.058)" fill="#12263f"/>
  </g>
</svg>
