<svg xmlns="http://www.w3.org/2000/svg" width="62.504" height="62.504" viewBox="0 0 62.504 62.504">
  <g id="Grupo_1103382" data-name="Grupo 1103382" transform="translate(-923.711 -1857)">
    <g id="Grupo_1072053" data-name="Grupo 1072053" transform="translate(923.711 1857)">
      <circle id="Elipse_4742" data-name="Elipse 4742" cx="31.252" cy="31.252" r="31.252" transform="translate(0)" fill="#4e93ee"/>
    </g>
    <g id="turista" transform="translate(934.729 1868.019)">
      <path id="Trazado_879053" data-name="Trazado 879053" d="M9,40.009h1.409V35.257L9,35.583Z" transform="translate(-2.658 -10.411)" fill="#12263f"/>
      <path id="Trazado_879054" data-name="Trazado 879054" d="M18.51,36.414l-1.17,1.17,1.17,1.462Z" transform="translate(-5.12 -10.753)" fill="#12263f"/>
      <path id="Trazado_879055" data-name="Trazado 879055" d="M4.409,18.819V16a1.409,1.409,0,1,0,0,2.819Z" transform="translate(-0.886 -4.725)" fill="#12263f"/>
      <path id="Trazado_879056" data-name="Trazado 879056" d="M22.409,35.583,21,35.257v4.752h1.409Z" transform="translate(-6.201 -10.411)" fill="#12263f"/>
      <path id="Trazado_879057" data-name="Trazado 879057" d="M1.409,40.281H4.933v-4.1l-.017,0A6.315,6.315,0,0,0,0,42.364v1.128A2.79,2.79,0,0,1,1.409,43.1Z" transform="translate(0 -10.684)" fill="#12263f"/>
      <path id="Trazado_879058" data-name="Trazado 879058" d="M45.663,26.663c-.54-.725-1.054-1.471-1.549-2.228C42.85,24.822,42,25.53,42,26.243c0,1,1.736,2.114,4.228,2.114s4.228-1.114,4.228-2.114c0-.713-.851-1.421-2.114-1.808-.5.758-1.008,1.5-1.548,2.228l-.566.76Z" transform="translate(-12.402 -7.215)" fill="#12263f"/>
      <path id="Trazado_879059" data-name="Trazado 879059" d="M26.962,19.638v.309a7.107,7.107,0,0,1-.092,1.1H32.6V14h-2.96a6.42,6.42,0,0,1-.376,1.2,2.811,2.811,0,0,1-2.3,4.436Z" transform="translate(-7.935 -4.134)" fill="#12263f"/>
      <path id="Trazado_879060" data-name="Trazado 879060" d="M45.638,17.829a43.654,43.654,0,0,0,5.22-9.81A6.175,6.175,0,0,0,51.275,5.8,5.638,5.638,0,0,0,45.822,0h-.369A5.638,5.638,0,0,0,40,5.8a6.075,6.075,0,0,0,.395,2.164,43.84,43.84,0,0,0,5.243,9.869Zm0-15.715a3.524,3.524,0,1,1-3.524,3.524A3.524,3.524,0,0,1,45.638,2.114Z" transform="translate(-11.812)" fill="#12263f"/>
      <path id="Trazado_879061" data-name="Trazado 879061" d="M4.409,10.456A2.117,2.117,0,0,1,6.063,8.393l.084-.168a2.338,2.338,0,0,1,4.261.177,3.179,3.179,0,0,0,2.968,2.055,3.14,3.14,0,0,0,.44-.043A4.907,4.907,0,0,1,11.853,8.06l-.346-.866,1.309-.523.346.866A3.492,3.492,0,0,0,15.5,9.621c.037-.033.078-.058.113-.093l.541-.542a2.194,2.194,0,0,1,3.746,1.47h.009a2.79,2.79,0,0,1,1.155.254,4.952,4.952,0,0,0-2.643-6.072l-4.6-2.125A5.527,5.527,0,0,0,11.487,2,5.6,5.6,0,0,0,6.708,4.706l-.445.743-.306.061A3.689,3.689,0,0,0,3,9.117a5.9,5.9,0,0,0,.229,1.607,2.785,2.785,0,0,1,1.18-.268Z" transform="translate(-0.886 -0.591)" fill="#12263f"/>
      <path id="Trazado_879062" data-name="Trazado 879062" d="M28.409,17.409A1.411,1.411,0,0,0,27,16v2.819A1.411,1.411,0,0,0,28.409,17.409Z" transform="translate(-7.973 -4.725)" fill="#12263f"/>
      <path id="Trazado_879063" data-name="Trazado 879063" d="M19.684,19.061V13.2a.79.79,0,0,0-1.35-.558l-.541.541a4.58,4.58,0,0,1-7.49-1.538A.95.95,0,0,0,9.419,11a.92.92,0,0,0-.829.513l-.449.9H7.7a.705.705,0,0,0-.7.7v5.947A5.606,5.606,0,0,0,10.117,24.1l.332.166a1.4,1.4,0,0,1,.779,1.261v1.387l2.114,2.114,2.114-2.114V25.53a1.4,1.4,0,0,1,.779-1.261l.331-.166a5.607,5.607,0,0,0,3.117-5.042Zm-6.972-1.4a.706.706,0,0,1-.074-.315V15.933h1.409v1.243l.315.631a1.41,1.41,0,0,1-.631,1.891l-.779.39-.631-1.261.779-.39Zm-2.893-1.02a.7.7,0,1,1,.7-.7A.7.7,0,0,1,9.819,16.638Zm3.524,6.342a3.538,3.538,0,0,1-3.052-1.761l1.22-.706a2.116,2.116,0,0,0,3.664,0l1.219.706A3.537,3.537,0,0,1,13.342,22.98Zm3.524-6.342a.7.7,0,1,1,.7-.7A.7.7,0,0,1,16.866,16.638Z" transform="translate(-2.067 -3.248)" fill="#12263f"/>
      <path id="Trazado_879064" data-name="Trazado 879064" d="M2.819,50.819H1.409V49.409H2.819v-.7a.705.705,0,0,0-.7-.7h-.7A1.411,1.411,0,0,0,0,49.409v1.409a1.411,1.411,0,0,0,1.409,1.409h.7a.705.705,0,0,0,.7-.7Z" transform="translate(0 -14.174)" fill="#12263f"/>
      <path id="Trazado_879065" data-name="Trazado 879065" d="M35.135,23.161c0-1.286,1.057-2.415,2.753-3.032A45.173,45.173,0,0,1,34.771,14h-1.75v8.456H25.5a6.965,6.965,0,0,1-1.975,2.819h7.382v8.456h2.819V25.275h2.516a2.783,2.783,0,0,1-1.106-2.114Z" transform="translate(-6.947 -4.134)" fill="#12263f"/>
      <path id="Trazado_879066" data-name="Trazado 879066" d="M40,32H52.685v7.047H40Z" transform="translate(-11.812 -9.449)" fill="#12263f"/>
      <path id="Trazado_879067" data-name="Trazado 879067" d="M21,32.848l3.152.727a7.73,7.73,0,0,1,4.6,3.089V32H21Z" transform="translate(-6.201 -9.449)" fill="#12263f"/>
      <path id="Trazado_879068" data-name="Trazado 879068" d="M25.016,36.184l-.016,0v4.1h3.524V43.1a2.79,2.79,0,0,1,1.409.392V42.364a6.313,6.313,0,0,0-4.917-6.18Z" transform="translate(-7.382 -10.684)" fill="#12263f"/>
      <path id="Trazado_879069" data-name="Trazado 879069" d="M55.21,14a45.344,45.344,0,0,1-3.116,6.128,5.4,5.4,0,0,1,1.643.919h2.519V14Z" transform="translate(-15.383 -4.134)" fill="#12263f"/>
      <path id="Trazado_879070" data-name="Trazado 879070" d="M55.536,26.7a2.783,2.783,0,0,1-1.106,2.114h2.516V26H55.414A2.346,2.346,0,0,1,55.536,26.7Z" transform="translate(-16.073 -7.678)" fill="#12263f"/>
      <path id="Trazado_879071" data-name="Trazado 879071" d="M14.081,41.292h2.7L15.433,39.6Z" transform="translate(-4.158 -11.694)" fill="#12263f"/>
      <path id="Trazado_879072" data-name="Trazado 879072" d="M4,45.539a2.111,2.111,0,0,1,1.409,1.984v2.819A2.111,2.111,0,0,1,4,52.327v1.539h6.342V44H4Z" transform="translate(-1.181 -12.993)" fill="#12263f"/>
      <path id="Trazado_879073" data-name="Trazado 879073" d="M15,44h1.409v9.866H15Z" transform="translate(-4.429 -12.993)" fill="#12263f"/>
      <path id="Trazado_879074" data-name="Trazado 879074" d="M29.409,48h-.7a.705.705,0,0,0-.7.7v.7h1.409v1.409H28v.7a.705.705,0,0,0,.7.7h.7a1.411,1.411,0,0,0,1.409-1.409V49.409A1.411,1.411,0,0,0,29.409,48Z" transform="translate(-8.268 -14.174)" fill="#12263f"/>
      <path id="Trazado_879075" data-name="Trazado 879075" d="M13,36.414v2.632l1.17-1.462Z" transform="translate(-3.839 -10.753)" fill="#12263f"/>
      <path id="Trazado_879076" data-name="Trazado 879076" d="M23.933,50.342V47.524a2.111,2.111,0,0,1,1.409-1.984V44H19v9.866h6.342V52.327A2.111,2.111,0,0,1,23.933,50.342Z" transform="translate(-5.611 -12.993)" fill="#12263f"/>
    </g>
  </g>
</svg>
