<svg xmlns="http://www.w3.org/2000/svg" width="62.504" height="62.504" viewBox="0 0 62.504 62.504">
  <g id="Grupo_1103383" data-name="Grupo 1103383" transform="translate(-1233.711 -1857)">
    <g id="Grupo_1103374" data-name="Grupo 1103374">
      <g id="Grupo_1072053" data-name="Grupo 1072053" transform="translate(1233.711 1857)">
        <circle id="Elipse_4742" data-name="Elipse 4742" cx="31.252" cy="31.252" r="31.252" transform="translate(0)" fill="#81c74d"/>
      </g>
      <path id="tiempo-transcurrido" d="M76.856,42.458a19.736,19.736,0,1,0-23.606,20,.824.824,0,0,1-.323,1.616,21.387,21.387,0,0,1,1.6-42.2V19.814h4.442V21.8A21.4,21.4,0,0,1,78.5,42.388l1-1a.824.824,0,1,1,1.165,1.165l-2.444,2.444a.824.824,0,0,1-1.165,0l-2.615-2.615a.824.824,0,0,1,1.165-1.165ZM56.98,28.453A14.651,14.651,0,1,1,42.329,43.1,14.658,14.658,0,0,1,56.98,28.453ZM57.8,54.488V53.256a.824.824,0,1,0-1.648,0v1.232a.824.824,0,0,0,1.648,0Zm7.812-3.914-.874-.874a.824.824,0,0,0-1.165,1.165l.874.874a.824.824,0,0,0,1.165-1.165ZM56.154,31.72v1.232a.824.824,0,0,0,1.648,0V31.72a.824.824,0,1,0-1.648,0Zm8.294,2.749-.874.874a.824.824,0,0,0,1.165,1.165l.874-.874a.824.824,0,0,0-1.165-1.165Zm-18.855,9.46h1.232a.824.824,0,0,0,0-1.648H45.594a.824.824,0,0,0,0,1.648Zm3.914,7.812.874-.874A.824.824,0,1,0,49.217,49.7l-.874.874a.824.824,0,0,0,1.165,1.165ZM48.342,35.634l.874.874a.824.824,0,1,0,1.165-1.165l-.874-.874a.824.824,0,0,0-1.165,1.165ZM68.366,42.28H67.13a.824.824,0,1,0,0,1.648h1.237a.824.824,0,1,0,0-1.648ZM56.154,37.7V43.1a.824.824,0,0,0,.412.714L60.18,45.9A.824.824,0,1,0,61,44.477l-3.2-1.848V37.7a.824.824,0,0,0-1.648,0ZM74.312,52.816a.824.824,0,0,1,1.434.813q-.232.41-.482.808a.824.824,0,0,1-1.4-.875Q74.1,53.194,74.312,52.816ZM71.774,56.33A.824.824,0,1,1,73,57.435q-.631.7-1.321,1.339a.824.824,0,0,1-1.121-1.208q.637-.591,1.22-1.237ZM67.814,59.7a.824.824,0,0,1,.894,1.385q-.789.509-1.624.95a.824.824,0,1,1-.769-1.458q.77-.406,1.5-.877Zm-4.7,2.218a.824.824,0,0,1,.5,1.57q-.892.284-1.817.491a.824.824,0,1,1-.359-1.609q.852-.19,1.676-.453ZM58,62.821a.824.824,0,1,1,.071,1.646q-.468.02-.94.02a.824.824,0,1,1,0-1.648q.437,0,.869-.019Zm4.27-46.984V17.39a.777.777,0,0,1-.776.776H52a.777.777,0,0,1-.776-.776V15.837A.777.777,0,0,1,52,15.061h9.49A.777.777,0,0,1,62.269,15.837Z" transform="translate(1206.964 1845.482)" fill="#12263f" fill-rule="evenodd"/>
    </g>
  </g>
</svg>
