<svg xmlns="http://www.w3.org/2000/svg" width="100" height="100" viewBox="0 0 100 100">
  <g id="Grupo_1102019" data-name="Grupo 1102019" transform="translate(-275.711 -1326)">
    <g id="Rect치ngulo_400907" data-name="Rect치ngulo 400907" transform="translate(275.711 1326)" fill="none" stroke="#1f3b5f" stroke-linecap="round" stroke-width="2" stroke-dasharray="7">
      <rect width="100" height="100" rx="50" stroke="none"/>
      <rect x="1" y="1" width="98" height="98" rx="49" fill="none"/>
    </g>
    <g id="Grupo_1102013" data-name="Grupo 1102013">
      <g id="Rect치ngulo_400898" data-name="Rect치ngulo 400898" transform="translate(275.711 1326)" fill="#4e93ee" stroke="#fff" stroke-width="3" opacity="0.859">
        <rect width="100" height="100" rx="50" stroke="none"/>
        <rect x="1.5" y="1.5" width="97" height="97" rx="48.5" fill="none"/>
      </g>
      <g id="Page-1" transform="translate(293.711 1344)">
        <g id="_035---City-Route" data-name="035---City-Route" transform="translate(0 0)">
          <g id="Icons" transform="translate(1.067 1.067)">
            <path id="Shape" d="M24.267,0V24.533L20,32V4.267Z" transform="translate(1.333)" fill="#fec009"/>
            <path id="Rectangle-path" d="M0,4H21.333V31.733H0Z" transform="translate(0 0.267)" fill="#fec009"/>
            <path id="Shape-2" data-name="Shape" d="M25.6,0,21.333,4.267H0L6.133.181A1.057,1.057,0,0,1,6.72,0Z" transform="translate(0)" fill="#9e9e9e"/>
            <path id="Shape-3" data-name="Shape" d="M21.267,0,17,4.267h3.2L24.467,0Z" transform="translate(1.133)" fill="#707070"/>
            <path id="Rectangle-path-2" data-name="Rectangle-path" d="M38,4H59.333V31.733H38Z" transform="translate(2.533 0.267)" fill="#fec009"/>
            <path id="Rectangle-path-3" data-name="Rectangle-path" d="M55,4h3.2V31.733H55Z" transform="translate(3.667 0.267)" fill="#f57c00"/>
            <path id="Shape-4" data-name="Shape" d="M59.6,4.267H38.267L34,0H52.88a1.057,1.057,0,0,1,.587.181Z" transform="translate(2.267)" fill="#9e9e9e"/>
            <path id="Shape-5" data-name="Shape" d="M52.487.181A1.057,1.057,0,0,0,51.9,0H48.7a1.057,1.057,0,0,1,.587.181L55.42,4.267h3.2Z" transform="translate(3.247)" fill="#707070"/>
            <path id="Shape-6" data-name="Shape" d="M38.267,4.267V32L34,24.533V0Z" transform="translate(2.267)" fill="#fec009"/>
            <path id="Shape-7" data-name="Shape" d="M58.953,44.267H51.486L58.953,56v1.067A2.133,2.133,0,0,1,56.819,59.2H52.851a1.067,1.067,0,0,0,.917-1.6L43.71,40H58.953Z" transform="translate(2.914 2.667)" fill="#ffe69c"/>
            <path id="Shape-8" data-name="Shape" d="M61.867,30.467V41.133H46.624l10.059,17.6a1.067,1.067,0,0,1-.917,1.6H6.1a1.067,1.067,0,0,1-.917-1.6l10.059-17.6H0V30.467H21.333L25.6,23H36.267l4.267,7.467Z" transform="translate(0 1.533)" fill="#9e9e9e"/>
            <path id="Shape-9" data-name="Shape" d="M38.467,30.467,34.2,23H31l3.959,6.933a1.067,1.067,0,0,0,.926.533Z" transform="translate(2.067 1.533)" fill="#707070"/>
            <path id="Rectangle-path-4" data-name="Rectangle-path" d="M55,30h3.2V40.667H55Z" transform="translate(3.667 2)" fill="#707070"/>
            <path id="Shape-10" data-name="Shape" d="M53,59.2H49.8a1.067,1.067,0,0,0,.917-1.6l-9.141-16A1.067,1.067,0,0,1,42.5,40h1.365L53.92,57.6A1.067,1.067,0,0,1,53,59.2Z" transform="translate(2.762 2.667)" fill="#707070"/>
            <path id="Shape-11" data-name="Shape" d="M6.1,59.2H2.133A2.133,2.133,0,0,1,0,57.067V56L7.467,44.267H0V40H15.243L5.184,57.6A1.067,1.067,0,0,0,6.1,59.2Z" transform="translate(0 2.667)" fill="#ffe69c"/>
            <g id="Grupo_1102010" data-name="Grupo 1102010" transform="translate(3.933 7.933)">
              <rect id="Rectangle-path-5" data-name="Rectangle-path" width="5" height="4" rx="1" transform="translate(0 9)" fill="#4e93ee"/>
              <rect id="Rectangle-path-6" data-name="Rectangle-path" width="4" height="4" rx="1" transform="translate(9 9)" fill="#4e93ee"/>
              <rect id="Rectangle-path-7" data-name="Rectangle-path" width="4" height="4" rx="1" transform="translate(41 9)" fill="#4e93ee"/>
              <rect id="Rectangle-path-8" data-name="Rectangle-path" width="4" height="4" rx="1" transform="translate(50 9)" fill="#4e93ee"/>
              <rect id="Rectangle-path-9" data-name="Rectangle-path" width="5" height="5" rx="1" transform="translate(0 0)" fill="#4e93ee"/>
              <rect id="Rectangle-path-10" data-name="Rectangle-path" width="4" height="5" rx="1" transform="translate(9 0)" fill="#4e93ee"/>
              <rect id="Rectangle-path-11" data-name="Rectangle-path" width="4" height="5" rx="1" transform="translate(41 0)" fill="#4e93ee"/>
              <rect id="Rectangle-path-12" data-name="Rectangle-path" width="4" height="5" rx="1" transform="translate(50 0)" fill="#4e93ee"/>
            </g>
            <path id="Shape-12" data-name="Shape" d="M9.067,23H11.2a1.067,1.067,0,0,1,1.067,1.067v6.4H8v-6.4A1.067,1.067,0,0,1,9.067,23Z" transform="translate(0.533 1.533)" fill="#594303"/>
            <path id="Shape-13" data-name="Shape" d="M47.067,23H49.2a1.067,1.067,0,0,1,1.067,1.067v6.4H46v-6.4A1.067,1.067,0,0,1,47.067,23Z" transform="translate(3.067 1.533)" fill="#594303"/>
          </g>
          <g id="Icons_copy">
            <path id="Shape-14" data-name="Shape" d="M30.067,31.267A1.067,1.067,0,0,0,31.133,30.2V28.067a1.067,1.067,0,1,0-2.133,0V30.2A1.067,1.067,0,0,0,30.067,31.267Z" transform="translate(1.934 1.8)"/>
            <path id="Shape-15" data-name="Shape" d="M29,37.267a1.067,1.067,0,1,0,2.133,0v-3.2a1.067,1.067,0,0,0-2.133,0Z" transform="translate(1.934 2.2)"/>
            <path id="Shape-16" data-name="Shape" d="M29,45.333a1.067,1.067,0,0,0,2.133,0V41.067a1.067,1.067,0,1,0-2.133,0Z" transform="translate(1.934 2.667)"/>
            <path id="Shape-17" data-name="Shape" d="M29,55.4a1.067,1.067,0,1,0,2.133,0V50.067a1.067,1.067,0,0,0-2.133,0Z" transform="translate(1.934 3.267)"/>
            <path id="Shape-18" data-name="Shape" d="M12.267,37.133a1.067,1.067,0,0,0,0-2.133h-3.2a1.067,1.067,0,0,0,0,2.133Z" transform="translate(0.534 2.333)"/>
            <path id="Shape-19" data-name="Shape" d="M5.267,37.133a1.067,1.067,0,0,0,0-2.133h-3.2a1.067,1.067,0,0,0,0,2.133Z" transform="translate(0.067 2.333)"/>
            <path id="Shape-20" data-name="Shape" d="M16.067,37.133h3.2a1.067,1.067,0,0,0,0-2.133h-3.2a1.067,1.067,0,0,0,0,2.133Z" transform="translate(1.001 2.333)"/>
            <path id="Shape-21" data-name="Shape" d="M44.267,37.133a1.067,1.067,0,0,0,0-2.133h-3.2a1.067,1.067,0,0,0,0,2.133Z" transform="translate(2.667 2.333)"/>
            <path id="Shape-22" data-name="Shape" d="M51.267,37.133a1.067,1.067,0,1,0,0-2.133h-3.2a1.067,1.067,0,1,0,0,2.133Z" transform="translate(3.134 2.333)"/>
            <path id="Shape-23" data-name="Shape" d="M58.267,37.133a1.067,1.067,0,0,0,0-2.133h-3.2a1.067,1.067,0,0,0,0,2.133Z" transform="translate(3.601 2.333)"/>
            <path id="Shape-24" data-name="Shape" d="M8.267,22.4A2.133,2.133,0,0,0,10.4,20.267V18.133A2.133,2.133,0,0,0,8.267,16H6.133A2.133,2.133,0,0,0,4,18.133v2.133A2.133,2.133,0,0,0,6.133,22.4ZM6.133,18.133H8.267v2.133H6.133Z" transform="translate(0.267 1.067)"/>
            <path id="Shape-25" data-name="Shape" d="M14.133,22.4h2.133A2.133,2.133,0,0,0,18.4,20.267V18.133A2.133,2.133,0,0,0,16.267,16H14.133A2.133,2.133,0,0,0,12,18.133v2.133A2.133,2.133,0,0,0,14.133,22.4Zm0-4.267h2.133v2.133H14.133Z" transform="translate(0.801 1.067)"/>
            <path id="Shape-26" data-name="Shape" d="M46.267,16H44.133A2.133,2.133,0,0,0,42,18.133v2.133A2.133,2.133,0,0,0,44.133,22.4h2.133A2.133,2.133,0,0,0,48.4,20.267V18.133A2.133,2.133,0,0,0,46.267,16Zm-2.133,4.267V18.133h2.133v2.133Z" transform="translate(2.801 1.067)"/>
            <path id="Shape-27" data-name="Shape" d="M54.267,16H52.133A2.133,2.133,0,0,0,50,18.133v2.133A2.133,2.133,0,0,0,52.133,22.4h2.133A2.133,2.133,0,0,0,56.4,20.267V18.133A2.133,2.133,0,0,0,54.267,16Zm-2.133,4.267V18.133h2.133v2.133Z" transform="translate(3.334 1.067)"/>
            <path id="Shape-28" data-name="Shape" d="M6.133,14.4H8.267A2.133,2.133,0,0,0,10.4,12.267V10.133A2.133,2.133,0,0,0,8.267,8H6.133A2.133,2.133,0,0,0,4,10.133v2.133A2.133,2.133,0,0,0,6.133,14.4Zm0-4.267H8.267v2.133H6.133Z" transform="translate(0.267 0.533)"/>
            <path id="Shape-29" data-name="Shape" d="M14.133,14.4h2.133A2.133,2.133,0,0,0,18.4,12.267V10.133A2.133,2.133,0,0,0,16.267,8H14.133A2.133,2.133,0,0,0,12,10.133v2.133A2.133,2.133,0,0,0,14.133,14.4Zm0-4.267h2.133v2.133H14.133Z" transform="translate(0.801 0.533)"/>
            <path id="Shape-30" data-name="Shape" d="M46.267,8H44.133A2.133,2.133,0,0,0,42,10.133v2.133A2.133,2.133,0,0,0,44.133,14.4h2.133A2.133,2.133,0,0,0,48.4,12.267V10.133A2.133,2.133,0,0,0,46.267,8Zm-2.133,4.267V10.133h2.133v2.133Z" transform="translate(2.801 0.533)"/>
            <path id="Shape-31" data-name="Shape" d="M54.267,8H52.133A2.133,2.133,0,0,0,50,10.133v2.133A2.133,2.133,0,0,0,52.133,14.4h2.133A2.133,2.133,0,0,0,56.4,12.267V10.133A2.133,2.133,0,0,0,54.267,8Zm-2.133,4.267V10.133h2.133v2.133Z" transform="translate(3.334 0.533)"/>
            <path id="Shape-32" data-name="Shape" d="M63.525,4.446,57.394.358A2.126,2.126,0,0,0,56.213,0H37.333a1.067,1.067,0,0,0-1.067,1.067V24.533H27.733V1.067A1.067,1.067,0,0,0,26.667,0H7.787A2.133,2.133,0,0,0,6.6.358L.475,4.446A1.067,1.067,0,0,0,0,5.333V33.067a1.067,1.067,0,0,0,1.067,1.067H22.4a1.067,1.067,0,0,0,.926-.533l3.959-6.933h9.429L40.674,33.6a1.067,1.067,0,0,0,.926.533H62.933A1.067,1.067,0,0,0,64,33.067V5.333a1.067,1.067,0,0,0-.475-.887Zm-4.112-.179H42.042L39.908,2.133H56.213ZM23.467,5.775,25.6,3.642V25.316L23.467,29.05ZM7.787,2.133H24.092L21.958,4.267H4.587ZM2.133,6.4h19.2V32h-6.4V26.667A2.133,2.133,0,0,0,12.8,24.533H10.667a2.133,2.133,0,0,0-2.133,2.133V32h-6.4ZM10.667,32V26.667H12.8V32ZM38.4,3.642l2.133,2.133V29.051L38.4,25.317ZM51.2,32V26.667h2.133V32Zm4.267,0V26.667a2.133,2.133,0,0,0-2.133-2.133H51.2a2.133,2.133,0,0,0-2.133,2.133V32h-6.4V6.4h19.2V32Z" transform="translate(0.001 0)"/>
            <path id="Shape-33" data-name="Shape" d="M60.6,45.067A1.067,1.067,0,0,0,59.533,44H52.067a1.067,1.067,0,0,0-.9,1.639l7.467,11.733a1.067,1.067,0,0,0,1.8-1.146L54.009,46.133h5.524A1.067,1.067,0,0,0,60.6,45.067Z" transform="translate(3.4 2.933)"/>
            <path id="Shape-34" data-name="Shape" d="M62.933,40H47.691a1.067,1.067,0,0,0-.926,1.6L56.828,59.2H7.172L17.235,41.6a1.067,1.067,0,0,0-.926-1.6H1.067a1.067,1.067,0,1,0,0,2.133h13.4L5.319,58.141a2.133,2.133,0,0,0,1.853,3.193H56.828a2.133,2.133,0,0,0,1.853-3.191L49.53,42.133h13.4a1.067,1.067,0,1,0,0-2.133Z" transform="translate(0.001 2.667)"/>
            <path id="Shape-35" data-name="Shape" d="M9.468,44.554A1.067,1.067,0,0,0,8.533,44H1.067a1.067,1.067,0,0,0,0,2.133H6.59L.166,56.227a1.067,1.067,0,0,0,1.8,1.146L9.434,45.639a1.067,1.067,0,0,0,.034-1.086Z" transform="translate(0 2.933)"/>
          </g>
        </g>
      </g>
    </g>
  </g>
</svg>
