<svg xmlns="http://www.w3.org/2000/svg" width="32.606" height="48.512" viewBox="0 0 32.606 48.512">
  <g id="Grupo_1103380" data-name="Grupo 1103380" transform="translate(-182.833 -1129.336)">
    <g id="alfiler" transform="translate(98.895 1129.336)">
      <path id="Trazado_877383" data-name="Trazado 877383" d="M124.672,25.382a15.282,15.282,0,0,1-2.994,9.11v0L109.32,52.839,96.962,34.494v0a15.353,15.353,0,1,1,27.712-9.11Z" transform="translate(-9.079 -9.079)" fill="#ff5d5d"/>
      <circle id="Elipse_11621" data-name="Elipse 11621" cx="6.652" cy="6.652" r="6.652" transform="translate(93.589 9.55)" fill="#fff"/>
      <path id="Trazado_877384" data-name="Trazado 877384" d="M100.241,0A16.3,16.3,0,0,0,87.1,25.955L99.453,44.291a.95.95,0,0,0,1.576,0l12.352-18.336A16.3,16.3,0,0,0,100.241,0Zm11.594,24.849c-.012.016-.024.033-.035.05l-11.56,17.16L88.683,24.9c-.012-.018-.024-.036-.037-.053a14.4,14.4,0,1,1,23.189,0Z"/>
      <path id="Trazado_877385" data-name="Trazado 877385" d="M190.019,97.418a.95.95,0,0,0-.95.95,5.7,5.7,0,1,1-2.514-4.728.95.95,0,1,0,1.064-1.575,7.6,7.6,0,1,0,3.351,6.3A.95.95,0,0,0,190.019,97.418Z" transform="translate(-83.126 -82.166)"/>
      <path id="Trazado_877386" data-name="Trazado 877386" d="M149.208,491.941H126.4a.95.95,0,0,0,0,1.9h22.807a.95.95,0,0,0,0-1.9Z" transform="translate(-37.58 -445.33)"/>
      <path id="Trazado_877387" data-name="Trazado 877387" d="M308.9,129.881h.019a.95.95,0,0,0,0-1.9H308.9a.95.95,0,1,0,0,1.9Z" transform="translate(-202.79 -115.855)"/>
    </g>
  </g>
</svg>
