<svg xmlns="http://www.w3.org/2000/svg" width="62.504" height="62.504" viewBox="0 0 62.504 62.504">
  <g id="Grupo_1103380" data-name="Grupo 1103380" transform="translate(-303.711 -947.8)">
    <g id="Grupo_1072053" data-name="Grupo 1072053" transform="translate(303.711 947.8)">
      <circle id="Elipse_4742" data-name="Elipse 4742" cx="31.252" cy="31.252" r="31.252" transform="translate(0)" fill="#4e93ee"/>
    </g>
    <g id="alfiler" transform="translate(263.866 958.598)">
      <g id="Page-1_77_" transform="translate(54.828 0)">
        <g id="_x30_78---Hot-Air-Balloon" transform="translate(0)">
          <path id="Shape_563_" d="M209.726,229.656a2.253,2.253,0,0,0,1.3.393h2.662a2.249,2.249,0,0,0,1.3-.393,7.859,7.859,0,0,0,1.2-1.085H208.52A7.821,7.821,0,0,0,209.726,229.656Z" transform="translate(-196.091 -210.087)" fill="#12263f"/>
          <path id="Shape_562_" d="M287.971,78.043a11.93,11.93,0,0,1,1.109,5.519,17.5,17.5,0,0,1-.739,5.176h1.989a11.413,11.413,0,0,0,1.708-5.478A5.478,5.478,0,0,0,287.971,78.043Z" transform="translate(-269.117 -71.732)" fill="#12263f"/>
          <path id="Shape_561_" d="M71.094,0a16.26,16.26,0,0,0-5.9,31.413,16.089,16.089,0,0,0,3.068.856.739.739,0,1,1-.251,1.457c-.385-.067-.77-.152-1.155-.246l3.311,4.51a1.205,1.205,0,0,0,1.859-.007l3.306-4.5c-.384.094-.77.18-1.155.246a.739.739,0,1,1-.251-1.457A16.259,16.259,0,0,0,71.094,0Zm0,31.053A14.787,14.787,0,1,1,85.881,16.266,14.787,14.787,0,0,1,71.094,31.053Z" transform="translate(-54.828 0)" fill="#12263f"/>
          <path id="Shape_560_" d="M104.708,36.571a13.308,13.308,0,1,0,13.308,13.308A13.308,13.308,0,0,0,104.708,36.571ZM108.2,54.384a3.549,3.549,0,0,1-1.3.565.7.7,0,0,1,.021.106v1.684a1.473,1.473,0,0,1,.739,1.273v1.479a2.218,2.218,0,0,1-2.218,2.218h-1.479a2.218,2.218,0,0,1-2.218-2.218V58.013a1.474,1.474,0,0,1,.739-1.273V55.055a.723.723,0,0,1,.021-.106,3.553,3.553,0,0,1-1.3-.565,12.375,12.375,0,0,1-4.64-9.244c0-4.109,3.42-7.091,8.133-7.091s8.133,2.982,8.133,7.091a12.373,12.373,0,0,1-4.641,9.244Z" transform="translate(-88.443 -33.614)" fill="#12263f"/>
          <path id="Rectangle-path_50_" d="M246.828,265.143h1.479v1.479h-1.479Z" transform="translate(-231.301 -243.701)" fill="#12263f"/>
          <path id="Shape_559_" d="M237.686,301.714v1.479a.739.739,0,0,0,.739.739H239.9a.739.739,0,0,0,.739-.739v-1.479Z" transform="translate(-222.899 -277.315)" fill="#12263f"/>
          <path id="Shape_558_" d="M156.336,461.378c0-.5-1.893-1.613-6.233-2.041l-1.257,1.717a2.645,2.645,0,0,1-4.232.006l-1.266-1.723c-4.343.428-6.236,1.544-6.236,2.041,0,.665,3.27,2.218,9.612,2.218S156.336,462.043,156.336,461.378Z" transform="translate(-130.459 -422.191)" fill="#12263f"/>
          <path id="Shape_557_" d="M232.146,84.233a15.537,15.537,0,0,0,.818-5.176c0-3.653-1.152-5.915-2.218-5.915s-2.218,2.262-2.218,5.915a15.549,15.549,0,0,0,.818,5.176ZM230.007,76.1a.739.739,0,1,1,1.479,0v5.915a.739.739,0,1,1-1.479,0Z" transform="translate(-214.48 -67.228)" fill="#12263f"/>
          <path id="Shape_556_" d="M176.643,83.563a11.93,11.93,0,0,1,1.109-5.519,5.478,5.478,0,0,0-4.067,5.216,11.412,11.412,0,0,0,1.708,5.478h1.989A17.5,17.5,0,0,1,176.643,83.563Z" transform="translate(-164.073 -71.733)" fill="#12263f"/>
        </g>
      </g>
    </g>
  </g>
</svg>
