<svg xmlns="http://www.w3.org/2000/svg" width="62.504" height="62.504" viewBox="0 0 62.504 62.504">
  <g id="Grupo_1103375" data-name="Grupo 1103375" transform="translate(-613.711 -947.917)">
    <g id="Grupo_1072053" data-name="Grupo 1072053" transform="translate(613.711 947.917)">
      <circle id="Elipse_4742" data-name="Elipse 4742" cx="31.252" cy="31.252" r="31.252" transform="translate(0)" fill="#81c74d"/>
    </g>
    <g id="viajar" transform="translate(598.306 945.599)">
      <path id="Trazado_879077" data-name="Trazado 879077" d="M463.885,201.186a.582.582,0,0,0-.838.674,18.27,18.27,0,0,1,.553,2.552.585.585,0,0,0,.575.5.61.61,0,0,0,.083-.006.583.583,0,0,0,.494-.658,19.428,19.428,0,0,0-.588-2.715A.578.578,0,0,0,463.885,201.186Z" transform="translate(-398.823 -172.174)" fill="#12263f"/>
      <path id="Trazado_879078" data-name="Trazado 879078" d="M431.429,135.252a.539.539,0,0,0-.126.753,18.4,18.4,0,0,1,1.364,2.233.54.54,0,1,0,.959-.5,19.466,19.466,0,0,0-1.444-2.364.539.539,0,0,0-.753-.126Z" transform="translate(-369.698 -111.801)" fill="#12263f"/>
      <path id="Trazado_879079" data-name="Trazado 879079" d="M337.074,196.918a1.559,1.559,0,0,0-.606.883l-.275,1.073a1.558,1.558,0,0,0,.55,1.614,2.587,2.587,0,0,1,.927,2.592l-.555,2.475a2.57,2.57,0,0,1-.7,1.266l-.484.479a1.55,1.55,0,0,0-.452,1.276l.3,2.7a11.164,11.164,0,0,0,2.186-14.994Z" transform="translate(-282.078 -167.755)" fill="#12263f"/>
      <path id="Trazado_879080" data-name="Trazado 879080" d="M146.1,153.666a1.555,1.555,0,0,0,.424-.766l.555-2.475a1.565,1.565,0,0,0-.561-1.568,2.575,2.575,0,0,1-.909-2.667l.275-1.073a2.578,2.578,0,0,1,1-1.459l.864-.616A11.169,11.169,0,0,0,139.734,139l.492,2.992a1.767,1.767,0,0,1-.775,1.763l-1.964,1.286a.746.746,0,0,0-.325.766l.264,1.382a.751.751,0,0,0,.41.534l1.38.664a1.77,1.77,0,0,1,.971,1.9l-.5,2.792a1.774,1.774,0,0,1-.324.745,1.749,1.749,0,0,1-1.409.708,1.815,1.815,0,0,1-.187-.01,1.751,1.751,0,0,1-1.419-1.012l-.506-1.088a.751.751,0,0,0-.679-.433h-2.045a.744.744,0,0,0-.43.136l-1.375.966a1.766,1.766,0,0,1-1.422.273l-1.579-.375a11.177,11.177,0,0,0,16.913,6.547l-.358-3.285a2.561,2.561,0,0,1,.748-2.109Z" transform="translate(-92.475 -115.323)" fill="#12263f"/>
      <path id="Trazado_879081" data-name="Trazado 879081" d="M126.819,152.185l1.375-.965a1.757,1.757,0,0,1,1.014-.32h2.045a1.771,1.771,0,0,1,1.6,1.021l.506,1.088a.748.748,0,0,0,1.415-.183l.5-2.792a.75.75,0,0,0-.412-.807l-1.38-.664a1.772,1.772,0,0,1-.968-1.26l-.264-1.382a1.76,1.76,0,0,1,.767-1.808l1.964-1.286a.749.749,0,0,0,.328-.748l-.52-3.164a11.186,11.186,0,0,0-10.619,12.9l2.043.483A.747.747,0,0,0,126.819,152.185Z" transform="translate(-88.565 -115.247)" fill="#12263f"/>
      <path id="Trazado_879082" data-name="Trazado 879082" d="M300.423,25.754a.865.865,0,0,0,.686-.338.507.507,0,0,0,.082-.155l.845-2.631,2.337-1.489a.507.507,0,0,0,.129-.118.868.868,0,0,0-.717-1.4l-2.716-.363-1.359-1.05,1.867-2.417a.822.822,0,0,0-.148-1.153l-.585-.452a1.138,1.138,0,0,0-1.439.042l-2.281,1.983-3.606-2.785a2.074,2.074,0,0,0-2.536,3.283l3.605,2.785-1.342,2.708a1.138,1.138,0,0,0,.323,1.4l.585.452a.815.815,0,0,0,.5.171.834.834,0,0,0,.106-.007.816.816,0,0,0,.545-.313l1.867-2.417,1.359,1.05,1.042,2.531a.87.87,0,0,0,.848.677Zm-6.091-9.17a.6.6,0,1,1-.109-.845h0A.6.6,0,0,1,294.331,16.584Zm1.487,1.149a.6.6,0,1,1-.109-.845h0a.6.6,0,0,1,.109.845Zm1.487,1.148a.6.6,0,1,1-.109-.845h0a.6.6,0,0,1,.109.845Zm1.487,1.148a.6.6,0,1,1-.109-.845h0a.6.6,0,0,1,.109.845Z" transform="translate(-240.623 0)" fill="#12263f"/>
      <path id="Trazado_879083" data-name="Trazado 879083" d="M274.474,481.527a.5.5,0,0,0-.116.014,18.371,18.371,0,0,1-2.588.432.5.5,0,0,0,.093.99,19.421,19.421,0,0,0,2.728-.456.5.5,0,0,0-.117-.98Z" transform="translate(-223.364 -428.824)" fill="#12263f"/>
      <path id="Trazado_879084" data-name="Trazado 879084" d="M406.53,402.783a.5.5,0,0,0-.7.083,18.571,18.571,0,0,1-1.766,1.942.5.5,0,1,0,.686.72,19.538,19.538,0,0,0,1.861-2.046A.5.5,0,0,0,406.53,402.783Z" transform="translate(-344.72 -356.655)" fill="#12263f"/>
      <path id="Trazado_879085" data-name="Trazado 879085" d="M471.438,264.9a.5.5,0,0,0-.5.5,18.628,18.628,0,0,1-.185,2.619.5.5,0,0,0,.985.14,19.626,19.626,0,0,0,.195-2.758A.5.5,0,0,0,471.438,264.9Z" transform="translate(-405.894 -230.554)" fill="#12263f"/>
      <path id="Trazado_879086" data-name="Trazado 879086" d="M200.788,481.972a18.407,18.407,0,0,1-2.588-.432.5.5,0,1,0-.234.967,19.4,19.4,0,0,0,2.728.455.5.5,0,1,0,.093-.99Z" transform="translate(-155.879 -428.822)" fill="#12263f"/>
      <path id="Trazado_879087" data-name="Trazado 879087" d="M449.978,337.829a.5.5,0,0,0-.633.307,18.315,18.315,0,0,1-1.034,2.413.5.5,0,1,0,.884.456,19.353,19.353,0,0,0,1.091-2.544A.5.5,0,0,0,449.978,337.829Z" transform="translate(-385.306 -297.277)" fill="#12263f"/>
      <path id="Trazado_879088" data-name="Trazado 879088" d="M345.586,452.416a.5.5,0,0,0-.268.079,18.388,18.388,0,0,1-2.3,1.258.5.5,0,1,0,.414.9,19.363,19.363,0,0,0,2.425-1.327.5.5,0,0,0-.27-.915Z" transform="translate(-288.72 -402.18)" fill="#12263f"/>
      <path id="Trazado_879089" data-name="Trazado 879089" d="M40.435,338.132a.5.5,0,0,0-.94.325A19.327,19.327,0,0,0,40.586,341a.5.5,0,1,0,.884-.456,18.341,18.341,0,0,1-1.034-2.411Z" transform="translate(-11.16 -297.274)" fill="#12263f"/>
      <path id="Trazado_879090" data-name="Trazado 879090" d="M132.7,453.739a18.429,18.429,0,0,1-2.3-1.26.494.494,0,0,0-.268-.079.5.5,0,0,0-.27.915,19.409,19.409,0,0,0,2.428,1.328.492.492,0,0,0,.206.045.5.5,0,0,0,.207-.949Z" transform="translate(-93.686 -402.165)" fill="#12263f"/>
      <path id="Trazado_879091" data-name="Trazado 879091" d="M75.828,402.849a.494.494,0,0,0-.332-.186.514.514,0,0,0-.059,0,.5.5,0,0,0-.39.805,19.561,19.561,0,0,0,1.86,2.046.5.5,0,0,0,.686-.72A18.559,18.559,0,0,1,75.828,402.849Z" transform="translate(-43.626 -356.639)" fill="#12263f"/>
      <path id="Trazado_879092" data-name="Trazado 879092" d="M31.665,195.578a.5.5,0,0,0,.582-.395,18.324,18.324,0,0,1,.677-2.534.5.5,0,1,0-.94-.325A19.348,19.348,0,0,0,31.27,195,.5.5,0,0,0,31.665,195.578Z" transform="translate(-3.649 -163.821)" fill="#12263f"/>
      <path id="Trazado_879093" data-name="Trazado 879093" d="M28.454,268.011a18.611,18.611,0,0,1-.185-2.618.5.5,0,1,0-.995,0,19.611,19.611,0,0,0,.195,2.756.5.5,0,1,0,.985-.139Z" transform="translate(0 -230.551)" fill="#12263f"/>
      <path id="Trazado_879094" data-name="Trazado 879094" d="M59.419,127.233a.5.5,0,0,0-.7.083,19.5,19.5,0,0,0-1.553,2.29.5.5,0,1,0,.861.5,18.462,18.462,0,0,1,1.473-2.172A.5.5,0,0,0,59.419,127.233Z" transform="translate(-27.299 -104.456)" fill="#12263f"/>
      <path id="Trazado_879095" data-name="Trazado 879095" d="M170.614,48.345a.5.5,0,0,0-.258-.073.5.5,0,0,0-.118.014,19.28,19.28,0,0,0-2.635.841.5.5,0,1,0,.37.923,18.317,18.317,0,0,1,2.5-.8.5.5,0,0,0,.142-.908Z" transform="translate(-128.151 -32.284)" fill="#12263f"/>
      <path id="Trazado_879096" data-name="Trazado 879096" d="M107.277,77.618a.5.5,0,0,0-.687-.149,19.529,19.529,0,0,0-2.212,1.658.5.5,0,1,0,.651.751,18.513,18.513,0,0,1,2.1-1.574A.5.5,0,0,0,107.277,77.618Z" transform="translate(-70.412 -58.935)" fill="#12263f"/>
      <path id="Trazado_879097" data-name="Trazado 879097" d="M240.007,42.067a.5.5,0,0,0-.309.868.486.486,0,0,0,.355.125q.436-.021.874-.021c.585,0,1.171.027,1.75.082a.5.5,0,1,0,.093-.99A19.662,19.662,0,0,0,240.007,42.067Z" transform="translate(-194.271 -26.585)" fill="#12263f"/>
    </g>
  </g>
</svg>
