<svg xmlns="http://www.w3.org/2000/svg" width="62.504" height="62.504" viewBox="0 0 62.504 62.504">
  <g id="Grupo_1103377" data-name="Grupo 1103377" transform="translate(-1233.711 -948)">
    <g id="Grupo_1072053" data-name="Grupo 1072053" transform="translate(1233.711 948)">
      <circle id="Elipse_4742" data-name="Elipse 4742" cx="31.252" cy="31.252" r="31.252" transform="translate(0)" fill="#81c74d"/>
    </g>
    <g id="templo" transform="translate(1244.711 958)">
      <path id="Trazado_879102" data-name="Trazado 879102" d="M186.671,0h-.6L181.93,7.094h8.879Zm0,0" transform="translate(-165.798)" fill="#12263f"/>
      <path id="Trazado_879103" data-name="Trazado 879103" d="M185.931,140.768V128H176v12.768h1.419v-5.275a2.49,2.49,0,0,1,1.385-2.24,1.084,1.084,0,0,0,.417-.369l1.745-2.617,1.744,2.616a1.086,1.086,0,0,0,.418.37,2.492,2.492,0,0,1,1.385,2.24v5.275Zm0,0" transform="translate(-160.394 -116.65)" fill="#12263f"/>
      <path id="Trazado_879104" data-name="Trazado 879104" d="M96,208h2.837v5.675H96Zm0,0" transform="translate(-87.488 -189.557)" fill="#12263f"/>
      <path id="Trazado_879105" data-name="Trazado 879105" d="M170.246,289.419H181.2L180.843,288H170.6Zm0,0" transform="translate(-155.15 -262.463)" fill="#12263f"/>
      <path id="Trazado_879106" data-name="Trazado 879106" d="M162.246,321.419h12.37L174.262,320H162.6Zm0,0" transform="translate(-147.86 -291.626)" fill="#12263f"/>
      <path id="Trazado_879107" data-name="Trazado 879107" d="M211.656,184.122a2.5,2.5,0,0,1-.964-.852l-.564-.845-.564.845a2.506,2.506,0,0,1-.963.851,1.079,1.079,0,0,0-.6.971v5.275h4.256v-5.275A1.08,1.08,0,0,0,211.656,184.122Zm0,0" transform="translate(-189.557 -166.25)" fill="#12263f"/>
      <path id="Trazado_879108" data-name="Trazado 879108" d="M72.512,169.931V160H64v9.931h1.419v-7.094h5.675v7.094Zm0,0" transform="translate(-58.325 -145.813)" fill="#12263f"/>
      <path id="Trazado_879109" data-name="Trazado 879109" d="M416,160h1.419v9.931H416Zm0,0" transform="translate(-379.114 -145.813)" fill="#12263f"/>
      <path id="Trazado_879110" data-name="Trazado 879110" d="M317.564,113.92A3.83,3.83,0,0,1,315.35,112h-9.931A1.418,1.418,0,0,1,304,113.419v1.419h14.187v-.709Zm0,0" transform="translate(-277.045 -102.069)" fill="#12263f"/>
      <path id="Trazado_879111" data-name="Trazado 879111" d="M14.187,113.419A1.418,1.418,0,0,1,12.768,112H2.837a3.83,3.83,0,0,1-2.214,1.92L0,114.128v.709H14.187Zm0,0" transform="translate(0 -102.069)" fill="#12263f"/>
      <path id="Trazado_879112" data-name="Trazado 879112" d="M312.512,169.931V160H304v9.931h1.419v-7.094h5.675v7.094Zm0,0" transform="translate(-277.045 -145.813)" fill="#12263f"/>
      <path id="Trazado_879113" data-name="Trazado 879113" d="M336,208h2.837v5.675H336Zm0,0" transform="translate(-306.207 -189.557)" fill="#12263f"/>
      <path id="Trazado_879114" data-name="Trazado 879114" d="M154.6,352l-.355,1.419h13.789L167.68,352Zm0,0" transform="translate(-140.569 -320.788)" fill="#12263f"/>
      <path id="Trazado_879115" data-name="Trazado 879115" d="M138.246,417.419h16.626L154.518,416H138.6Zm0,0" transform="translate(-125.988 -379.114)" fill="#12263f"/>
      <path id="Trazado_879116" data-name="Trazado 879116" d="M146.6,384l-.355,1.419h15.207L161.1,384Zm0,0" transform="translate(-133.279 -349.951)" fill="#12263f"/>
      <path id="Trazado_879117" data-name="Trazado 879117" d="M26.042,389.856A.8.8,0,0,0,26.6,388.5l-1.186-1.186L24.233,388.5a.8.8,0,0,0,.562,1.358Zm0,0" transform="translate(-21.872 -352.97)" fill="#12263f"/>
      <path id="Trazado_879118" data-name="Trazado 879118" d="M345.419,323.313l-1.186,1.186a.8.8,0,0,0,.563,1.358h1.247a.8.8,0,0,0,.563-1.358Zm0,0" transform="translate(-313.498 -294.645)" fill="#12263f"/>
      <path id="Trazado_879119" data-name="Trazado 879119" d="M130.6,448l-.355,1.419h18.045L147.936,448Zm0,0" transform="translate(-118.697 -408.276)" fill="#12263f"/>
      <path id="Trazado_879120" data-name="Trazado 879120" d="M386.923,432H384v2.837h7.094V432Zm0,0" transform="translate(-349.951 -393.695)" fill="#12263f"/>
      <path id="Trazado_879121" data-name="Trazado 879121" d="M352.086,367.911c-.029,0-.057-.008-.086-.009v8.521h1.419V367.9c-.029,0-.057.009-.086.009Zm0,0" transform="translate(-320.788 -335.281)" fill="#12263f"/>
      <path id="Trazado_879122" data-name="Trazado 879122" d="M410.042,389.856a.8.8,0,0,0,.562-1.358l-1.186-1.186-1.186,1.186a.8.8,0,0,0,.563,1.358Zm0,0" transform="translate(-371.823 -352.97)" fill="#12263f"/>
      <path id="Trazado_879123" data-name="Trazado 879123" d="M308.884,298.553v-4.059a2.2,2.2,0,0,1-.709-1.614,2.229,2.229,0,0,1,.648-1.566l2.189-2.189,2.189,2.189a2.229,2.229,0,0,1,.648,1.566,2.2,2.2,0,0,1-.709,1.614v4.856H314a2.2,2.2,0,0,1-.154-.8,2.229,2.229,0,0,1,.648-1.566l2.189-2.189,2.189,2.189a2.229,2.229,0,0,1,.648,1.566,2.2,2.2,0,0,1-.154.8h.863V288H306.246Zm0,0" transform="translate(-279.091 -262.463)" fill="#12263f"/>
      <path id="Trazado_879124" data-name="Trazado 879124" d="M96.086,367.911c-.029,0-.057-.008-.086-.009v8.521h1.419V367.9c-.029,0-.057.009-.086.009Zm0,0" transform="translate(-87.488 -335.281)" fill="#12263f"/>
      <path id="Trazado_879125" data-name="Trazado 879125" d="M2.923,432H0v2.837H7.094V432Zm0,0" transform="translate(0 -393.695)" fill="#12263f"/>
      <path id="Trazado_879126" data-name="Trazado 879126" d="M32,160h1.419v9.931H32Zm0,0" transform="translate(-29.163 -145.813)" fill="#12263f"/>
      <path id="Trazado_879127" data-name="Trazado 879127" d="M172.761,97.419V96H159.992v1.419Zm0,0" transform="translate(-145.806 -87.488)" fill="#12263f"/>
      <path id="Trazado_879128" data-name="Trazado 879128" d="M89.419,323.313,88.233,324.5a.8.8,0,0,0,.563,1.358h1.247A.8.8,0,0,0,90.6,324.5Zm0,0" transform="translate(-80.197 -294.645)" fill="#12263f"/>
      <path id="Trazado_879129" data-name="Trazado 879129" d="M11.35,298.553,13.988,288H0v11.35H.863a2.2,2.2,0,0,1-.154-.8,2.229,2.229,0,0,1,.648-1.566L3.547,294.8l2.189,2.189a2.229,2.229,0,0,1,.648,1.566,2.2,2.2,0,0,1-.154.8h.863v-4.856a2.2,2.2,0,0,1-.709-1.614,2.229,2.229,0,0,1,.648-1.566l2.189-2.189,2.189,2.189a2.229,2.229,0,0,1,.648,1.566,2.2,2.2,0,0,1-.709,1.614Zm0,0" transform="translate(0 -262.463)" fill="#12263f"/>
    </g>
  </g>
</svg>
