<svg xmlns="http://www.w3.org/2000/svg" width="100" height="100" viewBox="0 0 100 100">
  <g id="Grupo_1103382" data-name="Grupo 1103382" transform="translate(-639.711 -4894)">
    <g id="Rect치ngulo_400907" data-name="Rect치ngulo 400907" transform="translate(639.711 4894)" fill="none" stroke="#1f3b5f" stroke-linecap="round" stroke-width="2" stroke-dasharray="7">
      <rect width="100" height="100" rx="50" stroke="none"/>
      <rect x="1" y="1" width="98" height="98" rx="49" fill="none"/>
    </g>
    <g id="Grupo_1102099" data-name="Grupo 1102099">
      <g id="Rect치ngulo_400898" data-name="Rect치ngulo 400898" transform="translate(639.711 4894)" fill="#4e93ee" stroke="#fff" stroke-width="3" opacity="0.859">
        <rect width="100" height="100" rx="50" stroke="none"/>
        <rect x="1.5" y="1.5" width="97" height="97" rx="48.5" fill="none"/>
      </g>
      <g id="proteccion-ambiental" transform="translate(657.207 4910.418)">
        <circle id="Elipse_11652" data-name="Elipse 11652" cx="18.879" cy="18.879" r="18.879" transform="translate(14.635 15.658)" fill="#cbe1ff"/>
        <path id="Trazado_878585" data-name="Trazado 878585" d="M36.843,47.689l-.787,4.72a18.883,18.883,0,0,1-14.138-3.22l1.164-4.594a3.147,3.147,0,0,0-.43-2.507l-1.6-2.4a3.193,3.193,0,0,1-.441-2.507l.441-1.752A3.126,3.126,0,0,0,18.6,31.6l-4.374-.892A18.848,18.848,0,0,1,25.169,16.58L30.225,18.6A2.722,2.722,0,0,1,31.7,22.233l-4.216,9.492a2.721,2.721,0,0,0,.975,3.367l1.091.713a2.693,2.693,0,0,1,1.07,3.115l-.766,2.318a2.727,2.727,0,0,0,3.451,3.44A2.72,2.72,0,0,1,36.843,47.7Z" transform="translate(0.646 0.735)" fill="#81c74d"/>
        <circle id="Elipse_11653" data-name="Elipse 11653" cx="3.933" cy="3.933" r="3.933" transform="translate(54.753 42.928)" fill="#ffd098"/>
        <path id="Trazado_878586" data-name="Trazado 878586" d="M44,58.415l6.293-3.147v7.342H62.879v-9.44A3.675,3.675,0,0,0,59.208,49.5H52.045A5.253,5.253,0,0,0,48.9,50.549L44,54.22Z" transform="translate(2.1 2.343)" fill="#dc1b12"/>
        <circle id="Elipse_11654" data-name="Elipse 11654" cx="3.933" cy="3.933" r="3.933" transform="translate(29.581 42.928)" fill="#ffd098"/>
        <path id="Trazado_878587" data-name="Trazado 878587" d="M20,58.415l6.293-3.147v7.342H38.879V55.269l6.293,3.147v-4.2l-4.332-3.251A7.34,7.34,0,0,0,36.435,49.5H28.045A5.253,5.253,0,0,0,24.9,50.549L20,54.22Z" transform="translate(0.928 2.343)" fill="#66e0f7"/>
        <circle id="Elipse_11655" data-name="Elipse 11655" cx="3.933" cy="3.933" r="3.933" transform="translate(4.409 42.928)" fill="#ffd098"/>
        <path id="Trazado_878588" data-name="Trazado 878588" d="M20.879,54.22l-4.9-3.671A5.253,5.253,0,0,0,12.835,49.5H5.671A3.675,3.675,0,0,0,2,53.171v9.44H14.586V55.269l6.293,3.147Z" transform="translate(0.049 2.343)" fill="#fec009"/>
        <path id="Trazado_878589" data-name="Trazado 878589" d="M33.118,3.758c1.846-1.846,5.559-1.112,5.559-1.112s.734,3.723-1.112,5.559-5.559,1.112-5.559,1.112-.734-3.723,1.112-5.559Z" transform="translate(1.507 0.047)" fill="#81c74d"/>
        <path id="Trazado_878590" data-name="Trazado 878590" d="M27.456,8.168c-1.636-1.636-1.112-4.825-1.112-4.825s3.178-.524,4.825,1.112S32.28,9.28,32.28,9.28,29.1,9.8,27.456,8.168Z" transform="translate(1.234 0.084)" fill="#81c74d"/>
        <path id="Trazado_878591" data-name="Trazado 878591" d="M49.527,27.328l-7,5.664a1.383,1.383,0,0,1-2.255-1.28l.388-2.37A1.4,1.4,0,0,0,39.3,27.705a1.348,1.348,0,0,0-.818.294,1.384,1.384,0,0,1-2.14-1.552L39.7,16.64a18.947,18.947,0,0,1,9.828,10.677Z" transform="translate(1.723 0.738)" fill="#81c74d"/>
        <path id="Trazado_878592" data-name="Trazado 878592" d="M19.64,46.42A17.8,17.8,0,0,1,15.1,34.537a18.032,18.032,0,0,1,.094-1.856l3.272.661a2.126,2.126,0,0,1,1.374.944,2.064,2.064,0,0,1,.262,1.6l-.461,1.783a4.291,4.291,0,0,0,.6,3.335L21.832,43.4a2.09,2.09,0,0,1,.336.9l2.077-.283a4.145,4.145,0,0,0-.671-1.783l-1.594-2.391a2.12,2.12,0,0,1-.3-1.678l.451-1.762a4.2,4.2,0,0,0-3.251-5.118l-3.335-.671a17.849,17.849,0,0,1,9.744-12.156L29.9,20.294a1.735,1.735,0,0,1,.944.944,1.694,1.694,0,0,1-.01,1.3L26.6,32.02A3.8,3.8,0,0,0,27.968,36.7l1.08.713a1.608,1.608,0,0,1,.724,1.563l2.077.262a3.7,3.7,0,0,0-1.657-3.577l-1.08-.7A1.689,1.689,0,0,1,28.5,32.88l4.227-9.492a3.756,3.756,0,0,0,.042-2.937,3.813,3.813,0,0,0-2.1-2.1L28.2,17.367a17.929,17.929,0,0,1,4.72-.65A17.667,17.667,0,0,1,39.505,18L36.474,26.88A2.432,2.432,0,0,0,40.239,29.6a.321.321,0,0,1,.461.063.312.312,0,0,1,.063.273l-.388,2.37a2.432,2.432,0,0,0,2.4,2.842,2.443,2.443,0,0,0,1.542-.556l5.8-4.678a17.593,17.593,0,0,1,.64,4.667,17.8,17.8,0,0,1-4.542,11.883l1.563,1.395a19.91,19.91,0,0,0-13.8-33.164V10.571c.2.01.409.021.629.021a6.5,6.5,0,0,0,4.615-1.563c2.213-2.213,1.437-6.325,1.395-6.5a1.053,1.053,0,0,0-.829-.829c-.178-.031-4.29-.818-6.5,1.395a4.341,4.341,0,0,0-.65.85c-.031-.031-.063-.073-.094-.1-2-1.993-5.58-1.426-5.737-1.405a1.047,1.047,0,0,0-.86.86c-.021.147-.587,3.734,1.405,5.737a6.258,6.258,0,0,0,4.405,1.5h.1V14.7a19.91,19.91,0,0,0-13.8,33.165l1.563-1.395ZM49.406,27.74l-6.419,5.181a.319.319,0,0,1-.388.031.323.323,0,0,1-.157-.346l.388-2.37a2.433,2.433,0,0,0-.524-1.972,2.478,2.478,0,0,0-3.325-.388.289.289,0,0,1-.388,0,.311.311,0,0,1-.126-.378l2.958-8.663a17.965,17.965,0,0,1,7.982,8.884ZM34.775,4.54c.933-.933,2.737-1.017,3.881-.923.094,1.143.021,2.947-.923,3.881-.881.881-2.549,1-3.692.933a8.755,8.755,0,0,0-.147-1.867,3.621,3.621,0,0,1,.871-2.035ZM28.839,7.508a4.407,4.407,0,0,1-.881-3.115,4.511,4.511,0,0,1,3.115.881,4.407,4.407,0,0,1,.881,3.115A4.511,4.511,0,0,1,28.839,7.508Z" transform="translate(0.585 0)"/>
        <path id="Trazado_878593" data-name="Trazado 878593" d="M61.665,48.947a4.982,4.982,0,1,0-6-.031H54.145a6.355,6.355,0,0,0-3.776,1.259l-4.269,3.2-3.7-2.779a8.465,8.465,0,0,0-5.034-1.678h-.829a4.982,4.982,0,1,0-6.041,0H28.973A6.355,6.355,0,0,0,25.2,50.174l-4.269,3.2-4.269-3.2a6.355,6.355,0,0,0-3.776-1.259H11.363a4.982,4.982,0,1,0-6,.031A4.713,4.713,0,0,0,1,53.635v9.44a1.052,1.052,0,0,0,1.049,1.049H14.635a1.052,1.052,0,0,0,1.049-1.049V57.432l4.772,2.391a1.079,1.079,0,0,0,.933,0l4.772-2.391v5.643a1.052,1.052,0,0,0,1.049,1.049H39.8a1.052,1.052,0,0,0,1.049-1.049V57.432l4.772,2.391a1.079,1.079,0,0,0,.933,0c.294-.136,4.772-2.381,4.772-2.381v5.643a1.052,1.052,0,0,0,1.049,1.049H64.959a1.052,1.052,0,0,0,1.049-1.049v-9.44a4.714,4.714,0,0,0-4.363-4.688ZM8.342,42.1a2.884,2.884,0,1,1-2.884,2.884A2.883,2.883,0,0,1,8.342,42.1ZM19.879,57.18l-4.772-2.391a1.062,1.062,0,0,0-1.017.042,1.048,1.048,0,0,0-.493.892v6.293H3.1V53.625A2.623,2.623,0,0,1,5.72,51h7.164a4.2,4.2,0,0,1,2.517.839L19.879,55.2V57.17ZM33.514,42.1a2.884,2.884,0,1,1-2.884,2.884A2.883,2.883,0,0,1,33.514,42.1ZM45.052,57.18l-4.772-2.391a1.062,1.062,0,0,0-1.017.042,1.048,1.048,0,0,0-.493.892v6.293H28.28V55.722a1.048,1.048,0,0,0-.493-.892,1.035,1.035,0,0,0-1.017-.042L22,57.18V55.208l4.479-3.356a4.2,4.2,0,0,1,2.517-.839h8.391a6.355,6.355,0,0,1,3.776,1.259l3.912,2.937V57.18ZM58.687,42.1A2.884,2.884,0,1,1,55.8,44.982,2.883,2.883,0,0,1,58.687,42.1Zm5.244,19.928H53.442V55.733a1.048,1.048,0,0,0-.493-.892,1.035,1.035,0,0,0-1.017-.042L47.16,57.191V55.219l4.479-3.356a4.2,4.2,0,0,1,2.517-.839h7.164a2.623,2.623,0,0,1,2.622,2.622v8.391Z" transform="translate(0 1.879)"/>
      </g>
    </g>
  </g>
</svg>
