<svg xmlns="http://www.w3.org/2000/svg" width="100" height="100" viewBox="0 0 100 100">
  <g id="Grupo_1103381" data-name="Grupo 1103381" transform="translate(-1180.711 -4894)">
    <g id="Rect치ngulo_400898" data-name="Rect치ngulo 400898" transform="translate(1180.711 4894)" fill="#4e93ee" stroke="#fff" stroke-width="3" opacity="0.859">
      <rect width="100" height="100" rx="50" stroke="none"/>
      <rect x="1.5" y="1.5" width="97" height="97" rx="48.5" fill="none"/>
    </g>
    <g id="Grupo_1102101" data-name="Grupo 1102101">
      <g id="Rect치ngulo_400907" data-name="Rect치ngulo 400907" transform="translate(1180.711 4894)" fill="none" stroke="#1f3b5f" stroke-linecap="round" stroke-width="2" stroke-dasharray="7">
        <rect width="100" height="100" rx="50" stroke="none"/>
        <rect x="1" y="1" width="98" height="98" rx="49" fill="none"/>
      </g>
      <g id="equidad" transform="translate(1184.265 4901.857)">
        <path id="Trazado_878646" data-name="Trazado 878646" d="M365.844,27.39a5.226,5.226,0,1,0-5.225,5.225A5.23,5.23,0,0,0,365.844,27.39Z" transform="translate(-296.134 -10.456)" fill="#fce7e6"/>
        <path id="Trazado_878647" data-name="Trazado 878647" d="M327.385,146.91v-7.935a.782.782,0,1,1,1.563,0v11.8a.131.131,0,0,0,.129.129H338.2a.131.131,0,0,0,.129-.129v-11.8a.782.782,0,1,1,1.563,0v7.957a1.392,1.392,0,0,0,1.486,1.475,1.429,1.429,0,0,0,1.519-1.475v-8.948c0-3.827-2.267-5.612-7.134-5.612h-4.251c-4.867,0-7.134,1.785-7.134,5.612v8.948a1.429,1.429,0,0,0,1.519,1.475,1.392,1.392,0,0,0,1.486-1.475Z" transform="translate(-269.157 -106.331)" fill="#66e0f7"/>
        <path id="Trazado_878648" data-name="Trazado 878648" d="M248.379,443.3a1.272,1.272,0,1,0,1.272,1.272A1.275,1.275,0,0,0,248.379,443.3Z" transform="translate(-201.935 -376.82)" fill="#e8ecf9"/>
        <path id="Trazado_878649" data-name="Trazado 878649" d="M249.826,348.4H247.8a.222.222,0,0,0-.148.081.158.158,0,0,0-.048.136l.955,7.658c.011.066.063.409.254.409s.243-.369.251-.409l.959-7.658a.174.174,0,0,0-.052-.136.222.222,0,0,0-.147-.081Z" transform="translate(-202.368 -294.26)" fill="#e8ecf9"/>
        <path id="Trazado_878650" data-name="Trazado 878650" d="M82.205,61.968l2.515-3.79a.4.4,0,0,0,.066-.3H70.572a.392.392,0,0,0,.063.3l2.515,3.79Z" transform="translate(-48.356 -41.527)" fill="#fec009"/>
        <path id="Trazado_878651" data-name="Trazado 878651" d="M52.656,308.887h-25.6a.056.056,0,0,0-.055.052v2.437a.059.059,0,0,0,.055.055h24.3Z" transform="translate(-10.456 -259.886)" fill="#c76d33"/>
        <path id="Trazado_878652" data-name="Trazado 878652" d="M176.4,302.944l-.962,7.658a1.8,1.8,0,0,1-3.6,0l-.959-7.658a1.74,1.74,0,0,1,.428-1.368,1.769,1.769,0,0,1,1.32-.608h2.024a1.783,1.783,0,0,1,1.751,1.973Zm-2.765,16.042a2.835,2.835,0,1,1,2.835-2.835A2.839,2.839,0,0,1,173.634,318.987Zm0-23.31h0a2.748,2.748,0,0,0-2.426,1.6l-9.616,18.745a3.675,3.675,0,0,0,.122,3.576,2.7,2.7,0,0,0,2.3,1.375h19.235a2.7,2.7,0,0,0,2.3-1.375,3.674,3.674,0,0,0,.122-3.576l-9.62-18.745a2.738,2.738,0,0,0-2.422-1.6Z" transform="translate(-127.19 -248.394)" fill="#dc1b12"/>
        <path id="Trazado_878653" data-name="Trazado 878653" d="M315.2,311.375v-2.437a.054.054,0,0,0-.055-.052h-25.6l1.305,2.544h24.3A.059.059,0,0,0,315.2,311.375Z" transform="translate(-238.85 -259.885)" fill="#594303"/>
        <path id="Trazado_878654" data-name="Trazado 878654" d="M56.406,135.035v-1a.782.782,0,1,1,1.563,0v1a3.319,3.319,0,0,1,2.7,2.017.781.781,0,0,1-1.482.494,1.71,1.71,0,0,0-1.22-.918v2.515c1.3.262,2.817.8,2.817,2.673a3.027,3.027,0,0,1-2.817,2.74v1a.782.782,0,1,1-1.563,0v-1a3.309,3.309,0,0,1-2.677-1.961.782.782,0,1,1,1.471-.531,1.711,1.711,0,0,0,1.206.9v-2.515c-1.3-.262-2.817-.8-2.817-2.673a3.027,3.027,0,0,1,2.817-2.739Zm.782,14.936a10.176,10.176,0,0,0,5.6-18.675,2.832,2.832,0,0,1-1,.184H52.593a2.832,2.832,0,0,1-1-.184,10.176,10.176,0,0,0,5.6,18.675Z" transform="translate(-27.866 -105.395)" fill="#fec009"/>
        <path id="Trazado_878655" data-name="Trazado 878655" d="M110.853,174.554v-2.212c-.763.2-1.254.69-1.254,1.139C109.6,174.079,109.92,174.333,110.853,174.554Z" transform="translate(-82.313 -141.102)" fill="#ecba78"/>
        <path id="Trazado_878656" data-name="Trazado 878656" d="M81.494,101.334a1.259,1.259,0,1,0,0,2.518h9.188a1.259,1.259,0,1,0,0-2.518Z" transform="translate(-56.766 -79.33)" fill="#fec009"/>
        <path id="Trazado_878657" data-name="Trazado 878657" d="M132.51,205.021c0-.6-.321-.852-1.254-1.073v2.216c.767-.206,1.254-.693,1.254-1.143Z" transform="translate(-101.153 -168.597)" fill="#ecba78"/>
        <g id="Grupo_1102100" data-name="Grupo 1102100" transform="translate(14.979 10.143)">
          <path id="Trazado_878658" data-name="Trazado 878658" d="M41.133,56.972a2.832,2.832,0,0,0,1,.184h9.188a2.832,2.832,0,0,0,1-.184,10.176,10.176,0,1,1-11.194,0Zm11.452-2.636a1.26,1.26,0,0,1-1.261,1.257H42.136a1.259,1.259,0,1,1,0-2.518h9.188A1.26,1.26,0,0,1,52.585,54.336Zm-12.9-6.615a.392.392,0,0,1-.063-.3H53.838a.4.4,0,0,1-.066.3l-2.515,3.79H42.2Zm-4.7,17.75a11.74,11.74,0,1,0,18.634-9.5,2.817,2.817,0,0,0-.785-4.015l2.238-3.37a1.913,1.913,0,0,0,.122-1.939,1.442,1.442,0,0,0-1.283-.785H39.544a1.446,1.446,0,0,0-1.283.785,1.913,1.913,0,0,0,.122,1.939l2.238,3.37a2.831,2.831,0,0,0-1.309,2.382,2.786,2.786,0,0,0,.527,1.633,11.828,11.828,0,0,0-4.849,9.5Z" transform="translate(-32.387 -41.213)" fill="#030403"/>
          <path id="Trazado_878659" data-name="Trazado 878659" d="M237.924,435.393a1.272,1.272,0,1,1,1.272-1.272A1.275,1.275,0,0,1,237.924,435.393Zm0-4.107a2.835,2.835,0,1,0,2.835,2.835A2.839,2.839,0,0,0,237.924,431.286Z" transform="translate(-206.459 -376.507)" fill="#030403"/>
          <path id="Trazado_878660" data-name="Trazado 878660" d="M100.4,149.754v2.212c-.933-.221-1.254-.476-1.254-1.073C99.144,150.444,99.635,149.957,100.4,149.754Zm1.563,4.111c.933.221,1.254.476,1.254,1.073,0,.45-.487.937-1.254,1.143v-2.216Zm-1.563-.3v2.515a1.711,1.711,0,0,1-1.206-.9.782.782,0,1,0-1.471.531,3.308,3.308,0,0,0,2.677,1.961v1a.782.782,0,1,0,1.563,0v-1a3.027,3.027,0,0,0,2.817-2.74c0-1.877-1.515-2.411-2.817-2.673v-2.515a1.71,1.71,0,0,1,1.22.918.781.781,0,1,0,1.482-.494,3.318,3.318,0,0,0-2.7-2.017v-1a.782.782,0,0,0-1.563,0v1a3.027,3.027,0,0,0-2.817,2.739c0,1.877,1.515,2.411,2.817,2.673Z" transform="translate(-86.837 -128.657)" fill="#030403"/>
          <path id="Trazado_878661" data-name="Trazado 878661" d="M315.445,137.953a1.429,1.429,0,0,1-1.519-1.475V127.53c0-3.827,2.268-5.612,7.134-5.612h4.251c4.867,0,7.134,1.785,7.134,5.612v8.949a1.429,1.429,0,0,1-1.519,1.475,1.392,1.392,0,0,1-1.486-1.475v-7.957a.782.782,0,0,0-1.563,0v11.8a.131.131,0,0,1-.129.129h-9.125a.131.131,0,0,1-.129-.129v-11.8a.782.782,0,0,0-1.563,0v7.957a1.392,1.392,0,0,1-1.486,1.475Zm3.178,4.063h9.125a1.7,1.7,0,0,0,1.692-1.692v-1.161a3.254,3.254,0,0,0,1.486.354,2.964,2.964,0,0,0,3.082-3.038V127.53c0-2.725-.992-4.708-2.95-5.9a10.916,10.916,0,0,0-5.748-1.279h-4.251a10.934,10.934,0,0,0-5.748,1.279c-1.958,1.187-2.95,3.171-2.95,5.9v8.949a2.966,2.966,0,0,0,3.082,3.038,3.255,3.255,0,0,0,1.486-.354v1.161a1.7,1.7,0,0,0,1.692,1.692Z" transform="translate(-273.682 -106.02)" fill="#030403"/>
          <path id="Trazado_878662" data-name="Trazado 878662" d="M239.565,338.164l-.959,7.658c-.007.041-.059.409-.251.409s-.243-.343-.254-.409l-.955-7.658a.158.158,0,0,1,.048-.136.222.222,0,0,1,.147-.081h2.024a.222.222,0,0,1,.147.081.174.174,0,0,1,.052.136Zm-.2-1.781h-2.024a1.769,1.769,0,0,0-1.32.608,1.74,1.74,0,0,0-.428,1.368l.959,7.658a1.8,1.8,0,0,0,3.6,0l.962-7.658a1.783,1.783,0,0,0-1.751-1.973Z" transform="translate(-206.887 -293.949)" fill="#030403"/>
          <path id="Trazado_878663" data-name="Trazado 878663" d="M344.935,16.935a5.226,5.226,0,1,1,5.228,5.225A5.234,5.234,0,0,1,344.935,16.935Zm12.016,0a6.79,6.79,0,1,0-6.788,6.788A6.8,6.8,0,0,0,356.951,16.935Z" transform="translate(-300.658 -10.143)" fill="#030403"/>
          <path id="Trazado_878664" data-name="Trazado 878664" d="M52,289.485l-1.305-2.544h25.6a.054.054,0,0,1,.055.052v2.437a.059.059,0,0,1-.055.055Zm6.493,16.083a3.675,3.675,0,0,1-.122,3.576,2.7,2.7,0,0,1-2.3,1.375H36.828a2.7,2.7,0,0,1-2.3-1.375,3.674,3.674,0,0,1-.122-3.576l9.616-18.745a2.748,2.748,0,0,1,2.426-1.6h0a2.738,2.738,0,0,1,2.422,1.6l9.62,18.745ZM16.6,289.485a.059.059,0,0,1-.055-.055v-2.437a.056.056,0,0,1,.055-.052H42.2L40.9,289.485Zm61.316-.055v-2.437a1.62,1.62,0,0,0-1.619-1.615H49.8a4.177,4.177,0,0,0-3.355-1.718h0a4.189,4.189,0,0,0-3.359,1.718H16.6a1.62,1.62,0,0,0-1.619,1.615v2.437a1.621,1.621,0,0,0,1.619,1.619H40.091l-7.083,13.808a5.257,5.257,0,0,0,.181,5.1,4.23,4.23,0,0,0,3.639,2.124H56.064a4.23,4.23,0,0,0,3.639-2.124,5.264,5.264,0,0,0,.181-5.107l-7.087-13.8h23.5a1.621,1.621,0,0,0,1.619-1.619Z" transform="translate(-14.979 -248.083)" fill="#030403"/>
        </g>
      </g>
    </g>
  </g>
</svg>
