<svg xmlns="http://www.w3.org/2000/svg" width="100" height="100" viewBox="0 0 100 100">
  <g id="Grupo_1103382" data-name="Grupo 1103382" transform="translate(529 6806)">
    <g id="Rect치ngulo_400898" data-name="Rect치ngulo 400898" transform="translate(-529 -6806)" fill="#4e93ee" stroke="#fff" stroke-width="3" opacity="0.859">
      <rect width="100" height="100" rx="50" stroke="none"/>
      <rect x="1.5" y="1.5" width="97" height="97" rx="48.5" fill="none"/>
    </g>
    <g id="Rect치ngulo_400907" data-name="Rect치ngulo 400907" transform="translate(-529 -6806)" fill="none" stroke="#1f3b5f" stroke-linecap="round" stroke-width="2" stroke-dasharray="7">
      <rect width="100" height="100" rx="50" stroke="none"/>
      <rect x="1" y="1" width="98" height="98" rx="49" fill="none"/>
    </g>
    <g id="reutilizacion-del-agua" transform="translate(-515.144 -6817.3)">
      <g id="Grupo_1102102" data-name="Grupo 1102102" transform="translate(1.138 30.428)">
        <path id="Trazado_878665" data-name="Trazado 878665" d="M293.7,135.545a6.991,6.991,0,1,1-13.983,0c0-3.383,4.987-10.366,6.991-13.045,2.006,2.679,6.991,9.663,6.991,13.045Z" transform="translate(-241.366 -110.472)" fill="#66e0f7" fill-rule="evenodd"/>
        <path id="Trazado_878666" data-name="Trazado 878666" d="M147.218,135.545a6.989,6.989,0,1,1-13.978,0c0-3.383,4.987-10.366,6.991-13.045,2,2.679,6.987,9.663,6.987,13.045Z" transform="translate(-115.562 -110.472)" fill="#66e0f7" fill-rule="evenodd"/>
        <path id="Trazado_878667" data-name="Trazado 878667" d="M285.544,176.11a7.006,7.006,0,0,1-5.814-6.89c0-1.856,1.5-4.792,3.184-7.511,2.055,3.364,3.821,7,3.821,9.581A10.272,10.272,0,0,1,285.544,176.11Z" transform="translate(-241.375 -144.148)" fill="#00b8e6" fill-rule="evenodd"/>
        <path id="Trazado_878668" data-name="Trazado 878668" d="M189.645,169.212a7,7,0,0,1-5.81,6.89,10.294,10.294,0,0,1-1.2-4.82c0-2.583,1.771-6.218,3.825-9.581C188.146,164.42,189.645,167.356,189.645,169.212Z" transform="translate(-157.989 -144.139)" fill="#00b8e6" fill-rule="evenodd"/>
        <path id="Trazado_878669" data-name="Trazado 878669" d="M129.5,321.12a1.929,1.929,0,0,1-.714-.723l-.663-1.146a1.978,1.978,0,0,0-3.429,0l-.663,1.146a1.983,1.983,0,0,1-3.43,0l-.661-1.146a1.982,1.982,0,0,0-3.433,0l-.661,1.146a1.983,1.983,0,0,1-3.43,0l-.663-1.146a1.978,1.978,0,0,0-3.429,0l-.661,1.146a1.985,1.985,0,0,1-3.433,0l-.661-1.146a1.978,1.978,0,0,0-3.429,0l-.663,1.146a1.983,1.983,0,0,1-3.43,0l-.663-1.146a1.978,1.978,0,0,0-3.429,0l-.661,1.146a1.985,1.985,0,0,1-3.433,0l-.661-1.146a1.978,1.978,0,0,0-3.429,0l-.663,1.146a1.929,1.929,0,0,1-.714.723l-1.115,2.9c4.668,7.744,15.364,14.522,24.669,14.522,9.526,0,20.5-7.6,25.108-15.185Z" transform="translate(-70.936 -278.6)" fill="#66e0f7" fill-rule="evenodd"/>
        <path id="Trazado_878670" data-name="Trazado 878670" d="M8,68.161,14.435,74.6l6.435-6.435H16.734a26.275,26.275,0,0,1,50.617-9.889l3.488-3.484a30.876,30.876,0,0,0-58.7,13.373Zm57.145,0,6.435-6.431,6.431,6.431H73.879a30.875,30.875,0,0,1-58.7,13.371l3.484-3.479a26.278,26.278,0,0,0,50.621-9.892Z" transform="translate(-8 -37.29)" fill="#81c74d" fill-rule="evenodd"/>
        <path id="Trazado_878671" data-name="Trazado 878671" d="M214.836,137.616a8.1,8.1,0,1,1-16.2,0c0-3.923,5.775-12.012,8.1-15.116C209.061,125.6,214.836,133.693,214.836,137.616Z" transform="translate(-171.731 -110.472)" fill="#66e0f7" fill-rule="evenodd"/>
        <path id="Trazado_878672" data-name="Trazado 878672" d="M8,68.161,14.435,74.6l.851-.851L9.705,68.161ZM43.865,41.9A26.279,26.279,0,0,1,67.35,58.272l1.189-1.184a26.277,26.277,0,0,0-23.831-15.2C44.429,41.887,44.146,41.9,43.865,41.9Zm-.016-4.6c-.279-.008-.563-.016-.843-.016A30.871,30.871,0,0,0,12.136,68.161h1.705A30.865,30.865,0,0,1,43.85,37.306Zm21.3,30.856,6.435-6.431.851.851-5.581,5.58ZM43.87,99.021c-.288.007-.574.011-.862.011a30.878,30.878,0,0,1-27.831-17.5l3.484-3.479c.164.4.337.792.517,1.184l-2.3,2.3A30.872,30.872,0,0,0,43.87,99.021Zm-.02-4.6A26.272,26.272,0,0,0,69.281,68.161h1.7A26.273,26.273,0,0,1,44.708,94.435c-.287,0-.57,0-.858-.016Z" transform="translate(-8 -37.29)" fill="#65c43a" fill-rule="evenodd"/>
      </g>
      <g id="Grupo_1102103" data-name="Grupo 1102103" transform="translate(0.011 29.3)">
        <path id="Trazado_878673" data-name="Trazado 878673" d="M46.481,41.328a1.13,1.13,0,0,0-.9.452C44.572,43.122,42.846,45.51,41.346,48c-1.457-2.328-3.049-4.554-4.3-6.225a1.128,1.128,0,0,0-1.807,0c-1.249,1.673-2.84,3.9-4.3,6.226-1.5-2.5-3.228-4.885-4.233-6.226a1.129,1.129,0,0,0-1.807,0c-2.695,3.6-7.216,10.162-7.216,13.724a8.112,8.112,0,0,0,11.049,7.564,9.213,9.213,0,0,0,14.81,0A8.112,8.112,0,0,0,54.6,55.5c0-3.563-4.521-10.128-7.216-13.724a1.113,1.113,0,0,0-.9-.452ZM27.612,61.075A5.857,5.857,0,0,1,19.946,55.5c0-1.908,2.222-6.112,5.861-11.144a65.98,65.98,0,0,1,3.818,5.862c-1.548,2.748-2.7,5.44-2.7,7.35A9.186,9.186,0,0,0,27.612,61.075Zm8.531,3.467a6.976,6.976,0,0,1-6.966-6.97c0-2.3,2.584-7.182,6.967-13.216,1.69,2.323,3.111,4.475,4.222,6.377.021.041.044.08.069.12,1.726,2.974,2.678,5.323,2.678,6.719a6.979,6.979,0,0,1-6.97,6.97Zm10.338-3.18a5.833,5.833,0,0,1-1.805-.287,9.187,9.187,0,0,0,.693-3.5c0-1.915-1.156-4.607-2.7-7.353a66.367,66.367,0,0,1,3.817-5.861c3.64,5.032,5.861,9.236,5.861,11.144A5.867,5.867,0,0,1,46.481,61.361Zm-9.21.733a1.128,1.128,0,0,1-1.128,1.128,5.655,5.655,0,0,1-5.646-5.65,1.128,1.128,0,1,1,2.256,0,3.4,3.4,0,0,0,3.389,3.393A1.129,1.129,0,0,1,37.271,62.094ZM71.946,60.5l-6.434-6.434a1.128,1.128,0,0,0-1.6,0L57.484,60.5a1.128,1.128,0,0,0,.8,1.925h2.984a24.945,24.945,0,0,1-1.824,8.334l-.143-.247a3.1,3.1,0,0,0-5.382,0l-.666,1.148a.85.85,0,0,1-1.475,0l-.659-1.136a3.105,3.105,0,0,0-5.386-.006l-.661,1.145a.854.854,0,0,1-1.478,0l-.659-1.143a3.106,3.106,0,0,0-5.384,0l-.666,1.148a.85.85,0,0,1-1.475,0l-.662-1.141a3.1,3.1,0,0,0-5.384,0L28.7,71.653a.843.843,0,0,1-.741.428h0a.837.837,0,0,1-.737-.426l-.659-1.143a3.108,3.108,0,0,0-5.388,0l-.661,1.145a.85.85,0,0,1-1.475,0l-.662-1.141a3.1,3.1,0,0,0-5.382,0l-.147.253s0,0,0,0A1.129,1.129,0,0,0,11,70.381L7.516,73.876A1.13,1.13,0,0,0,7.3,75.163,32,32,0,0,0,68.125,62.431H71.15a1.129,1.129,0,0,0,.8-1.928ZM14.283,72.785l.662-1.142a.848.848,0,0,1,1.475,0l.662,1.141a3.107,3.107,0,0,0,5.384,0l.661-1.145a.853.853,0,0,1,1.478,0l.659,1.143a3.076,3.076,0,0,0,2.689,1.555h0a3.081,3.081,0,0,0,2.695-1.554l.661-1.145a.8.8,0,0,1,.738-.426.811.811,0,0,1,.737.431l.662,1.141a3.107,3.107,0,0,0,5.382,0L39.5,71.64a.791.791,0,0,1,.733-.422.8.8,0,0,1,.74.428l.659,1.143a3.11,3.11,0,0,0,5.388,0l.661-1.145a.848.848,0,0,1,1.475,0l.662,1.141a3.107,3.107,0,0,0,5.382,0l.666-1.148a.849.849,0,0,1,1.474,0L58,72.788a3.08,3.08,0,0,0,.285.415,25.319,25.319,0,0,1-5.813,7.2.837.837,0,0,1-.7-.425l-.659-1.136a3.105,3.105,0,0,0-5.386-.006l-.659,1.143a.858.858,0,0,1-1.479,0l-.659-1.143a3.107,3.107,0,0,0-5.384,0l-.665,1.146a.853.853,0,0,1-1.475,0l-.662-1.141a3.105,3.105,0,0,0-5.384,0L28.7,79.979a.842.842,0,0,1-.742.425h0a.837.837,0,0,1-.737-.423l-.659-1.143a3.109,3.109,0,0,0-5.388,0l-.659,1.143a.83.83,0,0,1-.755.422,25.1,25.1,0,0,1-5.767-7.192,2.873,2.873,0,0,0,.3-.426Zm36.222,9.142a25.178,25.178,0,0,1-28.75.02,3.138,3.138,0,0,0,.713-.84l.661-1.145a.853.853,0,0,1,1.478,0l.661,1.145a3.078,3.078,0,0,0,2.689,1.551h0a3.083,3.083,0,0,0,2.695-1.551l.661-1.145a.8.8,0,0,1,.738-.426.811.811,0,0,1,.737.431l.663,1.142a3.111,3.111,0,0,0,5.382,0l.669-1.152a.791.791,0,0,1,.733-.422.8.8,0,0,1,.74.428l.661,1.145a3.113,3.113,0,0,0,5.386,0l.661-1.145a.848.848,0,0,1,1.475,0l.662,1.142a3.173,3.173,0,0,0,.683.817ZM67.016,60.173A1.127,1.127,0,0,0,65.888,61.3a29.746,29.746,0,0,1-56.2,13.6l1.747-1.747c.032.069.069.137.1.206a1.236,1.236,0,0,0,.075.158l.021.032a27.335,27.335,0,0,0,6.935,8.775c.021.018.044.037.066.054q.978.813,2.035,1.54a27.381,27.381,0,0,0,32.883-1.467,1.136,1.136,0,0,0,.274-.23,27.562,27.562,0,0,0,6.815-8.641c.016-.023.03-.045.044-.069a1.123,1.123,0,0,0,.086-.193A27.221,27.221,0,0,0,63.549,61.3a1.127,1.127,0,0,0-1.128-1.128H61.008l3.709-3.709,3.709,3.709H67.016ZM8.373,68.533,14.8,62.1a1.128,1.128,0,0,0-.8-1.925H11.023a25.147,25.147,0,0,1,48.419-8.335,1.127,1.127,0,0,0,1.843.373l3.485-3.489a1.13,1.13,0,0,0,.219-1.287A32,32,0,0,0,4.165,60.173H1.14a1.128,1.128,0,0,0-.8,1.925l6.434,6.434a1.133,1.133,0,0,0,1.6,0Zm-4.508-6.1H5.273A1.128,1.128,0,0,0,6.4,61.3,29.746,29.746,0,0,1,62.6,47.7l-1.747,1.75A27.4,27.4,0,0,0,8.742,61.3,1.127,1.127,0,0,0,9.87,62.43h1.41L7.574,66.139Z" transform="translate(-0.011 -29.3)"/>
      </g>
    </g>
  </g>
</svg>
