<svg xmlns="http://www.w3.org/2000/svg" xmlns:xlink="http://www.w3.org/1999/xlink" width="72" height="72" viewBox="0 0 72 72">
  <defs>
    <clipPath id="clip-path">
      <rect id="Rectángulo_403241" data-name="Rectángulo 403241" width="47" height="47" transform="translate(0)" fill="#fff" stroke="#707070" stroke-width="1"/>
    </clipPath>
  </defs>
  <g id="Grupo_1103381" data-name="Grupo 1103381" transform="translate(-245.668 -3198.887)">
    <rect id="Rectángulo_402033" data-name="Rectángulo 402033" width="72" height="72" rx="5" transform="translate(245.668 3198.887)" fill="#ffe69c"/>
    <g id="Enmascarar_grupo_1098769" data-name="Enmascarar grupo 1098769" transform="translate(258.668 3211.887)" clip-path="url(#clip-path)">
      <g id="guia-turistico_4_" data-name="guia-turistico (4)" transform="translate(0.85 0)">
        <path id="Trazado_877837" data-name="Trazado 877837" d="M15.783,14.914c.5-1.407,1.882-.712,2.808-.011l-.015,4.4a7.333,7.333,0,0,0,.044.807,7.961,7.961,0,0,1-.817-.243C16.105,19.291,15.068,16.916,15.783,14.914Z" transform="translate(-3.147 -2.297)" fill="#ffbbb7"/>
        <path id="Trazado_877838" data-name="Trazado 877838" d="M35.851,14.914c-.5-1.407-1.869-.713-2.794-.014l-.043,4.359a7.939,7.939,0,0,1-.048.842,7.832,7.832,0,0,0,.863-.227C35.528,19.291,36.565,16.916,35.851,14.914Z" transform="translate(-3.147 -2.297)" fill="#ffbbb7"/>
        <rect id="Rectángulo_403242" data-name="Rectángulo 403242" width="38.403" height="10.144" rx="1.612" transform="translate(3.448 19.145)" fill="#c27e72"/>
        <path id="Trazado_877839" data-name="Trazado 877839" d="M43.386,21.443h-.229a1.608,1.608,0,0,1,.027.274v6.919a1.612,1.612,0,0,1-1.612,1.612H6.622a1.612,1.612,0,0,0,1.585,1.338H43.386A1.612,1.612,0,0,0,45,29.975V23.056a1.612,1.612,0,0,0-1.612-1.612Z" transform="translate(-3.147 -2.297)" fill="#bb765c"/>
        <path id="Trazado_877840" data-name="Trazado 877840" d="M43.386,21.443h-.229a1.608,1.608,0,0,1,.027.274v6.919a1.612,1.612,0,0,1-1.612,1.612H6.622a1.612,1.612,0,0,0,1.585,1.338H43.386A1.612,1.612,0,0,0,45,29.975V23.056a1.612,1.612,0,0,0-1.612-1.612Z" transform="translate(-3.147 -2.297)" fill="#bb765c"/>
        <ellipse id="Elipse_11626" data-name="Elipse 11626" cx="2.022" cy="1.34" rx="2.022" ry="1.34" transform="matrix(0.459, -0.889, 0.889, 0.459, 27.93, 16.117)" fill="#ffb2ad"/>
        <ellipse id="Elipse_11627" data-name="Elipse 11627" cx="1.34" cy="2.022" rx="1.34" ry="2.022" transform="matrix(0.889, -0.459, 0.459, 0.889, 13.197, 13.773)" fill="#ffb2ad"/>
        <path id="Trazado_877841" data-name="Trazado 877841" d="M37.577,31.794l-5.3-1.882a8.555,8.555,0,0,1-12.979-.081L14,31.766A6.933,6.933,0,0,0,9.444,38.28V48.49H42.192V38.333a6.933,6.933,0,0,0-4.615-6.539Z" transform="translate(-3.147 -2.297)" fill="#ffe17f"/>
        <path id="Trazado_877842" data-name="Trazado 877842" d="M17.3,48.49l.493-18.663a.39.39,0,0,0-.473-.392l-2.1.455a1.329,1.329,0,0,0-1.048,1.335l.471,17.268Z" transform="translate(-3.147 -2.297)" fill="#46b3cc"/>
        <path id="Trazado_877843" data-name="Trazado 877843" d="M36.971,48.49l.471-17.267a1.329,1.329,0,0,0-1.048-1.335l-2.1-.455a.39.39,0,0,0-.473.392l.493,18.665Z" transform="translate(-3.147 -2.297)" fill="#46b3cc"/>
        <path id="Trazado_877844" data-name="Trazado 877844" d="M25.817,32.854a8.545,8.545,0,0,0,6.455-2.942,2.58,2.58,0,0,1-1.719-2.434v-3.44a9.867,9.867,0,0,1-3.447,2.327,3.547,3.547,0,0,1-.962.177,4.434,4.434,0,0,1-1.612-.177,9.864,9.864,0,0,1-3.449-2.327v3.237a2.724,2.724,0,0,1-1.788,2.558,8.55,8.55,0,0,0,6.522,3.021Z" transform="translate(-3.147 -2.297)" fill="#ffb09e"/>
        <path id="Trazado_877845" data-name="Trazado 877845" d="M26.144,26.542a4.434,4.434,0,0,1-1.612-.177,9.864,9.864,0,0,1-3.449-2.327v1.612a11.1,11.1,0,0,0,4.094,2.788,5.745,5.745,0,0,0,3.338,0,8.333,8.333,0,0,0,2.037-1.058V24.038a9.867,9.867,0,0,1-3.447,2.327,3.547,3.547,0,0,1-.962.177Z" transform="translate(-3.147 -2.297)" fill="#ffa691"/>
        <path id="Trazado_877846" data-name="Trazado 877846" d="M33.044,20.105A7.207,7.207,0,0,1,31.1,24.3a10.883,10.883,0,0,1-4,2.878,4.552,4.552,0,0,1-2.572,0,10.883,10.883,0,0,1-4-2.878,7.208,7.208,0,0,1-1.943-4.192c-.167-.838-.067-5.232-.075-5.232-1.072-2.652-1.868-5.861-.151-7.03,0,0-.21-4.99,7.6-4.732,3.434.113,5.159.943,6.554,2.926a7.8,7.8,0,0,1,1.209,3.337,11.977,11.977,0,0,1-.645,5.482l.008.024a33.415,33.415,0,0,1-.048,5.224Z" transform="translate(-3.147 -2.297)" fill="#ffc6b7"/>
        <path id="Trazado_877847" data-name="Trazado 877847" d="M33.084,14.857a11.977,11.977,0,0,0,.645-5.482A7.8,7.8,0,0,0,32.52,6.038a6.751,6.751,0,0,0-1.359-1.451c.081.107.17.206.251.322A7.8,7.8,0,0,1,32.62,8.247a21.1,21.1,0,0,1-.637,5.506,33.414,33.414,0,0,1-.048,5.224,7.207,7.207,0,0,1-1.943,4.192,10.883,10.883,0,0,1-4,2.878,4.551,4.551,0,0,1-2.572,0,9.311,9.311,0,0,1-3.138-2.031c.081.1.161.192.248.283a10.883,10.883,0,0,0,4,2.878,4.551,4.551,0,0,0,2.572,0,10.883,10.883,0,0,0,4-2.878,7.207,7.207,0,0,0,1.943-4.192,33.415,33.415,0,0,0,.048-5.224Z" transform="translate(-3.147 -2.297)" fill="#ffb8a6"/>
        <path id="Trazado_877848" data-name="Trazado 877848" d="M42.071,17.274c-1.185-1.209-3.205-3.64-3.3-6.228A4.214,4.214,0,0,1,42.8,6.721a4.147,4.147,0,0,1,4.265,4.144c0,2.66-2.1,5.183-3.305,6.418a1.179,1.179,0,0,1-1.688-.009Z" transform="translate(-3.147 -2.297)" fill="#ff4a4a"/>
        <path id="Trazado_877849" data-name="Trazado 877849" d="M44.478,7.026a4.128,4.128,0,0,1,1.3,3.009c0,2.66-2.1,5.183-3.305,6.418a1.162,1.162,0,0,1-.844.349c.156.172.307.333.445.473a1.179,1.179,0,0,0,1.684.009c1.209-1.234,3.305-3.756,3.305-6.418a4.146,4.146,0,0,0-2.586-3.84Z" transform="translate(-3.147 -2.297)" fill="#e7343f"/>
        <circle id="Elipse_11628" data-name="Elipse 11628" cx="1.842" cy="1.842" r="1.842" transform="translate(37.929 6.752)" fill="#fff"/>
        <path id="Trazado_877850" data-name="Trazado 877850" d="M18.541,14.881l.932-1.834c-.289-3.728,1.022-4.389,2.4-5.021s3.938.572,3.938.572,2.555-1.2,3.938-.572,2.695,1.29,2.4,5.021l.921,1.813a11.977,11.977,0,0,0,.645-5.482A7.789,7.789,0,0,0,32.516,6.04C31.127,4.052,29.4,3.225,25.967,3.113c-7.82-.258-7.606,4.73-7.606,4.73-1.723,1.175-.9,4.4.181,7.061Z" transform="translate(-3.147 -2.297)" fill="#83718c"/>
        <path id="Trazado_877851" data-name="Trazado 877851" d="M6.636,46.878V35.214l8.682,3.225,10.5-3.225,10.5,3.225L45,35.214V46.878a1.612,1.612,0,0,1-1.612,1.612H8.248a1.612,1.612,0,0,1-1.612-1.612Z" transform="translate(-3.147 -2.297)" fill="#bbec6a"/>
        <path id="Trazado_877852" data-name="Trazado 877852" d="M42.055,48.49h1.33A1.612,1.612,0,0,0,45,46.878V35.214l-2.942,1.093Z" transform="translate(-3.147 -2.297)" fill="#66b373"/>
        <path id="Trazado_877853" data-name="Trazado 877853" d="M25.782,48.49H36.32V38.437l0,0-10.5-3.225-.035.011Z" transform="translate(-3.147 -2.297)" fill="#4ce166"/>
        <path id="Trazado_877854" data-name="Trazado 877854" d="M15.273,38.422,6.636,35.214V46.878A1.612,1.612,0,0,0,8.248,48.49h7.025Z" transform="translate(-3.147 -2.297)" fill="#4ce166"/>
        <path id="Trazado_877855" data-name="Trazado 877855" d="M39.578,21.442h2.643V31.586H39.578Z" transform="translate(-3.147 -2.297)" fill="#ffe7cc"/>
        <path id="Trazado_877856" data-name="Trazado 877856" d="M9.395,21.442h2.643V31.586H9.395Z" transform="translate(-3.147 -2.297)" fill="#ffe7cc"/>
        <path id="Trazado_877857" data-name="Trazado 877857" d="M47.245,45.727H44.927a2.871,2.871,0,0,1,0-5.743h2.318a10.627,10.627,0,0,1,0,5.744Z" transform="translate(-3.147 -2.297)" fill="#ffcebf"/>
        <path id="Trazado_877858" data-name="Trazado 877858" d="M4.348,45.727H6.666a2.871,2.871,0,1,0,0-5.743H4.348a10.627,10.627,0,0,0,0,5.744Z" transform="translate(-3.147 -2.297)" fill="#ffcebf"/>
        <path id="Trazado_877859" data-name="Trazado 877859" d="M47.245,39.985H46.239a10.735,10.735,0,0,1,.069,1.677,2.564,2.564,0,0,1-2.568,2.455h-.135a2.841,2.841,0,0,1-1.4-.378,2.863,2.863,0,0,0,2.719,1.99h2.318a10.626,10.626,0,0,0,0-5.744Z" transform="translate(-3.147 -2.297)" fill="#ffb8a6"/>
        <path id="Trazado_877860" data-name="Trazado 877860" d="M4.348,39.985H5.354a10.735,10.735,0,0,0-.069,1.677,2.564,2.564,0,0,0,2.568,2.455h.135a2.841,2.841,0,0,0,1.4-.378,2.863,2.863,0,0,1-2.719,1.99H4.348a10.626,10.626,0,0,1,0-5.744Z" transform="translate(-3.147 -2.297)" fill="#ffb8a6"/>
        <path id="Trazado_877861" data-name="Trazado 877861" d="M18.541,14.881v.024c-.008-.008-.008-.024-.016-.032C18.533,14.873,18.533,14.881,18.541,14.881Z" transform="translate(-3.147 -2.297)" fill="#ffbaa8"/>
        <path id="Trazado_877862" data-name="Trazado 877862" d="M18.541,14.881v.024c-.008-.008-.008-.024-.016-.032C18.533,14.873,18.533,14.881,18.541,14.881Z" transform="translate(-3.147 -2.297)" fill="#ffbaa8"/>
        <path id="Trazado_877863" data-name="Trazado 877863" d="M41.572,30.248h-1.99v1.338h2.643V30.109a1.6,1.6,0,0,1-.653.139Z" transform="translate(-3.147 -2.297)" fill="#ffd9ad"/>
        <path id="Trazado_877864" data-name="Trazado 877864" d="M9.395,30.248h2.643v1.338H9.395Z" transform="translate(-3.147 -2.297)" fill="#ffd9ad"/>
        <path id="Trazado_877865" data-name="Trazado 877865" d="M9.876,23.839v2.925a.806.806,0,0,0,1.612,0V23.839a.806.806,0,0,0-1.612,0Z" transform="translate(-3.147 -2.297)" fill="#fffdfa"/>
        <circle id="Elipse_11629" data-name="Elipse 11629" cx="0.841" cy="0.841" r="0.841" transform="translate(6.729 26.017)" fill="#fffdfa"/>
        <path id="Trazado_877866" data-name="Trazado 877866" d="M42.92,18.439a1.96,1.96,0,0,0,1.409-.59c1.322-1.347,3.54-4.045,3.54-6.983a4.926,4.926,0,0,0-8.53-3.381,5.028,5.028,0,0,0-1.37,3.589c.1,2.857,2.252,5.464,3.527,6.764a1.984,1.984,0,0,0,1.424.6Zm-2.41-9.85a3.321,3.321,0,0,1,5.746,2.277c0,2.364-1.928,4.682-3.078,5.853a.377.377,0,0,1-.533-.009c-1.11-1.133-2.983-3.379-3.063-5.692A3.406,3.406,0,0,1,40.511,8.589Zm5.054,2.3a2.648,2.648,0,1,0-2.648,2.648,2.648,2.648,0,0,0,2.648-2.648Zm-3.684,0a1.036,1.036,0,1,1,1.036,1.036,1.036,1.036,0,0,1-1.036-1.036Zm6.14,28.875a.806.806,0,0,0-.776-.588H45.8V35.215a.806.806,0,0,0-1.087-.755l-2.338.867a7.785,7.785,0,0,0-2.169-2.934h3.175A2.418,2.418,0,0,0,45.8,29.975V23.056a2.418,2.418,0,0,0-2.418-2.418H34.1a4.073,4.073,0,0,0,2.282-2.157,5.019,5.019,0,0,0,.23-3.833,1.9,1.9,0,0,0-1.225-1.281,2.015,2.015,0,0,0-1.041-.014,13.366,13.366,0,0,0,.188-4.039,8.56,8.56,0,0,0-1.35-3.733C31.618,3.345,29.6,2.426,25.995,2.307c-3.144-.1-5.489.592-6.951,2.068a5.134,5.134,0,0,0-1.466,3.063c-1.177,1.08-1.316,3.063-.446,5.9a1.957,1.957,0,0,0-.887.032,1.9,1.9,0,0,0-1.217,1.278,5.021,5.021,0,0,0,.23,3.834,4.073,4.073,0,0,0,2.278,2.158H8.207a2.418,2.418,0,0,0-2.418,2.418v6.919a2.418,2.418,0,0,0,2.418,2.418h3.159a7.79,7.79,0,0,0-2.135,2.934l-2.313-.868a.806.806,0,0,0-1.089.755v3.964H4.348a.806.806,0,0,0-.776.589,11.432,11.432,0,0,0,0,6.179.806.806,0,0,0,.776.588H5.83v1.957a.806.806,0,0,0,.806.806H45a.806.806,0,0,0,.806-.806V46.534h1.441a.806.806,0,0,0,.776-.589,11.432,11.432,0,0,0,0-6.179Zm-7.15-3.879-2.778,1.034.108-3.95a6.169,6.169,0,0,1,2.67,2.916ZM26.053,34.444a.806.806,0,0,0-.473,0l-7.162,2.2.15-5.686.5-.185a9.313,9.313,0,0,0,13.415.072l.564.2.148,5.595Zm-6.1-9.593c.109.114.218.22.322.329v2.1a1.923,1.923,0,0,1-1.259,1.8l-.548.2a1.184,1.184,0,0,0-1.318-.632l-2.1.455a2.133,2.133,0,0,0-1.637,1.681h-.564V22.249h5.444a7.989,7.989,0,0,0,1.657,2.6ZM22.213,8.76c.784-.356,2.535.228,3.261.564a.806.806,0,0,0,.685,0c.726-.339,2.479-.924,3.261-.564,1.222.558,2.186,1,1.935,4.225a.806.806,0,0,0,.085.427l.846,1.663V19.3a6.4,6.4,0,0,1-1.768,4.442,9.943,9.943,0,0,1-3.669,2.669,3.754,3.754,0,0,1-2.065,0,9.953,9.953,0,0,1-3.67-2.669A6.406,6.406,0,0,1,19.347,19.3V15.075l.845-1.662a.806.806,0,0,0,.085-.428c-.25-3.23.715-3.667,1.937-4.225ZM36.566,29.1l-2.1-.454a1.188,1.188,0,0,0-1.356.709l-.572-.2a1.779,1.779,0,0,1-1.184-1.676v-2.3c.109-.109.217-.214.322-.329a7.986,7.986,0,0,0,1.661-2.6h5.433v8.531h-.564A2.134,2.134,0,0,0,36.566,29.1Zm-5.6.983a7.739,7.739,0,0,1-10.386-.069,3.547,3.547,0,0,0,1.3-2.741V26.6a8.48,8.48,0,0,0,2.386,1.332,5.365,5.365,0,0,0,3.087,0A8.478,8.478,0,0,0,29.747,26.6v.874a3.394,3.394,0,0,0,1.223,2.606ZM15.155,37.547,14.98,31.2a.522.522,0,0,1,.412-.524l1.58-.343-.179,6.809L15.3,37.6Zm19.67-.41-.179-6.8,1.58.342a.524.524,0,0,1,.412.525l-.173,6.323-.173.064Zm9.367-14.082v6.919a.806.806,0,0,1-.806.806h-.358V22.249h.358a.806.806,0,0,1,.806.806Zm-2.776-.806v8.531H40.388V22.249Zm-6.5-7.342c.055.017.126.127.181.282a3.441,3.441,0,0,1-.161,2.593A2.7,2.7,0,0,1,33.9,18.954V15.31c.559-.366.9-.435,1.009-.4Zm-16.1-6.4a.806.806,0,0,0,.351-.7,3.443,3.443,0,0,1,1.021-2.3c1.118-1.129,3.114-1.674,5.753-1.591,3.106.1,4.655.78,5.92,2.586a6.96,6.96,0,0,1,1.064,2.941,15.148,15.148,0,0,1,.05,1.86,4.2,4.2,0,0,0-2.884-4.013c-1.387-.634-3.441.081-4.273.425-.833-.343-2.887-1.059-4.273-.425-1.71.78-3.108,1.744-2.894,5.5C17.983,10.585,18.022,9.05,18.815,8.509Zm-2.109,9.271a3.441,3.441,0,0,1-.161-2.593c.055-.154.126-.265.181-.282.1-.031.447.033,1.013.4v3.645a2.7,2.7,0,0,1-1.033-1.17ZM7.4,29.975V23.056a.806.806,0,0,1,.806-.806h.382v8.531H8.207A.806.806,0,0,1,7.4,29.975Zm2.8.806V22.249h1.031v8.531Zm3.213,2.148.11,4.007-2.783-1.043a6.177,6.177,0,0,1,2.672-2.963ZM4.979,40.791H6.666a2.066,2.066,0,1,1,0,4.132H4.979a9.824,9.824,0,0,1,0-4.131Zm10.294,2.3a.806.806,0,0,0-.806.806v3.789H7.442V46.447a3.674,3.674,0,0,0,0-7.184V36.377l7.548,2.83a.815.815,0,0,0,.52.016l9.5-2.918V47.684H16.079V43.9a.806.806,0,0,0-.806-.809Zm11.35,4.595V36.305l8.891,2.731v3.353a.806.806,0,0,0,1.612,0V39l7.066-2.625v2.879a3.678,3.678,0,0,0,0,7.207v1.225Zm19.992-2.763H44.927a2.066,2.066,0,1,1,0-4.132h1.687a9.824,9.824,0,0,1,0,4.134ZM16.079,41.324a.806.806,0,1,1-.806-.806A.806.806,0,0,1,16.079,41.324Zm21.047,3.632a.806.806,0,1,1-.806-.806.806.806,0,0,1,.806.806Z" transform="translate(-3.147 -2.297)"/>
      </g>
    </g>
  </g>
</svg>
