<svg xmlns="http://www.w3.org/2000/svg" xmlns:xlink="http://www.w3.org/1999/xlink" width="100" height="100.001" viewBox="0 0 100 100.001">
  <defs>
    <linearGradient id="linear-gradient" x1="0.5" x2="0.5" y2="1" gradientUnits="objectBoundingBox">
      <stop offset="0" stop-color="#4e93ee"/>
      <stop offset="1" stop-color="#1f3b5f"/>
    </linearGradient>
  </defs>
  <g id="Grupo_1102034" data-name="Grupo 1102034" transform="translate(-230.711 -2455.44)">
    <g id="Rect치ngulo_400898" data-name="Rect치ngulo 400898" transform="translate(230.711 2455.44)" fill="#fec009" stroke="#ffe69c" stroke-width="3" opacity="0.859">
      <rect width="100" height="100" rx="50" stroke="none"/>
      <rect x="1.5" y="1.5" width="97" height="97" rx="48.5" fill="none"/>
    </g>
    <g id="Rect치ngulo_400907" data-name="Rect치ngulo 400907" transform="translate(230.711 2455.441)" fill="none" stroke="#594303" stroke-linecap="round" stroke-width="2" stroke-dasharray="7">
      <rect width="100" height="100" rx="50" stroke="none"/>
      <rect x="1" y="1" width="98" height="98" rx="49" fill="none"/>
    </g>
    <g id="senal-de-trafico" transform="translate(248.711 2473.438)">
      <path id="Trazado_878493" data-name="Trazado 878493" d="M20.172,14.181H12.837a.15.15,0,0,0-.106.044L7.544,19.412a.151.151,0,0,0-.044.106v7.335a.15.15,0,0,0,.044.106l5.187,5.187a.15.15,0,0,0,.106.044h7.335a.15.15,0,0,0,.106-.044l5.187-5.187a.15.15,0,0,0,.044-.106V19.518a.15.15,0,0,0-.044-.106l-5.187-5.187a.15.15,0,0,0-.106-.044Z" transform="translate(-6.562 -12.406)" fill="#f1f4f6"/>
      <path id="Trazado_878494" data-name="Trazado 878494" d="M44.889,19.411,39.7,14.224a.15.15,0,0,0-.106-.044H37.158l1.987,1.987a2.691,2.691,0,0,1,.788,1.9v4.37a4.768,4.768,0,0,1-1.4,3.372l-2.482,2.482a4.768,4.768,0,0,1-3.372,1.4H29.7l2.456,2.456a.15.15,0,0,0,.106.044H39.6a.15.15,0,0,0,.106-.044l5.187-5.187a.15.15,0,0,0,.044-.106V19.517A.151.151,0,0,0,44.889,19.411Z" transform="translate(-25.986 -12.405)" fill="#dfeaef"/>
      <path id="Trazado_878495" data-name="Trazado 878495" d="M36.163,51.109l-3.339-3.339a.145.145,0,0,1-.042-.1V42.946a.145.145,0,0,1,.042-.1l3.339-3.339a.145.145,0,0,1,.1-.042h4.722a.145.145,0,0,1,.1.042l3.339,3.339a.145.145,0,0,1,.042.1v4.722a.145.145,0,0,1-.042.1l-3.339,3.339a.145.145,0,0,1-.1.042H36.266A.144.144,0,0,1,36.163,51.109Z" transform="translate(-28.684 -34.528)" fill="#dd4f48"/>
      <path id="Trazado_878496" data-name="Trazado 878496" d="M77.769,52.132v3.516a4.768,4.768,0,0,1-1.4,3.372L73.891,61.5a4.771,4.771,0,0,1-.951.736h3.185a.145.145,0,0,0,.1-.042l3.339-3.339a.145.145,0,0,0,.042-.1V54.032a.145.145,0,0,0-.042-.1Z" transform="translate(-63.822 -45.613)" fill="#dc1b12"/>
      <path id="Trazado_878497" data-name="Trazado 878497" d="M66.825,158.254H70v39.07H66.825Z" transform="translate(-58.472 -138.47)" fill="#b8d4f8"/>
      <circle id="Elipse_11648" data-name="Elipse 11648" cx="9.005" cy="9.005" r="9.005" transform="translate(45.054 1.775)" fill="#f1f4f6"/>
      <path id="Trazado_878498" data-name="Trazado 878498" d="M186.24,26.989l-9.2-9.2a.644.644,0,0,1,0-.911l9.2-9.2a.644.644,0,0,1,.911,0l9.2,9.2a.644.644,0,0,1,0,.911l-9.2,9.2A.644.644,0,0,1,186.24,26.989Z" transform="translate(-154.749 -6.558)" fill="#fec009"/>
      <path id="Trazado_878499" data-name="Trazado 878499" d="M389.5,14.957a9,9,0,0,1-6.327,15.412,9.068,9.068,0,0,1-1.327-.1A9,9,0,1,0,389.5,14.957Z" transform="translate(-334.119 -13.085)" fill="#dfeaef"/>
      <path id="Trazado_878500" data-name="Trazado 878500" d="M238.976,16.882l-9.2-9.2a.644.644,0,0,0-.911,0l-.795.795,4.075,4.075a3.227,3.227,0,0,1,0,4.564l-6.575,6.575,3.295,3.295a.644.644,0,0,0,.911,0l9.2-9.2a.644.644,0,0,0,0-.911Z" transform="translate(-197.377 -6.558)" fill="#d9aa1d"/>
      <path id="Trazado_878501" data-name="Trazado 878501" d="M421.342,157.275a9.053,9.053,0,0,1-1.589-.14v39.21h3.178v-39.21A9.056,9.056,0,0,1,421.342,157.275Z" transform="translate(-367.283 -137.491)" fill="#b8d4f8"/>
      <path id="Trazado_878502" data-name="Trazado 878502" d="M244.907,155.493a.644.644,0,0,1-.911,0l-1.134-1.134v39.557h3.178V154.359Z" transform="translate(-212.505 -135.062)" fill="#b8d4f8"/>
      <g id="Grupo_1102032" data-name="Grupo 1102032" transform="translate(8.353 19.297)">
        <path id="Trazado_878503" data-name="Trazado 878503" d="M244,155.493l-1.134-1.134v2.5L244,157.993a.644.644,0,0,0,.911,0l1.134-1.134v-2.5l-1.134,1.134A.644.644,0,0,1,244,155.493Z" transform="translate(-220.859 -154.359)" fill="#86a0af"/>
        <path id="Trazado_878504" data-name="Trazado 878504" d="M66.825,158.253H70v2.5H66.825Z" transform="translate(-66.825 -157.766)" fill="#86a0af"/>
        <path id="Trazado_878505" data-name="Trazado 878505" d="M421.342,157.275a9.053,9.053,0,0,1-1.589-.14v2.5a9.1,9.1,0,0,0,3.178,0v-2.5A9.053,9.053,0,0,1,421.342,157.275Z" transform="translate(-375.637 -156.788)" fill="#86a0af"/>
      </g>
      <path id="Trazado_878516" data-name="Trazado 878516" d="M5.844,0A5.844,5.844,0,1,1,0,5.844,5.844,5.844,0,0,1,5.844,0Z" transform="translate(48.214 4.935)" fill="#4e93ee"/>
      <path id="Trazado_878506" data-name="Trazado 878506" d="M422.215,60.805a5.845,5.845,0,0,0,5.075-10.148,9.019,9.019,0,0,1-5.075,10.148Z" transform="translate(-369.438 -44.323)" fill="url(#linear-gradient)"/>
      <path id="Trazado_878507" data-name="Trazado 878507" d="M37.819,475.02H24.235a.138.138,0,0,1-.138-.138V473.6a2.792,2.792,0,0,1,2.792-2.792h8.277a2.792,2.792,0,0,1,2.792,2.792v1.281A.138.138,0,0,1,37.819,475.02Z" transform="translate(-21.085 -411.955)" fill="#d0e2e7"/>
      <path id="Trazado_878508" data-name="Trazado 878508" d="M213.857,475.02H200.273a.138.138,0,0,1-.138-.138V473.6a2.792,2.792,0,0,1,2.792-2.792H211.2A2.792,2.792,0,0,1,214,473.6v1.281A.138.138,0,0,1,213.857,475.02Z" transform="translate(-175.118 -411.955)" fill="#d0e2e7"/>
      <path id="Trazado_878509" data-name="Trazado 878509" d="M390.746,475.02H377.162a.138.138,0,0,1-.138-.138V473.6a2.792,2.792,0,0,1,2.792-2.792h8.277a2.792,2.792,0,0,1,2.792,2.792v1.281A.138.138,0,0,1,390.746,475.02Z" transform="translate(-329.896 -411.955)" fill="#d0e2e7"/>
      <path id="Trazado_878510" data-name="Trazado 878510" d="M14.378,7a1.081,1.081,0,0,0-.768-.318H6.275A1.081,1.081,0,0,0,5.505,7L.319,12.185A1.081,1.081,0,0,0,0,12.955v1.808a.938.938,0,1,0,1.875,0V13.281L6.6,8.555h6.683l4.726,4.726v6.683l-4.726,4.726H6.6L1.875,19.964v-.826a.938.938,0,0,0-1.875,0V20.29a1.079,1.079,0,0,0,.319.769l5.187,5.187a1.081,1.081,0,0,0,.769.319H7.416V63.759H5.8a3.733,3.733,0,0,0-3.729,3.729V68.77A1.077,1.077,0,0,0,3.15,69.845H16.734A1.077,1.077,0,0,0,17.81,68.77V67.489a3.733,3.733,0,0,0-3.729-3.729H12.469V26.564H13.61a1.08,1.08,0,0,0,.769-.319l5.186-5.186a1.08,1.08,0,0,0,.319-.77V12.955a1.081,1.081,0,0,0-.319-.769Zm1.557,60.491v.482H3.95v-.482A1.856,1.856,0,0,1,5.8,65.634H14.08A1.856,1.856,0,0,1,15.935,67.488Zm-5.341-3.729h-1.3V26.564h1.3Z" transform="translate(0 -5.843)"/>
      <path id="Trazado_878511" data-name="Trazado 878511" d="M29.7,45.526h4.722a1.076,1.076,0,0,0,.765-.317l3.339-3.339a1.075,1.075,0,0,0,.317-.765V36.383a1.076,1.076,0,0,0-.317-.765L35.19,32.279a1.075,1.075,0,0,0-.765-.317H29.7a1.076,1.076,0,0,0-.765.317L25.6,35.618a1.075,1.075,0,0,0-.317.765V41.1a1.076,1.076,0,0,0,.317.765l3.339,3.339a1.076,1.076,0,0,0,.765.317Zm-2.546-8.814,2.874-2.874H34.1l2.874,2.874v4.065L34.1,43.651H30.031l-2.874-2.874Z" transform="translate(-22.122 -27.964)"/>
      <path id="Trazado_878512" data-name="Trazado 878512" d="M362.869,6.681a9.943,9.943,0,0,0-2.526,19.559V63.76h-1.612A3.733,3.733,0,0,0,355,67.489v1.281a1.077,1.077,0,0,0,1.075,1.075h13.584a1.077,1.077,0,0,0,1.075-1.075V67.489a3.733,3.733,0,0,0-3.729-3.729H365.4V26.239a9.934,9.934,0,0,0,3.927-2.052.938.938,0,0,0-1.218-1.426,8.043,8.043,0,1,1,2.3-3.248.937.937,0,1,0,1.75.672,9.948,9.948,0,0,0-9.285-13.5Zm5.993,60.808v.482H356.877v-.482a1.856,1.856,0,0,1,1.854-1.854h8.277A1.856,1.856,0,0,1,368.862,67.489Zm-5.341-40.945V63.76h-1.3V26.544a9.959,9.959,0,0,0,1.3,0Z" transform="translate(-308.811 -5.844)"/>
      <path id="Trazado_878513" data-name="Trazado 878513" d="M181.251.465a1.583,1.583,0,0,0-2.236,0l-9.2,9.2a1.581,1.581,0,0,0,0,2.236l7.788,7.788V34.924a.938.938,0,0,0,1.875,0V21.416a1.588,1.588,0,0,0,1.3,0v36.5h-1.3V39.3a.938.938,0,0,0-1.875,0V57.917h-1.612a3.733,3.733,0,0,0-3.729,3.729v1.281A1.077,1.077,0,0,0,173.34,64h13.584A1.077,1.077,0,0,0,188,62.927V61.646a3.733,3.733,0,0,0-3.729-3.729h-1.612V19.686l7.788-7.788a1.581,1.581,0,0,0,0-2.236Zm4.874,61.181v.482H174.14v-.482a1.856,1.856,0,0,1,1.854-1.854h8.276A1.856,1.856,0,0,1,186.125,61.646ZM180.133,19.56l-8.781-8.781L180.133,2l8.781,8.781Z" transform="translate(-148.185 0)"/>
      <path id="Trazado_878514" data-name="Trazado 878514" d="M209.209,34.417l-5.433,5.433a1.084,1.084,0,0,0,0,1.53l5.433,5.433a1.083,1.083,0,0,0,1.531,0l5.433-5.433a1.083,1.083,0,0,0,0-1.531l-5.433-5.433a1.084,1.084,0,0,0-1.531,0Zm5.077,6.2-4.312,4.312-4.312-4.312,4.312-4.312Z" transform="translate(-178.027 -29.836)"/>
      <path id="Trazado_878515" data-name="Trazado 878515" d="M384.993,31.965a6.782,6.782,0,1,0,6.782,6.782A6.789,6.789,0,0,0,384.993,31.965Zm0,11.688a4.907,4.907,0,1,1,4.907-4.907A4.912,4.912,0,0,1,384.993,43.653Z" transform="translate(-330.934 -27.967)"/>
    </g>
  </g>
</svg>
