<svg xmlns="http://www.w3.org/2000/svg" width="100" height="100" viewBox="0 0 100 100">
  <g id="Grupo_1102017" data-name="Grupo 1102017" transform="translate(-907.711 -1326)">
    <g id="Rect치ngulo_400907" data-name="Rect치ngulo 400907" transform="translate(907.711 1326)" fill="none" stroke="#1f3b5f" stroke-linecap="round" stroke-width="2" stroke-dasharray="7">
      <rect width="100" height="100" rx="50" stroke="none"/>
      <rect x="1" y="1" width="98" height="98" rx="49" fill="none"/>
    </g>
    <g id="Grupo_1102012" data-name="Grupo 1102012">
      <g id="Rect치ngulo_400898" data-name="Rect치ngulo 400898" transform="translate(907.711 1326)" fill="#4e93ee" stroke="#fff" stroke-width="3" opacity="0.859">
        <rect width="100" height="100" rx="50" stroke="none"/>
        <rect x="1.5" y="1.5" width="97" height="97" rx="48.5" fill="none"/>
      </g>
      <g id="Layer_x0020_1" transform="translate(878.711 1344)">
        <path id="Trazado_878375" data-name="Trazado 878375" d="M95.706,37.477,92.48,31.7V61.787h3.226ZM75.786,58.185H71.134a1.154,1.154,0,0,1-1.125-1.125V49.144a1.129,1.129,0,0,1,1.125-1.125h4.652a1.105,1.105,0,0,1,1.125,1.125V57.06A1.129,1.129,0,0,1,75.786,58.185Zm-3.526-2.251h2.4V50.27h-2.4Zm3.526-11.817H71.134a1.129,1.129,0,0,1-1.125-1.125V35.076a1.154,1.154,0,0,1,1.125-1.125h4.652a1.129,1.129,0,0,1,1.125,1.125v7.916A1.105,1.105,0,0,1,75.786,44.117Zm-3.526-2.251h2.4V36.2h-2.4Zm3.526-11.817H71.134a1.129,1.129,0,0,1-1.125-1.125V21.046a1.129,1.129,0,0,1,1.125-1.125h4.652a1.105,1.105,0,0,1,1.125,1.125v7.878A1.105,1.105,0,0,1,75.786,30.049ZM72.259,27.8h2.4V22.171h-2.4Zm3.526-11.78H71.134a1.154,1.154,0,0,1-1.125-1.125V6.978a1.129,1.129,0,0,1,1.125-1.125h4.652a1.105,1.105,0,0,1,1.125,1.125v7.916A1.129,1.129,0,0,1,75.786,16.019Zm-3.526-2.251h2.4V8.1h-2.4ZM56.728,2.251V61.787h33.5V28.849a12.539,12.539,0,0,1,0-21.308V2.251ZM54.477,61.787V2.251H51.251V61.787Zm38-55.334a13.054,13.054,0,0,1,3.226-.75V2.251H92.48Zm-.6,20.783c.038,0,.075,0,.075.038a2.292,2.292,0,0,1,.525.263,1.035,1.035,0,0,1,.525.45l3.827,6.9,3.826-6.9a1.124,1.124,0,0,1,.488-.45,10.256,10.256,0,1,0-9.266-.3ZM97.957,5.7a12.553,12.553,0,0,1,4.5,23.709l-4.5,8.066V62.912A1.121,1.121,0,0,1,96.831,64H49.825v-.038H49.75l-.038-.038h-.075l-.038-.038h-.038A1.167,1.167,0,0,1,49,62.912V1.125A1.119,1.119,0,0,1,49.563.15H49.6V.113h.075l.038-.038h.075l.038-.038h.113L49.975,0H96.831a1.154,1.154,0,0,1,1.125,1.125ZM96.831,24.46a6.265,6.265,0,1,1,6.265-6.265A6.276,6.276,0,0,1,96.831,24.46Zm0-10.279a4.014,4.014,0,1,0,4.014,4.014A4.019,4.019,0,0,0,96.831,14.181Z" fill="#000002" fill-rule="evenodd"/>
        <path id="Trazado_878376" data-name="Trazado 878376" d="M1056.453,231.07l3.826,6.9,3.827-6.9a1.124,1.124,0,0,1,.488-.45,10.256,10.256,0,1,0-9.266-.3l.075.038a2.29,2.29,0,0,1,.525.263A1.035,1.035,0,0,1,1056.453,231.07Zm3.826-3.526a6.265,6.265,0,1,1,6.265-6.265A6.276,6.276,0,0,1,1060.279,227.544Z" transform="translate(-963.448 -203.084)" fill="#dc1b12" fill-rule="evenodd"/>
        <path id="Trazado_878377" data-name="Trazado 878377" d="M1217,382.014a4.014,4.014,0,1,0,4.014-4.014A4.019,4.019,0,0,0,1217,382.014Z" transform="translate(-1124.183 -363.819)" fill="#fff" fill-rule="evenodd"/>
        <path id="Trazado_878378" data-name="Trazado 878378" d="M282.573,75.944A12.512,12.512,0,0,1,288.5,65.29V60H255v59.536h33.5V86.6A12.581,12.581,0,0,1,282.573,75.944Zm-7.39,16.882v7.916a1.105,1.105,0,0,1-1.125,1.125h-4.652a1.129,1.129,0,0,1-1.125-1.125V92.825a1.154,1.154,0,0,1,1.125-1.125h4.652A1.129,1.129,0,0,1,275.183,92.825Zm-5.777,12.943h4.652a1.105,1.105,0,0,1,1.125,1.125v7.916a1.129,1.129,0,0,1-1.125,1.125h-4.652a1.154,1.154,0,0,1-1.125-1.125v-7.916A1.129,1.129,0,0,1,269.406,105.768Zm5.777-26.973v7.878a1.105,1.105,0,0,1-1.125,1.125h-4.652a1.129,1.129,0,0,1-1.125-1.125V78.795a1.129,1.129,0,0,1,1.125-1.125h4.652A1.105,1.105,0,0,1,275.183,78.795Zm0-14.068v7.916a1.129,1.129,0,0,1-1.125,1.125h-4.652a1.154,1.154,0,0,1-1.125-1.125V64.727a1.129,1.129,0,0,1,1.125-1.125h4.652A1.105,1.105,0,0,1,275.183,64.727Z" transform="translate(-198.272 -57.749)" fill="#4d4d4d" fill-rule="evenodd"/>
        <path id="Trazado_878379" data-name="Trazado 878379" d="M1208,60v4.2a13.055,13.055,0,0,1,3.226-.75V60Z" transform="translate(-1115.52 -57.749)" fill="#ffa721" fill-rule="evenodd"/>
        <path id="Trazado_878380" data-name="Trazado 878380" d="M1211.226,850.777,1208,845v30.087h3.226Z" transform="translate(-1115.52 -813.3)" fill="#fec009" fill-rule="evenodd"/>
        <path id="Trazado_878381" data-name="Trazado 878381" d="M112.226,119.536V60H109v59.536Z" transform="translate(-57.749 -57.749)" fill="#fec009" fill-rule="evenodd"/>
        <g id="Grupo_1102011" data-name="Grupo 1102011" transform="translate(72.259 8.103)">
          <path id="Trazado_878382" data-name="Trazado 878382" d="M669,216v5.665h2.4V216Z" transform="translate(-669 -216)" fill="#ededed" fill-rule="evenodd"/>
          <path id="Trazado_878383" data-name="Trazado 878383" d="M671.4,591H669v5.627h2.4Z" transform="translate(-669 -576.932)" fill="#ededed" fill-rule="evenodd"/>
          <path id="Trazado_878384" data-name="Trazado 878384" d="M671.4,965H669v5.665h2.4Z" transform="translate(-669 -936.901)" fill="#ededed" fill-rule="evenodd"/>
          <path id="Trazado_878385" data-name="Trazado 878385" d="M671.4,1340H669v5.665h2.4Z" transform="translate(-669 -1297.833)" fill="#ededed" fill-rule="evenodd"/>
        </g>
      </g>
    </g>
  </g>
</svg>
