<svg xmlns="http://www.w3.org/2000/svg" width="100" height="100" viewBox="0 0 100 100">
  <g id="Grupo_1103383" data-name="Grupo 1103383" transform="translate(-910.211 -4894)">
    <g id="Rect치ngulo_400907" data-name="Rect치ngulo 400907" transform="translate(910.211 4894)" fill="none" stroke="#1f3b5f" stroke-linecap="round" stroke-width="2" stroke-dasharray="7">
      <rect width="100" height="100" rx="50" stroke="none"/>
      <rect x="1" y="1" width="98" height="98" rx="49" fill="none"/>
    </g>
    <g id="Grupo_1102098" data-name="Grupo 1102098">
      <g id="Rect치ngulo_400898" data-name="Rect치ngulo 400898" transform="translate(910.211 4894)" fill="#4e93ee" stroke="#fff" stroke-width="3" opacity="0.859">
        <rect width="100" height="100" rx="50" stroke="none"/>
        <rect x="1.5" y="1.5" width="97" height="97" rx="48.5" fill="none"/>
      </g>
      <g id="estatua" transform="translate(929.205 4911.648)">
        <path id="Trazado_878594" data-name="Trazado 878594" d="M366.237,216.038c0,1.131-.01,2.176-.042,3.136a21.659,21.659,0,0,0-3.168-2.219,23.556,23.556,0,0,0-13.355-3.04v-.043a7.471,7.471,0,0,0-.1-1.088,5.266,5.266,0,0,0-.3-1.066c-.043-.107-.085-.2-.128-.3a4.068,4.068,0,0,0-.49-.715.962.962,0,0,0-.2-.213.8.8,0,0,0-.224-.2.966.966,0,0,0-.245-.181,2.4,2.4,0,0,0-.277-.171c-.064-.256-.128-.523-.213-.789-.01-.043-.032-.1-.043-.139l.118-.032a41.316,41.316,0,0,1,13.056-3.03,27.485,27.485,0,0,1,4.288.064l.213-.043A46.14,46.14,0,0,1,366.237,216.038Zm0,0" transform="translate(-303.297 -179.42)" fill="#d84315"/>
        <path id="Trazado_878595" data-name="Trazado 878595" d="M363.037,216.415c0,.309,0,.619-.01.917a23.556,23.556,0,0,0-13.355-3.04v-.043a7.471,7.471,0,0,0-.1-1.088,5.266,5.266,0,0,0-.3-1.066c-.043-.107-.085-.2-.128-.3a4.069,4.069,0,0,0-.49-.715.962.962,0,0,0-.2-.213.8.8,0,0,0-.224-.2.966.966,0,0,0-.245-.181,2.4,2.4,0,0,0-.277-.171c-.064-.256-.128-.523-.213-.789-.01-.043-.032-.1-.043-.139l.118-.032a41.315,41.315,0,0,1,13.056-3.03c.363,0,.725.032,1.088.064l.213-.043A46.138,46.138,0,0,1,363.037,216.415Zm0,0" transform="translate(-303.297 -179.797)" fill="#dc1b12"/>
        <path id="Trazado_878596" data-name="Trazado 878596" d="M27.229,208.99c-.011.043-.032.1-.043.139-.085.267-.149.534-.213.789a2.451,2.451,0,0,0-.278.171.976.976,0,0,0-.245.181.8.8,0,0,0-.224.2.948.948,0,0,0-.2.213,4.041,4.041,0,0,0-.491.715c-.043.1-.085.192-.128.3a5.268,5.268,0,0,0-.3,1.066,6.249,6.249,0,0,0-.1,1.088v.043a23.146,23.146,0,0,0-16.522,5.259c-.032-.96-.043-2.005-.043-3.136A46.14,46.14,0,0,1,9.554,205.95l.213.043c6.837-.64,13.408,1.376,17.344,2.966Zm0,0" transform="translate(-7.372 -179.401)" fill="#fec009"/>
        <path id="Trazado_878597" data-name="Trazado 878597" d="M377.993,273.931c-.043,1.3-.1,2.453-.171,3.456a3.2,3.2,0,0,1-5.526,1.92.4.4,0,0,0-.074-.064,17.424,17.424,0,0,0-8.949-5.013,9.907,9.907,0,0,0-1.237-.181c-.352-.032-.715-.054-1.067-.054v-2.133a1.044,1.044,0,0,0,.043-.149,2.36,2.36,0,0,0,.074-.245,1.94,1.94,0,0,1,.054-.2c.021-.1.053-.2.074-.32.064-.309.128-.661.181-1.067.021-.171.032-.362.054-.555.01-.213.021-.427.021-.651a24.751,24.751,0,0,1,7.125.576A22.287,22.287,0,0,1,377.993,273.931Zm0,0" transform="translate(-315.095 -234.177)" fill="#fdd834"/>
        <path id="Trazado_878598" data-name="Trazado 878598" d="M374.835,272.95c-.043,1.3-.1,2.454-.171,3.456a3.093,3.093,0,0,1-2.442,2.838c-1.035.245-1.845-1.152-2.72-2.048-1.654-1.7-4.043-2.016-6.23-2.965a15.171,15.171,0,0,0-2.3-.8v-1.568a1.044,1.044,0,0,0,.043-.149,2.36,2.36,0,0,0,.074-.245,1.94,1.94,0,0,1,.054-.2c.021-.1.053-.2.074-.32.064-.309.128-.661.181-1.067.021-.171.032-.362.054-.555.01-.213.021-.427.021-.651a24.751,24.751,0,0,1,7.125.576A22.01,22.01,0,0,1,374.835,272.95Zm0,0" transform="translate(-315.095 -234.177)" fill="#fec009"/>
        <path id="Trazado_878599" data-name="Trazado 878599" d="M25.8,271.756v2.133c-.352,0-.714.021-1.067.054A17.066,17.066,0,0,0,14.477,279.2a3.2,3.2,0,0,1-5.526-1.92c-.074-1-.128-2.154-.17-3.456A23.146,23.146,0,0,1,25.3,268.567c0,.224.011.437.021.651.011.192.032.384.054.555.053.406.117.758.181,1.067.021.117.053.224.074.32a1.941,1.941,0,0,1,.054.2,2.366,2.366,0,0,0,.074.245A1.116,1.116,0,0,0,25.8,271.756Zm0,0" transform="translate(-7.665 -234.071)" fill="#dc1b12"/>
        <path id="Trazado_878600" data-name="Trazado 878600" d="M263.262,295.466A4.267,4.267,0,0,1,259,299.732a4,4,0,0,1-1.6-.32,4.267,4.267,0,0,0-1.6-8.213v-5.334a4.258,4.258,0,0,0-3.2-4.128,3.908,3.908,0,0,0-1.066-.139v-2.133a49.362,49.362,0,0,0-12.267-2.1q.784-.032,1.6-.032a49.088,49.088,0,0,1,13.867,2.134V281.6a3.911,3.911,0,0,1,1.067.139,4.257,4.257,0,0,1,3.2,4.128V291.2a4.267,4.267,0,0,1,4.267,4.267Zm0,0" transform="translate(-208.855 -241.781)" fill="#f57c00"/>
        <path id="Trazado_878601" data-name="Trazado 878601" d="M117.333,295.687a4.244,4.244,0,0,1-2.667,3.947A4.243,4.243,0,0,1,112,295.687v-1.067a9.207,9.207,0,0,1-1.195,4.672,7.323,7.323,0,0,1-.586.907v.01a7.128,7.128,0,0,1-.523.629c-.011,0-.011,0,0,.01a9.959,9.959,0,0,1-1.846,1.632c-.128.085-.256.181-.395.267-.1.064-.192.128-.3.192-.235.139-.48.277-.725.416-.267.138-.555.277-.843.405-.235.107-.469.2-.715.3-.032.011-.074.032-.106.043-.224.085-.459.171-.7.245a18.463,18.463,0,0,1-2.517.64c-.288.043-.576.1-.853.128-.245.032-.49.064-.736.085-.608.054-1.227.085-1.824.085h-.107c-.491,0-1-.021-1.5-.064-.074-.01-.139-.01-.213-.021-.245-.021-.48-.053-.725-.085h-.01c-.278-.032-.565-.085-.853-.128a18.463,18.463,0,0,1-2.517-.64c-.235-.074-.47-.16-.7-.245-.032-.01-.074-.032-.106-.043-.246-.1-.48-.192-.715-.3-.288-.128-.576-.267-.843-.405-.245-.139-.49-.277-.725-.416s-.469-.3-.693-.459a9.959,9.959,0,0,1-1.846-1.632c.011-.01.011-.01,0-.01a7.041,7.041,0,0,1-.522-.629v-.01a9.148,9.148,0,0,1-1.782-5.579v1.067a4.228,4.228,0,0,1-2.005,3.605,4.129,4.129,0,0,1-2.262.661,4,4,0,0,1-1.6-.32,4.267,4.267,0,0,1,1.6-8.213v-5.334a4.257,4.257,0,0,1,3.2-4.128,3.911,3.911,0,0,1,1.067-.139v-2.133a49.362,49.362,0,0,1,12.267-2.1,49.362,49.362,0,0,1,12.267,2.1v2.133a3.908,3.908,0,0,1,1.066.139,4.258,4.258,0,0,1,3.2,4.128v5.334A4.267,4.267,0,0,1,117.333,295.687Zm0,0" transform="translate(-66.126 -242.002)" fill="#fec009"/>
        <path id="Trazado_878602" data-name="Trazado 878602" d="M234.538,290.132a1.066,1.066,0,0,1-1.045,1.291h-3.754a1.066,1.066,0,0,1-1.045-1.291l1.728-7.562,1.195-5.238Zm0,0" transform="translate(-199.609 -241.781)" fill="#ffb301"/>
        <path id="Trazado_878603" data-name="Trazado 878603" d="M231.114,327.4h-1.376a1.066,1.066,0,0,1-1.045-1.291l1.728-7.562,1.728,7.562a1.067,1.067,0,0,1-1.035,1.291Zm0,0" transform="translate(-199.609 -277.758)" fill="#fec108"/>
        <path id="Trazado_878604" data-name="Trazado 878604" d="M167.529,224.946v.043c0,.224-.011.437-.021.651-.021.192-.032.384-.054.555-.053.406-.117.758-.181,1.067-.032.117-.053.224-.074.32a1.937,1.937,0,0,0-.054.2c-.032.1-.053.181-.074.245a1.048,1.048,0,0,1-.043.149s-.906-.3-2.443-.683a49.462,49.462,0,0,0-11.424-1.451c-.416,0-.832.011-1.248.021h-.139a49.243,49.243,0,0,0-12.48,2.112,1.116,1.116,0,0,1-.043-.149c-.021-.064-.043-.149-.074-.245a1.936,1.936,0,0,0-.054-.2c-.01-.032-.01-.053-.021-.085a2.226,2.226,0,0,0-.053-.235c-.064-.309-.128-.661-.181-1.067-.021-.171-.032-.362-.054-.555-.01-.213-.021-.427-.021-.651v-.043a7.47,7.47,0,0,1,.1-1.088,5.266,5.266,0,0,1,.3-1.066c.043-.107.085-.2.128-.3a4.04,4.04,0,0,1,.491-.715c.064-.074.128-.138.2-.213a2.116,2.116,0,0,1,.224-.2,2.183,2.183,0,0,1,.245-.181,2.449,2.449,0,0,1,.277-.171,3.855,3.855,0,0,1,.672-.3,49.3,49.3,0,0,1,10.389-2.091.048.048,0,0,0,.054,0c.459-.021.885-.043,1.291-.043a45.346,45.346,0,0,1,11.733,2.134,3.854,3.854,0,0,1,.672.3,2.408,2.408,0,0,1,.277.171,2.184,2.184,0,0,1,.245.181,2.118,2.118,0,0,1,.224.2c.075.074.139.138.2.213a4.064,4.064,0,0,1,.49.715c.043.1.085.192.128.3a5.266,5.266,0,0,1,.3,1.066A7.47,7.47,0,0,1,167.529,224.946Zm0,0" transform="translate(-121.154 -190.494)" fill="#33501e"/>
        <path id="Trazado_878605" data-name="Trazado 878605" d="M164.894,225.239v.043c0,.224-.01.437-.021.651-.021.192-.032.384-.053.555-.053.406-.117.758-.181,1.067a2.364,2.364,0,0,0-.054.235c-.01.032-.01.053-.021.085a1.936,1.936,0,0,0-.053.2c-.032.1-.054.181-.074.245a1.194,1.194,0,0,1-.043.149,49.242,49.242,0,0,0-12.48-2.112h-.139c-.416-.01-.832-.021-1.248-.021a49.466,49.466,0,0,0-11.424,1.451,2.225,2.225,0,0,0-.053-.235c-.064-.309-.128-.661-.181-1.067-.021-.171-.032-.362-.054-.555-.01-.213-.021-.427-.021-.651v-.043a7.47,7.47,0,0,1,.1-1.088,5.266,5.266,0,0,1,.3-1.066c.043-.107.085-.2.128-.3a4.04,4.04,0,0,1,.491-.715c.064-.074.128-.139.2-.213a2.113,2.113,0,0,1,.224-.2,2.181,2.181,0,0,1,.245-.181,2.446,2.446,0,0,1,.277-.171,3.857,3.857,0,0,1,.672-.3,49.293,49.293,0,0,1,10.389-2.091.048.048,0,0,0,.054,0A49.293,49.293,0,0,1,162.26,221a3.873,3.873,0,0,1,.672.3,2.4,2.4,0,0,1,.277.171,3,3,0,0,1,.47.384c.074.074.139.138.2.213a4.067,4.067,0,0,1,.491.715c.043.1.085.192.128.3a5.267,5.267,0,0,1,.3,1.066A7.474,7.474,0,0,1,164.894,225.239Zm0,0" transform="translate(-121.154 -190.787)" fill="#81c74d"/>
        <path id="Trazado_878606" data-name="Trazado 878606" d="M179.049,169.723a3.854,3.854,0,0,0-.672-.3c-.629-.213-1.344-.416-2.112-.629a43.469,43.469,0,0,0-9.621-1.5c-.384,0-.8.011-1.238.043h-.053a48.448,48.448,0,0,0-10.443,2.091,3.854,3.854,0,0,0-.672.3c.064-.256.138-.512.213-.789.01-.043.032-.1.043-.139.021-.1.064-.2.1-.309.021-.054.043-.128.064-.192.117-.331.235-.661.384-1s.31-.7.491-1.045c.107-.2.213-.395.331-.587a1.288,1.288,0,0,1,.064-.118c.107-.192.235-.373.352-.565.043-.064.085-.118.128-.182.107-.149.213-.3.331-.448v-.011c.16-.2.32-.395.49-.586.128-.149.256-.288.395-.427a10.937,10.937,0,0,1,1.846-1.536c.352-.224.714-.437,1.109-.64.192-.1.395-.192.6-.278a12.774,12.774,0,0,1,3.914-.97l.267-.032c.021,0,.032.011.053,0,.107,0,.213-.01.331-.01.288-.021.6-.032.907-.032s.619.011.906.032a6.347,6.347,0,0,1,.651.043,12.774,12.774,0,0,1,3.914.97c.2.085.406.181.6.278.395.2.757.416,1.109.64a10.937,10.937,0,0,1,1.846,1.536c.138.138.267.277.395.427.171.192.331.395.49.6.118.149.224.3.331.448.043.064.085.118.128.182.117.192.245.373.352.565a1.284,1.284,0,0,1,.064.118c.117.192.224.384.331.587.181.341.342.693.491,1.045.17.406.32.811.448,1.195.032.1.054.181.085.277,0,.01.01.021.01.032.011.043.032.1.043.139C178.91,169.211,178.985,169.467,179.049,169.723Zm0,0" transform="translate(-134.637 -139.206)" fill="#f57c00"/>
        <path id="Trazado_878607" data-name="Trazado 878607" d="M178.281,170.016a3.871,3.871,0,0,0-.672-.3,48.573,48.573,0,0,0-10.443-2.091h-.053c-.437-.032-.853-.043-1.238-.043a43.463,43.463,0,0,0-9.621,1.5c.021-.1.064-.2.1-.309.021-.054.043-.128.064-.192.117-.331.235-.661.384-1s.31-.7.491-1.045c.107-.2.213-.395.331-.587a1.29,1.29,0,0,1,.064-.118c.107-.192.235-.373.352-.565.043-.064.085-.118.128-.182.107-.149.213-.3.331-.448v-.011c.16-.2.32-.395.49-.586.128-.149.256-.288.395-.427a10.937,10.937,0,0,1,1.846-1.536c.352-.224.714-.437,1.109-.64.192-.1.395-.192.6-.277a12.774,12.774,0,0,1,3.914-.97l.267-.032c.021,0,.032.011.053,0l.267.032a12.774,12.774,0,0,1,3.915.97c.2.085.406.181.6.277.395.2.758.416,1.109.64a10.934,10.934,0,0,1,1.845,1.536c.139.139.267.277.395.427.171.192.331.395.491.6.117.149.224.3.331.448.043.064.085.118.128.182.117.192.245.373.352.565.021.043.053.085.064.118.117.192.224.384.331.587.181.341.341.693.49,1.045.171.406.32.811.448,1.195.032.1.053.181.085.277,0,.01.01.021.01.032.01.043.032.1.043.139C178.142,169.5,178.217,169.76,178.281,170.016Zm0,0" transform="translate(-136.396 -139.5)" fill="#fec009"/>
        <path id="Trazado_878608" data-name="Trazado 878608" d="M263.933,455.527c-2.6,3.509-7.6,5.088-12.078,5.088h16.405A11.767,11.767,0,0,0,263.933,455.527Zm0,0" transform="translate(-219.848 -397.33)" fill="#fec108"/>
        <path id="Trazado_878609" data-name="Trazado 878609" d="M139.167,460.615c-4.48,0-9.482-1.579-12.078-5.088a11.764,11.764,0,0,0-4.328,5.088Zm0,0" transform="translate(-107.16 -397.33)" fill="#fec108"/>
        <path id="Trazado_878610" data-name="Trazado 878610" d="M346.374,144.433l-.213.043a25.163,25.163,0,0,0-2.965-.107,35.374,35.374,0,0,0-8.363,1.12,45.436,45.436,0,0,0-6.016,1.952l-.118.032c-.042-.139-.085-.277-.139-.416a13.544,13.544,0,0,0-2.592-4.629l.053-.043a45.1,45.1,0,0,1,13.024-6.2,26.371,26.371,0,0,1,4.288-.79A41.365,41.365,0,0,1,346.374,144.433Zm0,0" transform="translate(-284.543 -117.885)" fill="#fdd834"/>
        <path id="Trazado_878611" data-name="Trazado 878611" d="M343.355,149.386l-.213.043a31.857,31.857,0,0,0-8.309.384,42.009,42.009,0,0,0-6.272,1.568,13.544,13.544,0,0,0-2.592-4.629l.053-.043a45.1,45.1,0,0,1,13.024-6.2c.427-.064.843-.118,1.269-.16a40.668,40.668,0,0,1,2.88,8.341C343.26,148.928,343.3,149.163,343.355,149.386Zm0,0" transform="translate(-284.543 -122.208)" fill="#fec009"/>
        <path id="Trazado_878612" data-name="Trazado 878612" d="M316.222,65.65a23.967,23.967,0,0,0-2.752.427,42.766,42.766,0,0,0-14.154,6.293c-.139.085-.277.182-.406.267l-.053.043-.021-.021A11.1,11.1,0,0,0,294.91,69.8c1.877-3.168,5.867-9.109,11.222-12.864a20.163,20.163,0,0,1,2.123-1.333l.085-.106A28.576,28.576,0,0,1,316.222,65.65Zm0,0" transform="translate(-257.432 -48.137)" fill="#d84315"/>
        <path id="Trazado_878613" data-name="Trazado 878613" d="M313.972,76.947c-5.589.533-10.987,3.125-14.656,5.312-.16.085-.331.192-.48.288a11.1,11.1,0,0,0-3.926-2.859c1.877-3.168,5.867-9.109,11.222-12.864a28.022,28.022,0,0,1,7.339,9.142C313.652,76.286,313.812,76.617,313.972,76.947Zm0,0" transform="translate(-257.432 -58.025)" fill="#dc1b12"/>
        <path id="Trazado_878614" data-name="Trazado 878614" d="M270.757,14.674l-.085.106c-6.421,3.52-11.222,10.624-13.344,14.2-.384-.16-.778-.309-1.194-.437a14.476,14.476,0,0,0-4.277-.608V8.732a35.21,35.21,0,0,1,9.013,1.088c.736.181,1.44.395,2.112.629A25.692,25.692,0,0,1,270.757,14.674Zm0,0" transform="translate(-219.848 -7.314)" fill="#fdd834"/>
        <path id="Trazado_878615" data-name="Trazado 878615" d="M268.623,23.686l-.085.107c-5.6,3.072-9.974,8.875-12.406,12.672a14.476,14.476,0,0,0-4.277-.608V17.809a32.691,32.691,0,0,1,6.88,1.024c.736.181,1.44.395,2.112.629A25.714,25.714,0,0,1,268.623,23.686Zm0,0" transform="translate(-219.848 -15.239)" fill="#fec009"/>
        <path id="Trazado_878616" data-name="Trazado 878616" d="M122.023,8.732v19.2a13.671,13.671,0,0,0-5.472,1.045c-2.123-3.573-6.923-10.678-13.344-14.2l-.085-.106A25.693,25.693,0,0,1,110.9,10.45c.672-.235,1.376-.448,2.112-.629A35.211,35.211,0,0,1,122.023,8.732Zm0,0" transform="translate(-90.016 -7.314)" fill="#dc1b12"/>
        <path id="Trazado_878617" data-name="Trazado 878617" d="M62.406,69.8a11.015,11.015,0,0,0-3.947,2.88l-.053-.043c-3.285-2.229-10.144-6.3-17.312-6.987A28.576,28.576,0,0,1,48.976,55.5l.085.106C55.483,59.122,60.283,66.227,62.406,69.8Zm0,0" transform="translate(-35.871 -48.137)" fill="#fec009"/>
        <path id="Trazado_878618" data-name="Trazado 878618" d="M37.577,142.428a13.671,13.671,0,0,0-2.73,5.045l-.118-.032c-3.936-1.59-10.507-3.605-17.344-2.966l-.213-.043a40.787,40.787,0,0,1,3.04-9.035c7.168.683,14.027,4.758,17.312,6.987Zm0,0" transform="translate(-14.989 -117.885)" fill="#dc1b12"/>
        <path id="Trazado_878619" data-name="Trazado 878619" d="M160.5,322.5a1.066,1.066,0,0,1-.478-2.026,15.255,15.255,0,0,1,5.811-1.174,1.067,1.067,0,1,1,0,2.133,13.267,13.267,0,0,0-4.857.96A1.068,1.068,0,0,1,160.5,322.5Zm0,0" transform="translate(-139.163 -278.416)"/>
        <path id="Trazado_878620" data-name="Trazado 878620" d="M226.169,285.158h-3.761a2.133,2.133,0,0,1-2.085-2.58l2.926-12.814a1.067,1.067,0,0,1,2.08,0l2.922,12.8v.014a2.134,2.134,0,0,1-2.085,2.58Zm-1.88-10.365-1.884,8.247,3.764-.015Zm0,0" transform="translate(-192.282 -234.45)"/>
        <path id="Trazado_878621" data-name="Trazado 878621" d="M102.922,412.7a1.067,1.067,0,1,1-1.066-1.067A1.067,1.067,0,0,1,102.922,412.7Zm0,0" transform="translate(-87.98 -359.011)"/>
        <path id="Trazado_878622" data-name="Trazado 878622" d="M135.411,311.045a1.067,1.067,0,0,1-1.067-1.066v-6.4a1.067,1.067,0,1,1,2.134,0v6.4A1.067,1.067,0,0,1,135.411,311.045Zm0,0" transform="translate(-117.271 -263.761)"/>
        <path id="Trazado_878623" data-name="Trazado 878623" d="M135.411,390.716a1.067,1.067,0,0,1-1.067-1.067v-2.134a1.067,1.067,0,0,1,2.134,0v2.134A1.067,1.067,0,0,1,135.411,390.716Zm0,0" transform="translate(-117.271 -337.031)"/>
        <path id="Trazado_878624" data-name="Trazado 878624" d="M213.229,448.439a1.064,1.064,0,0,1-.476-.107,12.958,12.958,0,0,0-4.857-.96,13.258,13.258,0,0,0-4.855.96,1.067,1.067,0,1,1-.954-1.909,14.9,14.9,0,0,1,11.618,0,1.067,1.067,0,0,1-.476,2.016Zm0,0" transform="translate(-175.889 -388.354)"/>
        <path id="Trazado_878625" data-name="Trazado 878625" d="M213.229,414.865a1.064,1.064,0,0,1-.476-.107,12.959,12.959,0,0,0-4.857-.96,13.268,13.268,0,0,0-4.855.96,1.067,1.067,0,1,1-.954-1.909,14.9,14.9,0,0,1,11.618,0,1.067,1.067,0,0,1-.476,2.016Zm0,0" transform="translate(-175.889 -359.047)"/>
        <path id="Trazado_878626" data-name="Trazado 878626" d="M291.826,322.5a1.068,1.068,0,0,1-.476-.107,13.267,13.267,0,0,0-4.857-.96,1.067,1.067,0,1,1,0-2.133,15.248,15.248,0,0,1,5.81,1.174,1.066,1.066,0,0,1-.477,2.026Zm0,0" transform="translate(-249.153 -278.416)"/>
        <path id="Trazado_878627" data-name="Trazado 878627" d="M132.016,221.92a1.067,1.067,0,0,1-1.011-.727c-.052-.154-1.255-3.818.071-6.478a4.546,4.546,0,0,1,2.736-2.34,46.684,46.684,0,0,1,12.07-2.188,46.665,46.665,0,0,1,12.068,2.188,4.546,4.546,0,0,1,2.736,2.34c1.327,2.659.124,6.323.071,6.478a1.067,1.067,0,0,1-1.347.673,45.054,45.054,0,0,0-27.056,0A1.063,1.063,0,0,1,132.016,221.92Zm13.867-9.6a44.147,44.147,0,0,0-11.394,2.079,2.453,2.453,0,0,0-1.5,1.267,6.493,6.493,0,0,0-.213,3.84,47.234,47.234,0,0,1,26.213,0c.3-1.536.533-4.365-1.707-5.112A44.173,44.173,0,0,0,145.883,212.321Zm0,0" transform="translate(-113.876 -183.169)"/>
        <path id="Trazado_878628" data-name="Trazado 878628" d="M171.723,163.462a1.067,1.067,0,0,1-.513-.132,2.965,2.965,0,0,0-.5-.213,44.147,44.147,0,0,0-11.394-2.084,44.147,44.147,0,0,0-11.394,2.079,2.967,2.967,0,0,0-.5.213,1.067,1.067,0,0,1-1.551-1.184c.773-3.216,3.629-10.708,13.443-10.708s12.669,7.492,13.44,10.713a1.066,1.066,0,0,1-1.038,1.316Zm-12.4-4.562a45.885,45.885,0,0,1,10.755,1.783c-1.27-3.256-4.167-7.117-10.755-7.117s-9.485,3.861-10.755,7.117A45.884,45.884,0,0,1,159.319,158.9Zm0,0" transform="translate(-127.312 -131.882)"/>
        <path id="Trazado_878629" data-name="Trazado 878629" d="M90.664,298.808c-5.7,0-11.752-2.309-14.01-7.285a5.333,5.333,0,1,1-5.19-8.608v-4.373a5.342,5.342,0,0,1,4.266-5.227v-1.173a1.067,1.067,0,0,1,.73-1.012,47.2,47.2,0,0,1,28.406,0,1.067,1.067,0,0,1,.732,1.012v1.173a5.343,5.343,0,0,1,4.267,5.227v4.373a5.333,5.333,0,1,1-5.189,8.607C102.416,296.5,96.368,298.808,90.664,298.808ZM76.8,286.008a1.067,1.067,0,0,1,1.067,1.067c0,6.6,6.635,9.6,12.8,9.6s12.8-3,12.8-9.6a1.067,1.067,0,1,1,2.134,0v1.067a3.2,3.2,0,1,0,3.2-3.2,1.067,1.067,0,0,1-1.067-1.066v-5.334a3.2,3.2,0,0,0-3.2-3.2,1.067,1.067,0,0,1-1.067-1.067v-1.342a48.8,48.8,0,0,0-12.8-1.858,48.737,48.737,0,0,0-12.8,1.857v1.343a1.067,1.067,0,0,1-1.067,1.067,3.2,3.2,0,0,0-3.2,3.2v5.334a1.067,1.067,0,0,1-1.067,1.066,3.2,3.2,0,1,0,3.2,3.2v-1.067A1.067,1.067,0,0,1,76.8,286.008Zm0,0" transform="translate(-58.657 -234.456)"/>
        <path id="Trazado_878630" data-name="Trazado 878630" d="M388.266,412.7a1.067,1.067,0,1,1-1.066-1.067A1.067,1.067,0,0,1,388.266,412.7Zm0,0" transform="translate(-337.061 -359.011)"/>
        <path id="Trazado_878631" data-name="Trazado 878631" d="M353.641,311.045a1.067,1.067,0,0,1-1.067-1.066v-6.4a1.067,1.067,0,1,1,2.134,0v6.4A1.067,1.067,0,0,1,353.641,311.045Zm0,0" transform="translate(-307.768 -263.761)"/>
        <path id="Trazado_878632" data-name="Trazado 878632" d="M260.933,454.351H244.528a1.067,1.067,0,0,1,0-2.134c3.759,0,8.681-1.222,11.22-4.656a1.067,1.067,0,0,1,1.462-.244,12.856,12.856,0,0,1,4.709,5.56,1.067,1.067,0,0,1-.986,1.473Zm-7.477-2.134h5.706a11.233,11.233,0,0,0-2.379-2.56A12.41,12.41,0,0,1,253.456,452.217Zm0,0" transform="translate(-212.521 -389.999)"/>
        <path id="Trazado_878633" data-name="Trazado 878633" d="M131.838,454.351H115.432a1.067,1.067,0,0,1-.986-1.473,12.86,12.86,0,0,1,4.709-5.56,1.067,1.067,0,0,1,1.462.244c2.539,3.434,7.461,4.656,11.221,4.656a1.067,1.067,0,0,1,0,2.134ZM117.2,452.217h5.706a12.41,12.41,0,0,1-3.327-2.56A11.233,11.233,0,0,0,117.2,452.217Zm0,0" transform="translate(-99.831 -389.999)"/>
        <path id="Trazado_878634" data-name="Trazado 878634" d="M1.468,267.588A1.067,1.067,0,0,1,.782,265.7a24.2,24.2,0,0,1,17.28-5.5,1.069,1.069,0,0,1-.132,2.134,22.071,22.071,0,0,0-15.776,5.013A1.062,1.062,0,0,1,1.468,267.588Zm0,0" transform="translate(-0.349 -226.766)"/>
        <path id="Trazado_878635" data-name="Trazado 878635" d="M28.865,203.043a1.065,1.065,0,0,1-.4-.077,37.181,37.181,0,0,0-16.845-2.889,1.067,1.067,0,1,1-.2-2.125,39.282,39.282,0,0,1,17.845,3.037,1.067,1.067,0,0,1-.4,2.057Zm0,0" transform="translate(-9.125 -172.419)"/>
        <path id="Trazado_878636" data-name="Trazado 878636" d="M51.537,136.195a1.065,1.065,0,0,1-.6-.185c-3.328-2.261-9.939-6.154-16.813-6.8a1.067,1.067,0,0,1,.2-2.12c7.349.7,14.313,4.786,17.814,7.164a1.067,1.067,0,0,1-.6,1.949Zm0,0" transform="translate(-29.004 -110.628)"/>
        <path id="Trazado_878637" data-name="Trazado 878637" d="M109.473,64.127a1.067,1.067,0,0,1-.917-.521c-2.21-3.714-6.83-10.441-12.946-13.8a1.067,1.067,0,1,1,1.027-1.867c6.559,3.6,11.433,10.68,13.752,14.581a1.067,1.067,0,0,1-.915,1.612Zm0,0" transform="translate(-82.935 -41.4)"/>
        <path id="Trazado_878638" data-name="Trazado 878638" d="M59.539,47.207a4.332,4.332,0,0,1-3.106-1.324c-3.059-3.13-7.009-5-10.56-5a1.067,1.067,0,0,1-1.067-1.067V37.685a1.094,1.094,0,0,1,.055-.337c.015-.045,1.477-4.558-.96-5.9a1.066,1.066,0,0,1-.523-.685c-.812-3.391-3.372-9.079-11.372-9.079S21.452,27.372,20.64,30.763a1.068,1.068,0,0,1-.523.685c-2.415,1.328-.979,5.853-.96,5.9a1.094,1.094,0,0,1,.049.34v2.133a1.067,1.067,0,0,1-1.067,1.067c-3.553,0-7.5,1.868-10.56,5a4.308,4.308,0,0,1-4.6,1.056A4.167,4.167,0,0,1,.22,43.285C.081,41.393.007,39.149.007,36.618c-.021-.666-.4-17.184,9.885-27.785C15.356,3.2,22.795.352,32.007.352S48.657,3.2,54.118,8.833c10.284,10.6,9.907,27.119,9.889,27.817,0,2.5-.07,4.742-.213,6.635a4.167,4.167,0,0,1-2.75,3.653A4.344,4.344,0,0,1,59.539,47.207ZM46.94,38.8a18.172,18.172,0,0,1,11.024,5.591,2.2,2.2,0,0,0,2.347.547,2.034,2.034,0,0,0,1.349-1.81c.137-1.841.205-4.031.205-6.507,0-.194.363-16.367-9.292-26.308C47.536,5.117,40.614,2.485,32.007,2.485S16.471,5.12,11.426,10.319C1.765,20.278,2.14,36.424,2.14,36.586c0,2.511.069,4.7.205,6.542a2.033,2.033,0,0,0,1.361,1.81,2.192,2.192,0,0,0,2.347-.546A18.171,18.171,0,0,1,17.073,38.8v-.951c-.3-1-1.546-5.844,1.6-8.013.917-3.413,3.934-10.282,13.333-10.282S44.422,26.423,45.34,29.834c3.145,2.169,1.9,7.009,1.6,8.013Zm0,0" transform="translate(0 0)"/>
        <path id="Trazado_878639" data-name="Trazado 878639" d="M244.528,21.685a1.067,1.067,0,0,1-1.067-1.067V1.418a1.067,1.067,0,0,1,2.133,0v19.2A1.067,1.067,0,0,1,244.528,21.685Zm0,0" transform="translate(-212.521)"/>
        <path id="Trazado_878640" data-name="Trazado 878640" d="M169.7,21.559a1.066,1.066,0,0,1-.991-.67,42.069,42.069,0,0,0-4.656-7.989,1.067,1.067,0,1,1,1.735-1.241,44.226,44.226,0,0,1,4.907,8.436,1.067,1.067,0,0,1-.6,1.387A1.052,1.052,0,0,1,169.7,21.559Zm0,0" transform="translate(-143.022 -9.475)"/>
        <path id="Trazado_878641" data-name="Trazado 878641" d="M374.051,267.529a1.058,1.058,0,0,1-.684-.248,22.072,22.072,0,0,0-15.776-5.013,1.069,1.069,0,0,1-.131-2.134,24.192,24.192,0,0,1,17.28,5.5,1.067,1.067,0,0,1-.686,1.885Zm0,0" transform="translate(-311.156 -226.707)"/>
        <path id="Trazado_878642" data-name="Trazado 878642" d="M341.039,203.026a1.066,1.066,0,0,1-.4-2.056,39.277,39.277,0,0,1,17.845-3.037,1.067,1.067,0,1,1-.2,2.125,37.163,37.163,0,0,0-16.847,2.891A1.065,1.065,0,0,1,341.039,203.026Zm0,0" transform="translate(-296.766 -172.402)"/>
        <path id="Trazado_878643" data-name="Trazado 878643" d="M319.063,136.142a1.067,1.067,0,0,1-.6-1.949c3.5-2.377,10.463-6.467,17.813-7.163a1.067,1.067,0,0,1,.2,2.124c-6.873.65-13.485,4.543-16.813,6.8A1.066,1.066,0,0,1,319.063,136.142Zm0,0" transform="translate(-277.582 -110.576)"/>
        <path id="Trazado_878644" data-name="Trazado 878644" d="M287.572,64.287a1.067,1.067,0,0,1-.915-1.611c2.319-3.9,7.193-10.987,13.752-14.581a1.067,1.067,0,1,1,1.027,1.871c-6.116,3.36-10.736,10.087-12.946,13.8A1.067,1.067,0,0,1,287.572,64.287Zm0,0" transform="translate(-250.096 -41.561)"/>
        <path id="Trazado_878645" data-name="Trazado 878645" d="M286.491,21.559a1.049,1.049,0,0,1-.4-.076,1.067,1.067,0,0,1-.6-1.387,44.2,44.2,0,0,1,4.907-8.436,1.067,1.067,0,1,1,1.735,1.241,42.04,42.04,0,0,0-4.656,7.989A1.066,1.066,0,0,1,286.491,21.559Zm0,0" transform="translate(-249.151 -9.475)"/>
      </g>
    </g>
  </g>
</svg>
