<svg xmlns="http://www.w3.org/2000/svg" width="62.504" height="62.504" viewBox="0 0 62.504 62.504">
  <g id="Grupo_1103376" data-name="Grupo 1103376" transform="translate(-923.711 -947.8)">
    <g id="Grupo_1072053" data-name="Grupo 1072053" transform="translate(923.711 947.8)">
      <circle id="Elipse_4742" data-name="Elipse 4742" cx="31.252" cy="31.252" r="31.252" transform="translate(0)" fill="#4e93ee"/>
    </g>
    <g id="de-madera" transform="translate(935.542 958.598)">
      <path id="Trazado_879098" data-name="Trazado 879098" d="M.5,71.314l3.357.117L35.59,67.42l2.826-3.872v-7.54L.589,62.776ZM32.7,60.346h2.411v2.411H32.7ZM4.345,65.489H6.756V67.9H4.345Zm0,0" transform="translate(0 -51.507)" fill="#12263f"/>
      <path id="Trazado_879099" data-name="Trazado 879099" d="M51.6,229.954,50.28,228.1l-31.154,3.938-2.752,3.367-.015,4.062,35.2-1.613Zm-29.058,6.818H20.135v-2.411h2.411Zm25.943-2.2H46.078v-2.411h2.411Zm0,0" transform="translate(-14.585 -209.772)" fill="#12263f"/>
      <path id="Trazado_879100" data-name="Trazado 879100" d="M158.559,386.51v9.557h12.5v-10.13Zm0,0" transform="translate(-145.358 -354.925)" fill="#12263f"/>
      <path id="Trazado_879101" data-name="Trazado 879101" d="M171.06,4.326V0h-12.5V6.563Zm0,0" transform="translate(-145.358)" fill="#12263f"/>
    </g>
  </g>
</svg>
