<svg xmlns="http://www.w3.org/2000/svg" width="100" height="100" viewBox="0 0 100 100">
  <g id="Grupo_1103383" data-name="Grupo 1103383" transform="translate(258.5 6806)">
    <g id="Rect치ngulo_400898" data-name="Rect치ngulo 400898" transform="translate(-258.5 -6806)" fill="#4e93ee" stroke="#fff" stroke-width="3" opacity="0.859">
      <rect width="100" height="100" rx="50" stroke="none"/>
      <rect x="1.5" y="1.5" width="97" height="97" rx="48.5" fill="none"/>
    </g>
    <g id="Rect치ngulo_400907" data-name="Rect치ngulo 400907" transform="translate(-258.5 -6806)" fill="none" stroke="#1f3b5f" stroke-linecap="round" stroke-width="2" stroke-dasharray="7">
      <rect width="100" height="100" rx="50" stroke="none"/>
      <rect x="1" y="1" width="98" height="98" rx="49" fill="none"/>
    </g>
    <g id="impacto-ambiental" transform="translate(-294.025 -6790.999)">
      <path id="Trazado_878674" data-name="Trazado 878674" d="M103.9,17.492l2.742-1.839a1.106,1.106,0,0,1,1.409.137l4.244,4.244a1.106,1.106,0,0,1,.137,1.409L110.6,24.185l2.332,5.63,3.239.639a1.106,1.106,0,0,1,.9,1.093v6a1.106,1.106,0,0,1-.9,1.093l-3.239.638L110.6,44.91l1.839,2.742a1.106,1.106,0,0,1-.137,1.409L108.054,53.3a1.106,1.106,0,0,1-1.409.138L103.9,51.6l-5.63,2.332-.639,3.239a1.106,1.106,0,0,1-1.093.9h-6a1.106,1.106,0,0,1-1.093-.9l-.639-3.239L83.178,51.6l-2.742,1.839a1.106,1.106,0,0,1-1.409-.138l-4.244-4.244a1.106,1.106,0,0,1-.137-1.409l1.839-2.742-2.332-5.63-3.239-.638a1.106,1.106,0,0,1-.9-1.093v-6a1.106,1.106,0,0,1,.9-1.093l3.239-.639,2.332-5.63-1.839-2.742a1.106,1.106,0,0,1,.137-1.409l4.244-4.244a1.106,1.106,0,0,1,1.409-.137l2.742,1.839,5.63-2.332.639-3.239a1.106,1.106,0,0,1,1.093-.9h6a1.106,1.106,0,0,1,1.093.9l.639,3.239,5.63,2.332Z" transform="translate(-7.014 -7.008)" fill="#fdc72e" fill-rule="evenodd"/>
      <path id="Trazado_878675" data-name="Trazado 878675" d="M103.9,17.492l1.99-1.334,4.525,4.525-2.349,3.5,2.332,5.63,4.137.816v7.834l-4.137.816-2.332,5.63,2.349,3.5-4.525,4.525-4.038-2.708L96,52.657,94.93,58.073H90.54a1.106,1.106,0,0,1-1.093-.9l-.638-3.239-7.725-3.2-2.768,1.857-3.531-3.531a1.106,1.106,0,0,1-.138-1.409l1.839-2.742-2.332-5.63-3.239-.638a1.106,1.106,0,0,1-.9-1.093v-6a1.106,1.106,0,0,1,.9-1.093l3.239-.639,2.332-5.63-1.839-2.742a1.106,1.106,0,0,1,.138-1.409L78.315,16.5l2.768,1.857,2.1-.868,5.63-2.332.638-3.239a1.106,1.106,0,0,1,1.093-.9h4.39L96,16.439l5.857,2.427,2.048-1.373Z" transform="translate(-7.014 -7.008)" fill="#fec009" fill-rule="evenodd"/>
      <circle id="Elipse_11656" data-name="Elipse 11656" cx="14.292" cy="14.292" r="14.292" transform="matrix(0.974, -0.226, 0.226, 0.974, 69.374, 16.839)" fill="#66deff"/>
      <g id="Grupo_1102104" data-name="Grupo 1102104" transform="translate(61.985 2.999)">
        <path id="Trazado_878676" data-name="Trazado 878676" d="M157.308,84.021a14.292,14.292,0,0,0,0,28.585c.165,0,.329,0,.493-.009a12.2,12.2,0,0,0,3.8-1.487c4.137-2.5,6.444-7.607,6.444-12.8s-2.307-10.292-6.444-12.8a12.2,12.2,0,0,0-3.8-1.487c-.164-.006-.328-.009-.493-.009Z" transform="translate(-132.767 -73.773)" fill="#78eaff" fill-rule="evenodd"/>
        <path id="Trazado_878677" data-name="Trazado 878677" d="M211.543,291.285c8.281,7.667,8.886,17.806,0,22.205C202.657,309.091,203.263,298.952,211.543,291.285Z" transform="translate(-187.002 -254.822)" fill="#90ef90" fill-rule="evenodd"/>
        <path id="Trazado_878678" data-name="Trazado 878678" d="M211.543,313.49c-8.886-4.4-8.281-14.538,0-22.205C217.49,298.329,218.732,308.593,211.543,313.49Z" transform="translate(-187.002 -254.822)" fill="#81c74d" fill-rule="evenodd"/>
        <path id="Trazado_878679" data-name="Trazado 878679" d="M113.094,358.69c-.469,12.2,7.459,20.095,18.06,14.7C129.762,360.461,118.266,360.3,113.094,358.69Z" transform="translate(-106.613 -313.702)" fill="#75e075" fill-rule="evenodd"/>
        <path id="Trazado_878680" data-name="Trazado 878680" d="M113.091,362c-.2,8.955,4.153,15.495,10.754,15.979a14.987,14.987,0,0,0,5.723-1.7c-1.263-11.738-10.85-12.958-16.478-14.284Z" transform="translate(-106.621 -316.596)" fill="#81c74d" fill-rule="evenodd"/>
        <path id="Trazado_878681" data-name="Trazado 878681" d="M274.076,358.69c.469,12.2-7.459,20.095-18.06,14.7C257.407,360.461,268.9,360.3,274.076,358.69Z" transform="translate(-231.475 -313.702)" fill="#75e075" fill-rule="evenodd"/>
        <path id="Trazado_878682" data-name="Trazado 878682" d="M261.738,377.983a14.987,14.987,0,0,1-5.723-1.7c1.263-11.738,10.85-12.958,16.478-14.284.2,8.955-4.153,15.495-10.754,15.979Z" transform="translate(-231.474 -316.596)" fill="#81c74d" fill-rule="evenodd"/>
        <path id="Trazado_878683" data-name="Trazado 878683" d="M103.591,49.306c-.531.129-1.1.255-1.676.384-5.286,1.177-12.41,2.764-14.13,11.432a40.962,40.962,0,0,0,8.655-4.454,1.012,1.012,0,1,1,1.152,1.663,41.553,41.553,0,0,1-8.387,4.4A9.789,9.789,0,0,0,97.94,62c3.513-2.25,5.583-6.939,5.651-12.693Zm-16.055-.774a1.012,1.012,0,1,0-2.023,0v7.341A13.58,13.58,0,0,0,81.2,51.256l-.072-.048c.26-3.441,2.192-7.142,5.4-10.343,3.2,3.2,5.136,6.9,5.4,10.343l-.072.048a13.586,13.586,0,0,0-4.312,4.617V48.532ZM75.2,56.924a1.011,1.011,0,0,1,1.407-.255,40.963,40.963,0,0,0,8.655,4.454c-1.718-8.668-8.844-10.255-14.129-11.432-.581-.129-1.145-.255-1.676-.384C69.527,55.061,71.6,59.75,75.11,62a9.789,9.789,0,0,0,8.733.734,41.537,41.537,0,0,1-8.387-4.4,1.013,1.013,0,0,1-.255-1.408ZM105.6,47.949c.272,7.06-2.183,12.949-6.565,15.754a10.924,10.924,0,0,1-5.971,1.719,14.67,14.67,0,0,1-5.523-1.158v1.723a1.012,1.012,0,1,1-2.023,0V64.264a14.666,14.666,0,0,1-5.522,1.158A10.927,10.927,0,0,1,74.02,63.7c-4.383-2.805-6.838-8.695-6.566-15.755a1.013,1.013,0,0,1,1.312-.927c.784.243,1.768.462,2.809.694a33.5,33.5,0,0,1,7.639,2.4c.57-3.933,2.878-7.923,6.625-11.392a1.012,1.012,0,0,1,1.375,0c3.745,3.469,6.053,7.459,6.624,11.392a33.492,33.492,0,0,1,7.638-2.4c1.041-.232,2.025-.451,2.809-.694a1.013,1.013,0,0,1,1.312.927Zm-9.514-11.2a13.169,13.169,0,0,0,3.669-8.2H95.019a24.432,24.432,0,0,1-1.156,6.72A15.156,15.156,0,0,1,96.082,36.752ZM93.12,17.9a13.309,13.309,0,0,0,1.411-.931,13.263,13.263,0,0,0-3.01-1.718,13.175,13.175,0,0,1,1.6,2.649Zm-.126,10.65H87.536V33.43a15.248,15.248,0,0,1,4.483.984A22.494,22.494,0,0,0,92.994,28.551Zm-5.458-2.023h5.458a22.654,22.654,0,0,0-.985-5.86,15.237,15.237,0,0,1-4.472.981Zm0-6.91a13.228,13.228,0,0,0,3.752-.841c-.975-2.138-2.29-3.644-3.752-4.127Zm8.533-1.28a15.3,15.3,0,0,1-2.2,1.467,24.285,24.285,0,0,1,1.149,6.723h4.733a13.221,13.221,0,0,0-3.683-8.19ZM85.513,14.649c-1.461.483-2.777,1.989-3.752,4.127a13.233,13.233,0,0,0,3.752.841Zm0,7a15.251,15.251,0,0,1-4.472-.981,22.724,22.724,0,0,0-.985,5.86h5.458Zm0,6.9H80.055a22.446,22.446,0,0,0,.977,5.863,15.241,15.241,0,0,1,4.481-.984V28.551Zm-3.985-13.3a13.265,13.265,0,0,0-3.01,1.718,13.348,13.348,0,0,0,1.411.931,13.263,13.263,0,0,1,1.6-2.649ZM79.186,35.271a24.432,24.432,0,0,1-1.156-6.72H73.3a13.2,13.2,0,0,0,3.674,8.2A15.31,15.31,0,0,1,79.186,35.271ZM73.3,26.528h4.732A24.286,24.286,0,0,1,79.18,19.8a15.3,15.3,0,0,1-2.2-1.467,13.221,13.221,0,0,0-3.682,8.19Zm19.113,12.9a1.012,1.012,0,1,0,.9,1.813,15.289,15.289,0,1,0-13.76-.1,1.012,1.012,0,1,0,.924-1.8,13.447,13.447,0,0,1-1.964-1.233,13.312,13.312,0,0,1,1.424-.941,14.039,14.039,0,0,0,1.145,2.036,1.012,1.012,0,0,0,1.671-1.142,12.16,12.16,0,0,1-.991-1.764,13.258,13.258,0,0,1,3.754-.842v1.773a1.012,1.012,0,1,0,2.023,0V35.461a13.251,13.251,0,0,1,3.754.842,12.21,12.21,0,0,1-.99,1.764,1.011,1.011,0,1,0,1.67,1.142,13.936,13.936,0,0,0,1.145-2.036,13.14,13.14,0,0,1,1.424.942,13.44,13.44,0,0,1-2.127,1.315ZM111.064,24.54a2.107,2.107,0,0,0-1.716-2.088l-2.705-.534-1.918-4.629L106.261,15A2.108,2.108,0,0,0,106,12.307l-4.242-4.241A2.107,2.107,0,0,0,99.067,7.8L96.775,9.339,92.146,7.421l-.533-2.706A2.108,2.108,0,0,0,89.525,3h-6a2.106,2.106,0,0,0-2.088,1.717L80.9,7.421,76.275,9.339,73.983,7.8a2.106,2.106,0,0,0-2.689.263l-4.242,4.241A2.107,2.107,0,0,0,66.789,15l1.537,2.291-1.918,4.629-2.706.534a2.107,2.107,0,0,0-1.716,2.088v6A2.107,2.107,0,0,0,63.7,32.627l2.706.534,1.918,4.629-1.537,2.29a2.107,2.107,0,0,0,.263,2.691l4.242,4.242a2.107,2.107,0,0,0,2.691.262l2.29-1.536,1.864.772a1.012,1.012,0,0,0,.774-1.87l-2.365-.979a1.01,1.01,0,0,0-.95.094l-2.742,1.838a.1.1,0,0,1-.132-.013L68.482,41.34a.1.1,0,0,1-.012-.132l1.837-2.741a1.015,1.015,0,0,0,.1-.951l-2.334-5.63a1.008,1.008,0,0,0-.739-.605l-3.237-.638a.1.1,0,0,1-.085-.1v-6a.1.1,0,0,1,.085-.1L67.33,23.8a1.01,1.01,0,0,0,.739-.605l2.334-5.63a1.015,1.015,0,0,0-.1-.951L68.47,13.871a.1.1,0,0,1,.012-.132L72.725,9.5a.1.1,0,0,1,.132-.013L75.6,11.322a1.011,1.011,0,0,0,.95.094l5.631-2.333a1.016,1.016,0,0,0,.606-.739l.638-3.238a.1.1,0,0,1,.1-.085h6a.1.1,0,0,1,.1.085l.638,3.238a1.01,1.01,0,0,0,.6.739L96.5,11.416a1.014,1.014,0,0,0,.951-.094l2.741-1.838a.1.1,0,0,1,.131.013l4.243,4.242a.1.1,0,0,1,.013.132l-1.838,2.741a1.013,1.013,0,0,0-.094.951l2.333,5.63a1.01,1.01,0,0,0,.739.605l3.238.638a.1.1,0,0,1,.084.1v6a.1.1,0,0,1-.084.1l-3.238.638a1.01,1.01,0,0,0-.739.605l-2.333,5.63a1.013,1.013,0,0,0,.094.951l1.838,2.741a.1.1,0,0,1-.013.132l-4.243,4.242a.1.1,0,0,1-.131.013l-2.742-1.838a1.007,1.007,0,0,0-.949-.094L94.044,44.68a1.012,1.012,0,0,0,.776,1.87l1.956-.81,2.29,1.536a2.109,2.109,0,0,0,2.692-.262L106,42.771a2.106,2.106,0,0,0,.262-2.691l-1.535-2.29,1.918-4.629,2.705-.534a2.107,2.107,0,0,0,1.716-2.088v-6Z" transform="translate(-61.985 -2.999)" fill-rule="evenodd"/>
      </g>
    </g>
  </g>
</svg>
