<svg xmlns="http://www.w3.org/2000/svg" width="100" height="100" viewBox="0 0 100 100">
  <g id="Grupo_1103384" data-name="Grupo 1103384" transform="translate(-12 6806)">
    <g id="Rect치ngulo_400898" data-name="Rect치ngulo 400898" transform="translate(12 -6806)" fill="#4e93ee" stroke="#fff" stroke-width="3" opacity="0.859">
      <rect width="100" height="100" rx="50" stroke="none"/>
      <rect x="1.5" y="1.5" width="97" height="97" rx="48.5" fill="none"/>
    </g>
    <g id="Rect치ngulo_400907" data-name="Rect치ngulo 400907" transform="translate(12 -6806)" fill="none" stroke="#1f3b5f" stroke-linecap="round" stroke-width="2" stroke-dasharray="7">
      <rect width="100" height="100" rx="50" stroke="none"/>
      <rect x="1" y="1" width="98" height="98" rx="49" fill="none"/>
    </g>
    <g id="educacion-ambiental-2" transform="translate(26.781 -6811.32)">
      <path id="Trazado_878684" data-name="Trazado 878684" d="M71.628,368.532l-29.4-5.108v-8.794a1.05,1.05,0,0,1,.583-.923,1.579,1.579,0,0,1,1.256-.14l27.559,8.162,27.562-8.162a1.573,1.573,0,0,1,1.256.14,1.06,1.06,0,0,1,.583.923v8.794Z" transform="translate(-36.41 -284.769)" fill="#edf6ff" fill-rule="evenodd"/>
      <path id="Trazado_878685" data-name="Trazado 878685" d="M72.835,406.622a2.807,2.807,0,0,1,3.3,1.657,2.267,2.267,0,0,1-2.013,2.713l-31.377,6.248a3.247,3.247,0,0,1-1.329-.008l-31.33-6.24a2.267,2.267,0,0,1-2.013-2.713,2.809,2.809,0,0,1,3.3-1.657L42.1,412.741Z" transform="translate(-6.884 -330.533)" fill="#3e76bf"/>
      <g id="Grupo_1102105" data-name="Grupo 1102105" transform="translate(1.111 29.88)">
        <path id="Trazado_878686" data-name="Trazado 878686" d="M271.131,305.521a11.287,11.287,0,0,1-15.151,8.744,11.291,11.291,0,0,1,15.151-8.744Z" transform="translate(-221.875 -272.634)" fill="#81c74d" fill-rule="evenodd"/>
        <path id="Trazado_878687" data-name="Trazado 878687" d="M145.85,305.521A11.285,11.285,0,0,0,161,314.265a11.285,11.285,0,0,0-15.147-8.744Z" transform="translate(-126.891 -272.634)" fill="#81c74d" fill-rule="evenodd"/>
        <path id="Trazado_878688" data-name="Trazado 878688" d="M174.6,96.991A12.981,12.981,0,1,0,161.62,84.013,13.006,13.006,0,0,0,174.6,96.991Z" transform="translate(-140.492 -71.029)" fill="#66e0f7" fill-rule="evenodd"/>
        <path id="Trazado_878689" data-name="Trazado 878689" d="M175.137,186.536a13.031,13.031,0,0,1-5.877-6.354c.662-1.415,1.6-1.817,2.55-3.046,1.256-1.627,1.707.893,4.632,1.082,5.877.518,4.708,3.065.987,4.628C176.651,183.258,175.553,185.669,175.137,186.536Z" transform="translate(-147.082 -162.072)" fill="#81c74d" fill-rule="evenodd"/>
        <path id="Trazado_878690" data-name="Trazado 878690" d="M266.338,143.187c-.666-1.956-1.415-2.478-1.681-4.639-.609-4.956-.886.166-4.234-1.9-1.714-1.056-3.554-3.076-1.759-4.053a4.386,4.386,0,0,0,1.646-2.251c.875-2.161,9,3.5,9.3-1.9a12.991,12.991,0,0,1-3.273,14.737Z" transform="translate(-223.555 -120.552)" fill="#81c74d" fill-rule="evenodd"/>
        <path id="Trazado_878691" data-name="Trazado 878691" d="M175.694,71.02a12.951,12.951,0,0,1,2.929.333c-2.024,2.619-.052,4.351-3.4,5.8-4.254,1.839-7.057,4.669-9.111,4.991a7.224,7.224,0,0,1-3.22-.253,12.976,12.976,0,0,1,12.8-10.867Z" transform="translate(-141.588 -71.02)" fill="#81c74d" fill-rule="evenodd"/>
        <path id="Trazado_878692" data-name="Trazado 878692" d="M174.6,71.02a12.921,12.921,0,0,1,1.45.084,12.979,12.979,0,0,0,0,25.8,12.98,12.98,0,1,1-1.45-25.88Z" transform="translate(-140.492 -71.02)" fill="#0584e3" fill-rule="evenodd"/>
        <path id="Trazado_878693" data-name="Trazado 878693" d="M165.7,82.2a7.449,7.449,0,0,1-2.85-.287,12.954,12.954,0,0,1,14.259-10.795A12.977,12.977,0,0,0,165.7,82.2Z" transform="translate(-141.553 -71.029)" fill="#65c43a" fill-rule="evenodd"/>
        <path id="Trazado_878694" data-name="Trazado 878694" d="M169.26,186.874a9.261,9.261,0,0,1,2.1-2.524,12.967,12.967,0,0,0,4.481,7.424c-.3.579-.553,1.128-.708,1.454a13.025,13.025,0,0,1-5.877-6.354Z" transform="translate(-147.082 -168.764)" fill="#65c43a" fill-rule="evenodd"/>
        <path id="Trazado_878695" data-name="Trazado 878695" d="M20.49,211.62a7.92,7.92,0,1,1-7.92,7.92A7.92,7.92,0,0,1,20.49,211.62Z" transform="translate(-11.941 -192.284)" fill="#edf6ff" fill-rule="evenodd"/>
        <path id="Trazado_878696" data-name="Trazado 878696" d="M40.959,285.807a7.92,7.92,0,0,1-11.079,0,4.522,4.522,0,0,1,4.466-3.917H36.5A4.521,4.521,0,0,1,40.959,285.807Z" transform="translate(-26.87 -252.89)" fill="#dc1b12" fill-rule="evenodd"/>
        <path id="Trazado_878697" data-name="Trazado 878697" d="M41.29,282.953a4.469,4.469,0,0,1,2.895-1.063h2.15a4.476,4.476,0,0,1,2.895,1.063,5.574,5.574,0,0,1-7.939,0Z" transform="translate(-36.711 -252.89)" fill="#e63f3f" fill-rule="evenodd"/>
        <path id="Trazado_878698" data-name="Trazado 878698" d="M47.287,234.62a3.649,3.649,0,1,0,3.651,3.651A3.648,3.648,0,0,0,47.287,234.62Z" transform="translate(-38.738 -212.12)" fill="#fec009" fill-rule="evenodd"/>
        <path id="Trazado_878699" data-name="Trazado 878699" d="M15.355,223.85a7.922,7.922,0,0,1,5.892-12.2c-.25-.023-.5-.034-.756-.034a7.92,7.92,0,1,0,0,15.84c.253,0,.507-.011.756-.034A7.919,7.919,0,0,1,15.355,223.85Z" transform="translate(-11.941 -192.284)" fill="#d5dde6" fill-rule="evenodd"/>
        <path id="Trazado_878700" data-name="Trazado 878700" d="M29.87,301.9a4.455,4.455,0,0,1,.4-1.351,7.919,7.919,0,0,0,5.892,3.576c-.25.023-.5.034-.756.034A7.915,7.915,0,0,1,29.87,301.9Z" transform="translate(-26.862 -268.983)" fill="#e63f3f" fill-rule="evenodd"/>
        <path id="Trazado_878701" data-name="Trazado 878701" d="M392.17,211.62a7.92,7.92,0,1,1-7.92,7.92A7.92,7.92,0,0,1,392.17,211.62Z" transform="translate(-332.505 -192.284)" fill="#edf6ff" fill-rule="evenodd"/>
        <path id="Trazado_878702" data-name="Trazado 878702" d="M412.649,285.807a7.92,7.92,0,0,1-11.079,0,4.522,4.522,0,0,1,4.466-3.917h2.15A4.521,4.521,0,0,1,412.649,285.807Z" transform="translate(-347.443 -252.89)" fill="#dc1b12" fill-rule="evenodd"/>
        <path id="Trazado_878703" data-name="Trazado 878703" d="M412.95,282.953a4.485,4.485,0,0,1,2.9-1.063H418a4.476,4.476,0,0,1,2.895,1.063,5.578,5.578,0,0,1-7.944,0Z" transform="translate(-357.258 -252.89)" fill="#e63f3f" fill-rule="evenodd"/>
        <path id="Trazado_878704" data-name="Trazado 878704" d="M418.941,234.62a3.649,3.649,0,1,0,3.647,3.651A3.652,3.652,0,0,0,418.941,234.62Z" transform="translate(-359.276 -212.12)" fill="#fec009" fill-rule="evenodd"/>
        <path id="Trazado_878705" data-name="Trazado 878705" d="M387.032,223.85a7.928,7.928,0,0,1,5.892-12.2c-.246-.023-.5-.034-.754-.034a7.92,7.92,0,0,0,0,15.84c.253,0,.508-.011.754-.034A7.927,7.927,0,0,1,387.032,223.85Z" transform="translate(-332.505 -192.284)" fill="#d5dde6" fill-rule="evenodd"/>
        <path id="Trazado_878706" data-name="Trazado 878706" d="M401.56,301.9a4.529,4.529,0,0,1,.4-1.351,7.927,7.927,0,0,0,5.892,3.576c-.246.023-.5.034-.754.034A7.908,7.908,0,0,1,401.56,301.9Z" transform="translate(-347.434 -268.983)" fill="#e63f3f" fill-rule="evenodd"/>
        <path id="Trazado_878707" data-name="Trazado 878707" d="M44.419,361.545v-6.933a1.028,1.028,0,0,1,.439-.829l-.8-.235a1.572,1.572,0,0,0-1.256.14,1.052,1.052,0,0,0-.583.923V361.1Z" transform="translate(-37.513 -314.632)" fill="#d5dde6" fill-rule="evenodd"/>
        <path id="Trazado_878708" data-name="Trazado 878708" d="M10.846,408.832A2.508,2.508,0,0,1,12.7,407.21a3.3,3.3,0,0,1,1.441-.034l-1.441-.287-1.333-.265a2.807,2.807,0,0,0-3.3,1.657,2.267,2.267,0,0,0,2.013,2.713l2.763.549A2.26,2.26,0,0,1,10.846,408.832Z" transform="translate(-7.996 -360.413)" fill="#2a4a68" fill-rule="evenodd"/>
      </g>
      <g id="Grupo_1102106" data-name="Grupo 1102106" transform="translate(0.014 23.32)">
        <path id="Trazado_878709" data-name="Trazado 878709" d="M70.3,76.886a3.875,3.875,0,0,0-4.567-2.42l-.015,0V69.313a2.146,2.146,0,0,0-1.135-1.876,2.683,2.683,0,0,0-2.121-.242l-27.246,8.07L7.972,67.194a2.66,2.66,0,0,0-2.115.243,2.146,2.146,0,0,0-1.135,1.876v5.156l-.019,0A3.869,3.869,0,0,0,.136,76.887,2.986,2.986,0,0,0,.46,79.3a3.791,3.791,0,0,0,2.528,1.693l31.323,6.234a4.448,4.448,0,0,0,1.767.01l31.376-6.245A3.791,3.791,0,0,0,69.982,79.3a2.989,2.989,0,0,0,.32-2.412ZM63.087,69.3a.5.5,0,0,1,.4.037.324.324,0,0,1,.036.023v5.541l-27.2,5.414V77.234ZM6.92,69.364a.359.359,0,0,1,.04-.025.479.479,0,0,1,.389-.036l26.771,7.93V80.32L6.92,74.907ZM68.1,78.159a1.6,1.6,0,0,1-1.075.675L35.648,85.079a2.232,2.232,0,0,1-.886,0l-.015,0L3.416,78.834a1.6,1.6,0,0,1-1.077-.675.794.794,0,0,1-.1-.653,1.628,1.628,0,0,1,1.608-.927,2.2,2.2,0,0,1,.422.041l1.326.264h0L35,82.737a1.073,1.073,0,0,0,.429,0l29.391-5.85a.261.261,0,0,0,.032-.007l1.308-.26a1.756,1.756,0,0,1,2.029.884.785.785,0,0,1-.095.655ZM40.17,62.042a12.369,12.369,0,0,0-4.951,5.313A12.389,12.389,0,0,0,19.68,61.19a1.1,1.1,0,0,0-.695,1.2A12.365,12.365,0,0,0,35.22,72.127a12.381,12.381,0,0,0,16.234-9.733,1.1,1.1,0,0,0-.695-1.2,12.343,12.343,0,0,0-10.59.853ZM26.117,69.235a10.166,10.166,0,0,1-4.771-6.281,10.187,10.187,0,0,1,12.041,5.68l-8.264-4.772a1.1,1.1,0,1,0-1.1,1.9l8.268,4.775A10.159,10.159,0,0,1,26.117,69.235Zm18.2,0a10.163,10.163,0,0,1-6.175,1.307l8.268-4.774a1.1,1.1,0,1,0-1.1-1.9l-8.264,4.772a10.187,10.187,0,0,1,12.041-5.68,10.164,10.164,0,0,1-4.771,6.28ZM28.549,54.707a1.173,1.173,0,0,0,.14.083.6.6,0,0,0,.069.028,14.055,14.055,0,0,0,15.779-1.958,1.126,1.126,0,0,0,.171-.153,14.06,14.06,0,0,0,3.451-15.944s0,0,0,0a14.138,14.138,0,0,0-9.708-8.151.991.991,0,0,0-.127-.029A14.083,14.083,0,0,0,21.334,39.984c0,.018-.006.034-.008.052a14.072,14.072,0,0,0,.93,7.769,1,1,0,0,0,.062.142,14.191,14.191,0,0,0,6.231,6.759Zm-4.025-7.23a5.976,5.976,0,0,1,.985-1.115,11.224,11.224,0,0,0,1.2-1.3l.021-.026c.094.062.2.14.294.206a6.1,6.1,0,0,0,3.367,1.324c2.357.209,2.957.712,3.067.832-.089.271-.766.993-2.423,1.69-.029.012-.056.025-.083.039-.754.393-1.426,1.443-2.253,3.1a11.946,11.946,0,0,1-4.175-4.757Zm19.741,2.529-.15-.305a6.685,6.685,0,0,1-.81-2.5c-.226-1.84-.421-2.746-1.235-3.1a1.648,1.648,0,0,0-1.671.366c-.506.367-.872.633-1.843.034a4.262,4.262,0,0,1-1.972-2.037.617.617,0,0,1,.16-.114,5.1,5.1,0,0,0,2.075-2.636,10.658,10.658,0,0,1,2.31.43c1.987.5,4.236,1.067,5.769-.012a11.942,11.942,0,0,1,.2,2.187A11.811,11.811,0,0,1,44.264,50.006Zm1.78-12.592a1.282,1.282,0,0,1-.4.906c-.7.514-2.6.036-3.979-.314a14.685,14.685,0,0,0-2.467-.485,2.085,2.085,0,0,0-2.349,1.194,3.3,3.3,0,0,1-1.157,1.7,2.277,2.277,0,0,0-1.308,1.974c-.052,1.99,2.5,3.666,3.016,3.981a3.432,3.432,0,0,0,3.611.305c.033.21.069.47.107.791a8.851,8.851,0,0,0,1.022,3.21c.147.3.3.6.444.95a11.867,11.867,0,0,1-11.948,1.648,7.951,7.951,0,0,1,1.333-2.189c2.562-1.1,3.9-2.562,3.669-4.03-.352-2.258-3.9-2.57-5.069-2.674l-.028,0a3.989,3.989,0,0,1-2.238-.919c-.655-.469-2.016-1.444-3.338.265a9.09,9.09,0,0,1-.982,1.052c-.1.1-.21.2-.315.307a11.874,11.874,0,0,1-.33-2.77c0-.26.01-.518.026-.774a8.111,8.111,0,0,0,1.228.095,7.931,7.931,0,0,0,1.21-.094,12.132,12.132,0,0,0,4.243-2.147,33.29,33.29,0,0,1,5.137-2.924A4.169,4.169,0,0,0,38.111,32.7a5.069,5.069,0,0,1,.518-1.769A11.942,11.942,0,0,1,46.044,37.414ZM35.219,30.43c.4,0,.8.021,1.188.059a8.026,8.026,0,0,0-.472,1.866c-.166,1.056-.235,1.492-1.626,2.095a35.526,35.526,0,0,0-5.471,3.1,11.5,11.5,0,0,1-3.376,1.813,5.723,5.723,0,0,1-1.753,0,11.9,11.9,0,0,1,11.51-8.934ZM14.26,40.657a1.1,1.1,0,0,1,1.6-1.507l.542.575a19,19,0,0,1,37.119-2.5,1.1,1.1,0,0,1-2.119.587,16.8,16.8,0,0,0-32.755,1.745l.337-.318a1.1,1.1,0,1,1,1.507,1.6l-2.409,2.269a1.1,1.1,0,0,1-1.554-.047Zm39.655.9,2.265,2.409a1.1,1.1,0,1,1-1.6,1.506l-.543-.578a18.995,18.995,0,0,1-37.117,2.5,1.1,1.1,0,1,1,2.118-.589,16.8,16.8,0,0,0,32.749-1.744l-.334.314a1.1,1.1,0,0,1-1.5-1.6l2.414-2.265a1.1,1.1,0,0,1,1.555.048ZM3.3,62.975a1.089,1.089,0,0,0,.129.122,9,9,0,0,0,12.464,0,1.077,1.077,0,0,0,.128-.122,9.018,9.018,0,1,0-12.721,0Zm2.03-1.124a3.44,3.44,0,0,1,2.064-2.2,4.741,4.741,0,0,0,4.536,0,3.44,3.44,0,0,1,2.064,2.2,6.811,6.811,0,0,1-8.664,0Zm4.331-3.821a2.55,2.55,0,1,1,2.55-2.55A2.553,2.553,0,0,1,9.661,58.031Zm0-8.264A6.814,6.814,0,0,1,15.562,60a5.672,5.672,0,0,0-1.914-1.946,4.749,4.749,0,1,0-7.974,0A5.672,5.672,0,0,0,3.759,60a6.814,6.814,0,0,1,5.9-10.236Zm42.1,6.819a8.995,8.995,0,0,0,2.66,6.391,1.088,1.088,0,0,0,.129.122,9,9,0,0,0,12.464,0,1.077,1.077,0,0,0,.128-.122,9.018,9.018,0,1,0-15.381-6.39Zm4.688,5.266a3.44,3.44,0,0,1,2.064-2.2,4.741,4.741,0,0,0,4.536,0,3.44,3.44,0,0,1,2.064,2.2,6.811,6.811,0,0,1-8.664,0Zm4.332-3.821a2.55,2.55,0,1,1,2.55-2.55A2.553,2.553,0,0,1,60.777,58.031Zm0-8.264A6.814,6.814,0,0,1,66.678,60a5.672,5.672,0,0,0-1.914-1.946,4.749,4.749,0,1,0-7.974,0A5.672,5.672,0,0,0,54.876,60a6.814,6.814,0,0,1,5.9-10.236Z" transform="translate(-0.014 -23.32)"/>
      </g>
    </g>
  </g>
</svg>
