<svg xmlns="http://www.w3.org/2000/svg" width="100" height="100" viewBox="0 0 100 100">
  <g id="Grupo_1103381" data-name="Grupo 1103381" transform="translate(-284 6806)">
    <g id="Rect치ngulo_400907" data-name="Rect치ngulo 400907" transform="translate(284 -6806)" fill="none" stroke="#1f3b5f" stroke-linecap="round" stroke-width="2" stroke-dasharray="7">
      <rect width="100" height="100" rx="50" stroke="none"/>
      <rect x="1" y="1" width="98" height="98" rx="49" fill="none"/>
    </g>
    <g id="Grupo_1102116" data-name="Grupo 1102116">
      <g id="Rect치ngulo_400898" data-name="Rect치ngulo 400898" transform="translate(284 -6806)" fill="#4e93ee" stroke="#fff" stroke-width="3" opacity="0.859">
        <rect width="100" height="100" rx="50" stroke="none"/>
        <rect x="1.5" y="1.5" width="97" height="97" rx="48.5" fill="none"/>
      </g>
      <g id="Artboard491" transform="translate(293 -6811.584)">
        <g id="Grupo_1102115" data-name="Grupo 1102115" transform="translate(7 23.584)">
          <g id="Grupo_1102114" data-name="Grupo 1102114" transform="translate(1.169 1.072)">
            <g id="Grupo_1102107" data-name="Grupo 1102107" transform="translate(9.212 9.608)">
              <path id="Trazado_878710" data-name="Trazado 878710" d="M103.421,100.815a21.35,21.35,0,1,1-21.352,21.349,21.348,21.348,0,0,1,21.352-21.349Z" transform="translate(-82.069 -100.815)" fill="#66e0f7" fill-rule="evenodd"/>
              <path id="Trazado_878711" data-name="Trazado 878711" d="M230.13,100.815a21.35,21.35,0,0,1,0,42.7c-.343,0-.681-.008-1.019-.025a21.349,21.349,0,0,0,0-42.65c.338-.018.676-.025,1.019-.025Z" transform="translate(-208.778 -100.815)" fill="#41a8fc" fill-rule="evenodd"/>
            </g>
            <g id="Grupo_1102108" data-name="Grupo 1102108">
              <path id="Trazado_878712" data-name="Trazado 878712" d="M32.347,33.668a12.014,12.014,0,0,1,3.522,1.46l2.288-1.015,2.7,2.7L39.838,39.1a12.013,12.013,0,0,1,1.46,3.522l2.335.9v3.814l-2.335.9a12.022,12.022,0,0,1-1.46,3.52l1.015,2.288-2.7,2.7L35.868,55.72a12.017,12.017,0,0,1-3.522,1.461l-.9,2.333H27.634l-.9-2.335a12.022,12.022,0,0,1-3.52-1.46l-2.288,1.017-2.7-2.7,1.017-2.287a12.054,12.054,0,0,1-1.461-3.522l-2.333-.9V43.517l2.333-.9A12.016,12.016,0,0,1,19.246,39.1l-1.017-2.288,2.7-2.7,2.287,1.015a12.051,12.051,0,0,1,3.522-1.46l.9-2.335h3.815Z" transform="translate(-15.451 -31.333)" fill="#fec009" fill-rule="evenodd"/>
              <path id="Trazado_878713" data-name="Trazado 878713" d="M69.384,34.454l.769-.341,2.7,2.7L71.833,39.1a12.013,12.013,0,0,1,1.46,3.522l2.335.9v3.814l-2.335.9a12.021,12.021,0,0,1-1.46,3.52l1.015,2.288-2.7,2.7-.769-.341,2.357-2.357L70.723,51.75a12.022,12.022,0,0,0,1.46-3.52l2.335-.9V43.517l-2.335-.9a12.013,12.013,0,0,0-1.46-3.522l1.017-2.288Zm-16.8,0,.341-.341,2.287,1.015c-.161.09-.321.183-.478.281Zm11.761-.786a12.014,12.014,0,0,1,3.522,1.46l-.631.281a15.714,15.714,0,0,0-4-1.741l-.9-2.335h1.11ZM55.211,55.72l-2.288,1.017-.341-.341,2.15-.955Q54.966,55.585,55.211,55.72Zm12.654,0a12.017,12.017,0,0,1-3.522,1.461l-.9,2.333h-1.11l.9-2.333a15.75,15.75,0,0,0,4-1.741Z" transform="translate(-47.447 -31.333)" fill="#ffd064" fill-rule="evenodd"/>
              <path id="Trazado_878714" data-name="Trazado 878714" d="M75.568,86.954a6.7,6.7,0,1,1-6.7,6.705A6.705,6.705,0,0,1,75.568,86.954Z" transform="translate(-61.478 -79.263)" fill="#eceff1" fill-rule="evenodd"/>
              <path id="Trazado_878715" data-name="Trazado 878715" d="M75.568,86.954c.153,0,.3.005.455.016a6.7,6.7,0,0,0,0,13.378c-.151.01-.3.015-.455.015a6.7,6.7,0,0,1,0-13.409Z" transform="translate(-61.478 -79.263)" fill="#d1d1d6" fill-rule="evenodd"/>
            </g>
            <g id="Grupo_1102113" data-name="Grupo 1102113" transform="translate(38.914 24.207)">
              <g id="Grupo_1102112" data-name="Grupo 1102112">
                <path id="Trazado_878716" data-name="Trazado 878716" d="M323.012,240.264H297.7a.835.835,0,0,0-.833.833v30.845a.835.835,0,0,0,.833.835h25.309a.836.836,0,0,0,.835-.835V241.1A.835.835,0,0,0,323.012,240.264Z" transform="translate(-296.87 -235.58)" fill="#eceff1" fill-rule="evenodd"/>
                <path id="Trazado_878717" data-name="Trazado 878717" d="M481.709,240.264h-.676v32.513h.676a.836.836,0,0,0,.835-.835V241.1A.835.835,0,0,0,481.709,240.264Z" transform="translate(-455.567 -235.58)" fill="#d1d1d6" fill-rule="evenodd"/>
                <path id="Trazado_878718" data-name="Trazado 878718" d="M347,208.642h3.024a2.943,2.943,0,0,1,5.721,0h3.021a.783.783,0,0,1,.784.781v2.937a.783.783,0,0,1-.784.781H347a.783.783,0,0,1-.781-.781v-2.937A.783.783,0,0,1,347,208.642Z" transform="translate(-339.392 -206.391)" fill="#594303" fill-rule="evenodd"/>
                <path id="Trazado_878719" data-name="Trazado 878719" d="M358.762,222.671a.783.783,0,0,1,.784.781v2.937a.783.783,0,0,1-.784.781H347a.783.783,0,0,1-.781-.781h11.766a.785.785,0,0,0,.781-.784Z" transform="translate(-339.392 -220.42)" fill="#c48958" fill-rule="evenodd"/>
                <g id="Grupo_1102109" data-name="Grupo 1102109" transform="translate(3.733 9.85)">
                  <path id="Trazado_878720" data-name="Trazado 878720" d="M324.469,277.621h4.614a.605.605,0,0,1,.6.6v4.614a.6.6,0,0,1-.6.6h-4.614a.6.6,0,0,1-.6-.6v-4.614A.605.605,0,0,1,324.469,277.621Z" transform="translate(-323.865 -277.621)" fill="#66e0f7" fill-rule="evenodd"/>
                  <path id="Trazado_878721" data-name="Trazado 878721" d="M354.541,277.621h.975a.605.605,0,0,1,.6.6v4.614a.6.6,0,0,1-.6.6h-.975a.605.605,0,0,0,.6-.6v-4.614A.607.607,0,0,0,354.541,277.621Z" transform="translate(-350.299 -277.621)" fill="#60b7ff" fill-rule="evenodd"/>
                </g>
                <g id="Grupo_1102110" data-name="Grupo 1102110" transform="translate(3.733 18.931)">
                  <path id="Trazado_878722" data-name="Trazado 878722" d="M324.469,343.3h4.614a.605.605,0,0,1,.6.6v4.616a.6.6,0,0,1-.6.6h-4.614a.6.6,0,0,1-.6-.6V343.9a.605.605,0,0,1,.6-.6Z" transform="translate(-323.865 -343.295)" fill="#fec009" fill-rule="evenodd"/>
                  <path id="Trazado_878723" data-name="Trazado 878723" d="M354.541,343.3h.975a.605.605,0,0,1,.6.6v4.616a.6.6,0,0,1-.6.6h-.975a.6.6,0,0,0,.6-.6V343.9a.607.607,0,0,0-.6-.6Z" transform="translate(-350.299 -343.295)" fill="#fec009" fill-rule="evenodd"/>
                </g>
                <g id="Grupo_1102111" data-name="Grupo 1102111" transform="translate(3.733 27.9)">
                  <path id="Trazado_878724" data-name="Trazado 878724" d="M324.469,408.158h4.614a.605.605,0,0,1,.6.6v4.616a.6.6,0,0,1-.6.6h-4.614a.6.6,0,0,1-.6-.6v-4.616A.605.605,0,0,1,324.469,408.158Z" transform="translate(-323.865 -408.158)" fill="#dc1b12" fill-rule="evenodd"/>
                  <path id="Trazado_878725" data-name="Trazado 878725" d="M354.541,408.158h.975a.605.605,0,0,1,.6.6v4.616a.6.6,0,0,1-.6.6h-.975a.6.6,0,0,0,.6-.6v-4.616A.607.607,0,0,0,354.541,408.158Z" transform="translate(-350.299 -408.158)" fill="#fd4755" fill-rule="evenodd"/>
                </g>
              </g>
            </g>
          </g>
          <path id="Trazado_878726" data-name="Trazado 878726" d="M16.964,50.892q-.594-.257-1.162-.572l-1.772.785a1.106,1.106,0,0,1-1.23-.229l-2.7-2.7a1.106,1.106,0,0,1-.229-1.232l.787-1.769a13.171,13.171,0,0,1-1.146-2.761l-1.807-.7A1.106,1.106,0,0,1,7,40.69V36.877a1.106,1.106,0,0,1,.709-1.032l1.807-.7a13.172,13.172,0,0,1,1.147-2.764l-.787-1.77a1.106,1.106,0,0,1,.229-1.232l2.7-2.7a1.106,1.106,0,0,1,1.232-.229l1.77.787A13.088,13.088,0,0,1,18.563,26.1l.7-1.81a1.106,1.106,0,0,1,1.032-.708h3.813a1.106,1.106,0,0,1,1.033.71l.695,1.809a13.093,13.093,0,0,1,2.761,1.144l1.77-.787a1.106,1.106,0,0,1,1.232.229l2.7,2.7a1.106,1.106,0,0,1,.229,1.23l-.784,1.771a13.07,13.07,0,0,1,.722,1.523A22.485,22.485,0,0,1,59.935,48.2a3.9,3.9,0,0,1,.454-.026,3.86,3.86,0,0,1,3.439,2.106h2.8a1.106,1.106,0,0,1,1.106,1.106v.951H72.86a2.734,2.734,0,0,1,2.727,2.727v29.8a2.731,2.731,0,0,1-2.727,2.725H47.92a2.731,2.731,0,0,1-2.727-2.725V77.476a22.471,22.471,0,0,1-28.23-26.584Zm20.39-14.315a1.1,1.1,0,0,1,.042.3V40.69a1.106,1.106,0,0,1-.709,1.032l-1.806.695q-.179.624-.419,1.227c1.081.137,2.179.223,3.281.258V36.3q-.2.136-.389.276Zm-3.335,9.241.5,1.132a1.106,1.106,0,0,1-.229,1.23l-2.7,2.7a1.106,1.106,0,0,1-1.23.229l-1.77-.784q-.274.153-.555.292a23.707,23.707,0,0,0-.567,4.213h10.27V46.111A36.964,36.964,0,0,1,34.019,45.818ZM25.47,52.409l-.332.862a1.106,1.106,0,0,1-1.032.709H20.293a1.106,1.106,0,0,1-1.033-.709l-.342-.89a20.291,20.291,0,0,0-.281,2.444H25.26Q25.309,53.6,25.47,52.409ZM57.9,49.081a20.23,20.23,0,0,0-3.87-6.535A24.117,24.117,0,0,1,49.8,44.421a25.8,25.8,0,0,1,2.429,7.913h.822v-.951a1.106,1.106,0,0,1,1.106-1.106h2.8a3.88,3.88,0,0,1,.95-1.2Zm-5.486-8.17a20.194,20.194,0,0,0-8.962-4.694,26.291,26.291,0,0,1,5.265,6.24A22.789,22.789,0,0,0,52.416,40.911ZM67.732,54.546v1.048A1.106,1.106,0,0,1,66.625,56.7H54.155a1.106,1.106,0,0,1-1.106-1.106V54.546H47.92a.516.516,0,0,0-.514.514v29.8a.514.514,0,0,0,.514.512H72.86a.514.514,0,0,0,.514-.512V55.06a.516.516,0,0,0-.514-.514ZM45.194,75.159v-1.15q-.82.852-1.721,1.633.876-.2,1.721-.484Zm0-4.52V68.532a34.32,34.32,0,0,0-5.238-.565v7.607A23.958,23.958,0,0,0,45.194,70.639Zm0-4.356V57.038H39.956v8.723A36.464,36.464,0,0,1,45.194,66.284Zm.01-11.458a2.735,2.735,0,0,1,2.717-2.492h2.07a23.612,23.612,0,0,0-2.351-7.277,35.606,35.606,0,0,1-7.684,1.053v8.716ZM18.638,57.038a20.158,20.158,0,0,0,5.036,12.287,24.078,24.078,0,0,1,4.236-1.876,26.144,26.144,0,0,1-2.647-10.412Zm6.653,13.921a20.193,20.193,0,0,0,8.942,4.685,26.009,26.009,0,0,1-5.25-6.23A22.763,22.763,0,0,0,25.291,70.959ZM39.956,36.3V43.9a33.363,33.363,0,0,0,6.54-.833,24.088,24.088,0,0,0-6.54-6.774ZM37.744,57.038H27.478a23.925,23.925,0,0,0,2.59,9.776,35.611,35.611,0,0,1,7.676-1.051Zm0,18.532v-7.6a33.317,33.317,0,0,0-6.537.833A23.874,23.874,0,0,0,37.744,75.57ZM23.972,27.425,23.346,25.8H21.052l-.629,1.63a1.106,1.106,0,0,1-.776.678,10.886,10.886,0,0,0-3.2,1.325,1.106,1.106,0,0,1-1.03.069l-1.594-.709-1.621,1.621L12.914,32a1.106,1.106,0,0,1-.069,1.03,10.98,10.98,0,0,0-1.329,3.2,1.106,1.106,0,0,1-.678.774l-1.626.626v2.294l1.626.626a1.106,1.106,0,0,1,.678.773,10.955,10.955,0,0,0,1.328,3.2,1.106,1.106,0,0,1,.07,1.031l-.709,1.594,1.622,1.622,1.595-.706a1.106,1.106,0,0,1,1.026.068,10.971,10.971,0,0,0,3.2,1.326,1.106,1.106,0,0,1,.777.679l.626,1.626h2.294l.626-1.626a1.106,1.106,0,0,1,.777-.679,10.841,10.841,0,0,0,3.195-1.324,1.106,1.106,0,0,1,1.03-.071l1.595.706,1.622-1.622-.706-1.595a1.106,1.106,0,0,1,.068-1.026,10.993,10.993,0,0,0,1.326-3.2,1.106,1.106,0,0,1,.679-.777l1.626-.626V37.637l-1.626-.626a1.106,1.106,0,0,1-.679-.777,10.862,10.862,0,0,0-1.324-3.2,1.106,1.106,0,0,1-.07-1.028l.706-1.595L30.569,28.79l-1.594.709a1.106,1.106,0,0,1-1.03-.069,10.887,10.887,0,0,0-3.2-1.325,1.106,1.106,0,0,1-.777-.68Zm-1.774,3.6a7.758,7.758,0,1,1-7.756,7.756A7.758,7.758,0,0,1,22.2,31.025Zm0,2.212a5.546,5.546,0,1,0,5.548,5.544A5.542,5.542,0,0,0,22.2,33.238ZM55.261,52.489v2H65.519v-2H63.067a1.106,1.106,0,0,1-1.076-.847,1.648,1.648,0,0,0-3.2,0,1.106,1.106,0,0,1-1.075.847Zm5.128-.227a.728.728,0,1,1,.729-.727A.728.728,0,0,1,60.389,52.263Zm.466,8.983a1.106,1.106,0,0,1,0-2.212H68.41a1.106,1.106,0,0,1,0,2.212Zm-8.469-3.095h2.8a2.034,2.034,0,0,1,2.03,2.03v2.8a2.037,2.037,0,0,1-2.03,2.03h-2.8a2.037,2.037,0,0,1-2.028-2.03v-2.8A2.034,2.034,0,0,1,52.385,58.151Zm.184,2.212V62.8H55V60.364ZM60.855,72.2a1.106,1.106,0,1,1,0-2.212h3.778a1.106,1.106,0,1,1,0,2.212Zm0,7.022a1.106,1.106,0,1,1,0-2.212H68.41a1.106,1.106,0,1,1,0,2.212Zm-8.47-12.084h2.8a2.034,2.034,0,0,1,2.031,2.03v2.8A2.034,2.034,0,0,1,55.184,74h-2.8a2.035,2.035,0,0,1-2.028-2.028v-2.8A2.034,2.034,0,0,1,52.385,67.139Zm.184,2.212v2.433H55V69.351Zm8.286-5.226a1.106,1.106,0,1,1,0-2.212h3.778a1.106,1.106,0,0,1,0,2.212Zm0,5.2a1.106,1.106,0,1,1,0-2.212H68.41a1.106,1.106,0,1,1,0,2.212Zm-8.47,6.805h2.8a2.034,2.034,0,0,1,2.031,2.028v2.8a2.034,2.034,0,0,1-2.031,2.03h-2.8a2.034,2.034,0,0,1-2.028-2.03v-2.8A2.035,2.035,0,0,1,52.385,76.127Zm.184,2.212v2.433H55V78.339ZM60.855,82.1a1.106,1.106,0,1,1,0-2.212h3.778a1.106,1.106,0,0,1,0,2.212Z" transform="translate(-7 -23.584)" fill-rule="evenodd"/>
        </g>
      </g>
    </g>
  </g>
</svg>
