<svg xmlns="http://www.w3.org/2000/svg" width="85" height="85" viewBox="0 0 85 85">
  <g id="pronostico-del-tiempo" transform="translate(0)">
    <g id="Grupo_1102049" data-name="Grupo 1102049" transform="translate(1.245 1.245)">
      <path id="Trazado_878553" data-name="Trazado 878553" d="M67.266,66.768,37.383,76.729,7.5,66.768V17.461A9.961,9.961,0,0,1,17.461,7.5H57.3a9.961,9.961,0,0,1,9.961,9.961Z" transform="translate(-7.5 -7.5)" fill="#4e93ee"/>
    </g>
    <g id="Grupo_1102050" data-name="Grupo 1102050" transform="translate(1.245 1.245)">
      <path id="Trazado_878554" data-name="Trazado 878554" d="M22.441,17.461A9.961,9.961,0,0,1,32.4,7.5H17.461A9.961,9.961,0,0,0,7.5,17.461V66.768l14.941,4.98Z" transform="translate(-7.5 -7.5)" fill="#3d54bd"/>
    </g>
    <g id="Grupo_1102051" data-name="Grupo 1102051" transform="translate(21.167 7.886)">
      <path id="Trazado_878555" data-name="Trazado 878555" d="M127.5,50.82a3.32,3.32,0,0,1,3.32-3.32H144.1a3.32,3.32,0,1,1,0,6.641H130.82A3.32,3.32,0,0,1,127.5,50.82Z" transform="translate(-127.5 -47.5)" fill="#b8d4f8"/>
    </g>
    <g id="Grupo_1102052" data-name="Grupo 1102052" transform="translate(1.245 60.513)">
      <path id="Trazado_878556" data-name="Trazado 878556" d="M57.3,387.742H17.461A9.961,9.961,0,0,1,7.5,377.781V364.5H67.266v13.281A9.961,9.961,0,0,1,57.3,387.742Z" transform="translate(-7.5 -364.5)" fill="#edf4fe"/>
    </g>
    <g id="Grupo_1102053" data-name="Grupo 1102053" transform="translate(1.245 60.513)">
      <path id="Trazado_878557" data-name="Trazado 878557" d="M22.441,377.781V364.5H7.5v13.281a9.961,9.961,0,0,0,9.961,9.961H32.4A9.961,9.961,0,0,1,22.441,377.781Z" transform="translate(-7.5 -364.5)" fill="#b8d4f8"/>
    </g>
    <g id="Grupo_1102062" data-name="Grupo 1102062" transform="translate(55.552 26.753)">
      <g id="Grupo_1102061" data-name="Grupo 1102061">
        <path id="Trazado_878561" data-name="Trazado 878561" d="M359.724,174.218a4.661,4.661,0,0,1-2.648-6.393,4.661,4.661,0,0,0-6.211-6.211,4.636,4.636,0,0,1-3.41.232,17.354,17.354,0,0,0-12.834,16.764c0,6.635,5.459,14.555,12.834,16.764a4.636,4.636,0,0,1,3.41.232,4.661,4.661,0,0,0,6.211-6.211A4.662,4.662,0,0,1,359.724,183,4.661,4.661,0,0,0,359.724,174.218Z" transform="translate(-334.621 -161.144)" fill="#fec009"/>
      </g>
    </g>
    <g id="Grupo_1102063" data-name="Grupo 1102063" transform="translate(38.266 21.474)">
      <path id="Trazado_878562" data-name="Trazado 878562" d="M253.244,152.094a22.683,22.683,0,0,1,7.376-16.766,4.645,4.645,0,0,1-2.984-2.879,4.661,4.661,0,0,0-8.784,0,4.661,4.661,0,0,1-6.393,2.648,4.661,4.661,0,0,0-6.211,6.211A4.661,4.661,0,0,1,233.6,147.7a4.661,4.661,0,0,0,0,8.784,4.661,4.661,0,0,1,2.648,6.393,4.661,4.661,0,0,0,6.211,6.211,4.662,4.662,0,0,1,6.393,2.648,4.661,4.661,0,0,0,8.784,0,4.645,4.645,0,0,1,2.984-2.879A22.684,22.684,0,0,1,253.244,152.094Z" transform="translate(-230.499 -129.35)" fill="#fec009"/>
    </g>
    <g id="Grupo_1102065" data-name="Grupo 1102065" transform="translate(56.462 34.362)">
      <g id="Grupo_1102064" data-name="Grupo 1102064">
        <path id="Trazado_878563" data-name="Trazado 878563" d="M346.89,206.981c-3.937,2.406-6.79,6.325-6.79,9.856s3.053,7.824,6.79,9.856a10.107,10.107,0,0,0,0-19.712Z" transform="translate(-340.1 -206.981)" fill="#ffe69c"/>
      </g>
    </g>
    <g id="Grupo_1102066" data-name="Grupo 1102066" transform="translate(50.902 34.11)">
      <path id="Trazado_878564" data-name="Trazado 878564" d="M316.72,205.46a10.109,10.109,0,1,0,2.241,19.965,22.79,22.79,0,0,1,0-19.712A10.133,10.133,0,0,0,316.72,205.46Z" transform="translate(-306.611 -205.46)" fill="#ffcb6b"/>
    </g>
    <g id="Grupo_1102067" data-name="Grupo 1102067" transform="translate(0)">
      <path id="Trazado_878565" data-name="Trazado 878565" d="M142.412,44.565A4.571,4.571,0,0,0,137.847,40H124.565a4.565,4.565,0,0,0,0,9.131h13.281A4.571,4.571,0,0,0,142.412,44.565Zm-4.565,2.075H124.565a2.075,2.075,0,0,1,0-4.15h13.281a2.075,2.075,0,0,1,0,4.15Z" transform="translate(-100.078 -33.359)"/>
      <path id="Trazado_878566" data-name="Trazado 878566" d="M81.073,38.653a3.416,3.416,0,0,1-1.941-4.686,5.907,5.907,0,0,0-7.87-7.87,3.4,3.4,0,0,1-2.442.188l-.055-.019a3.392,3.392,0,0,1-2.189-2.109,5.83,5.83,0,0,0-4.32-3.8V11.206A11.219,11.219,0,0,0,51.05,0H11.206A11.219,11.219,0,0,0,0,11.206v5.551a1.245,1.245,0,1,0,2.49,0V11.206A8.726,8.726,0,0,1,11.206,2.49H51.05a8.726,8.726,0,0,1,8.716,8.716v9.155a5.83,5.83,0,0,0-4.32,3.8A3.416,3.416,0,0,1,50.76,26.1a5.907,5.907,0,0,0-7.87,7.87,3.416,3.416,0,0,1-1.941,4.686,5.907,5.907,0,0,0,0,11.13,3.416,3.416,0,0,1,1.941,4.686,5.845,5.845,0,0,0-.132,4.8H2.49v-36.7a1.245,1.245,0,1,0-2.49,0V73.794A11.219,11.219,0,0,0,11.206,85H51.05A11.219,11.219,0,0,0,62.256,73.794V68.076a5.83,5.83,0,0,0,4.32-3.8,3.391,3.391,0,0,1,2.188-2.109l.058-.02a3.4,3.4,0,0,1,2.439.188,5.907,5.907,0,0,0,7.87-7.87,3.416,3.416,0,0,1,1.941-4.686,5.907,5.907,0,0,0,0-11.13ZM51.05,82.51H11.206A8.726,8.726,0,0,1,2.49,73.794V61.758H44.715a5.832,5.832,0,0,0,6.045.583,3.416,3.416,0,0,1,4.686,1.941,5.83,5.83,0,0,0,4.32,3.8v5.718A8.726,8.726,0,0,1,51.05,82.51ZM80.238,47.437a5.906,5.906,0,0,0-3.355,8.1A3.416,3.416,0,0,1,72.33,60.09a5.883,5.883,0,0,0-4.322-.294l-.075.027a5.861,5.861,0,0,0-3.7,3.623,3.416,3.416,0,0,1-6.438,0,5.909,5.909,0,0,0-8.1-3.356,3.416,3.416,0,0,1-4.552-4.552,5.906,5.906,0,0,0-3.356-8.1,3.416,3.416,0,0,1,0-6.438,5.906,5.906,0,0,0,3.356-8.1,3.416,3.416,0,0,1,4.552-4.552,5.906,5.906,0,0,0,8.1-3.356,3.416,3.416,0,0,1,6.438,0,5.86,5.86,0,0,0,3.706,3.624l.073.026a5.884,5.884,0,0,0,4.322-.294A3.417,3.417,0,0,1,76.883,32.9,5.906,5.906,0,0,0,80.239,41a3.416,3.416,0,0,1,0,6.438Z" transform="translate(0)"/>
      <path id="Trazado_878567" data-name="Trazado 878567" d="M312.981,198.243A11.356,11.356,0,0,0,300.467,214.7a1.245,1.245,0,1,0,2.192-1.182,8.86,8.86,0,1,1,3.583,3.592,1.245,1.245,0,0,0-1.189,2.188,11.354,11.354,0,1,0,7.929-21.053Z" transform="translate(-249.454 -165.096)"/>
      <path id="Trazado_878568" data-name="Trazado 878568" d="M119.351,146.491h5.4l-5.071,11.535a1.245,1.245,0,1,0,2.28,1l5.838-13.281a1.245,1.245,0,0,0-1.14-1.746h-7.306a1.245,1.245,0,0,0,0,2.49Z" transform="translate(-98.499 -120.095)"/>
      <path id="Trazado_878569" data-name="Trazado 878569" d="M53.532,150.707a6.91,6.91,0,0,0,.55-1.97,1.221,1.221,0,0,0,.01-.158,4.579,4.579,0,0,0-9.071-.886,1.245,1.245,0,0,0,2.444.48,2.089,2.089,0,0,1,4.136.331,4.4,4.4,0,0,1-.339,1.179,9.532,9.532,0,0,1-.885,1.514c-2.066,2.952-3.3,4.567-3.962,5.434-.812,1.063-1.116,1.461-.9,2.166a1.308,1.308,0,0,0,.851.861,11.252,11.252,0,0,0,2.849.117c.989,0,2.341-.01,4.2-.033a1.245,1.245,0,1,0-.031-2.49c-1.5.019-3.106.028-4.335.03.735-.975,1.823-2.448,3.369-4.657A12.007,12.007,0,0,0,53.532,150.707Z" transform="translate(-37.528 -120.095)"/>
      <path id="Trazado_878570" data-name="Trazado 878570" d="M192.114,147.735A3.735,3.735,0,1,0,195.849,144,3.74,3.74,0,0,0,192.114,147.735Zm4.98,0a1.245,1.245,0,1,1-1.245-1.245A1.246,1.246,0,0,1,197.094,147.735Z" transform="translate(-160.22 -120.094)"/>
      <path id="Trazado_878571" data-name="Trazado 878571" d="M45,268.745a1.245,1.245,0,0,0,1.245,1.245H68.7a1.245,1.245,0,0,0,0-2.49H46.245A1.245,1.245,0,0,0,45,268.745Z" transform="translate(-37.529 -223.091)"/>
      <path id="Trazado_878572" data-name="Trazado 878572" d="M46.245,311a1.245,1.245,0,0,0,0,2.49H57.471a1.245,1.245,0,1,0,0-2.49Z" transform="translate(-37.529 -259.369)"/>
    </g>
  </g>
</svg>
